<svg id="Icone_Academico" xmlns="http://www.w3.org/2000/svg" width="33.944" height="30" viewBox="0 0 33.944 30">
  <path id="Caminho_11681" data-name="Caminho 11681" d="M48.014,27.955h-.653v-.707a1.906,1.906,0,0,0-1.9-1.9h-8.54A4.567,4.567,0,0,0,33,27.573a4.567,4.567,0,0,0-3.917-2.227H27.779a1.306,1.306,0,0,0-1.306-1.3H23.862a1.306,1.306,0,0,0-1.306,1.3H20.544a1.906,1.906,0,0,0-1.9,1.9v.707h-.653a1.96,1.96,0,0,0-1.958,1.957v20.87a1.96,1.96,0,0,0,1.958,1.957h11.75a1.306,1.306,0,0,0,1.306,1.3h3.917a1.306,1.306,0,0,0,1.306-1.3h11.75a1.96,1.96,0,0,0,1.958-1.957V29.912a1.96,1.96,0,0,0-1.958-1.957ZM19.945,47.521h9.139a3.253,3.253,0,0,1,2.855,1.713,3.222,3.222,0,0,0-1.549-.409H19.945Zm16.972-20.87h8.54a.6.6,0,0,1,.6.6V46.216H36.917a4.559,4.559,0,0,0-3.264,1.373V29.912a3.266,3.266,0,0,1,3.264-3.261Zm9.139,20.87v1.3H35.612a3.222,3.222,0,0,0-1.549.409,3.253,3.253,0,0,1,2.855-1.713ZM23.862,25.347h2.611v5.217H23.862Zm-3.917,1.9a.6.6,0,0,1,.6-.6h2.012v3.913a1.306,1.306,0,0,0,1.306,1.3h2.611a1.306,1.306,0,0,0,1.306-1.3V26.651h1.306a3.266,3.266,0,0,1,3.264,3.261V47.589a4.559,4.559,0,0,0-3.264-1.373H19.945ZM48.667,50.781a.653.653,0,0,1-.653.652H34.959v1.3H31.042v-1.3H17.987a.653.653,0,0,1-.653-.652V29.912a.653.653,0,0,1,.653-.652h.653V48.825a1.306,1.306,0,0,0,1.306,1.3H30.39a1.96,1.96,0,0,1,1.958,1.957h1.306a1.96,1.96,0,0,1,1.958-1.957H46.056a1.306,1.306,0,0,0,1.306-1.3V29.26h.653a.653.653,0,0,1,.653.652Z" transform="translate(-16.029 -24.042)" fill="#cecece"/>
</svg>
