<svg id="Icone_Home" xmlns="http://www.w3.org/2000/svg" width="30.266" height="30.265" viewBox="0 0 30.266 30.265">
  <path id="Caminho_11673" data-name="Caminho 11673" d="M44.545,28.659a1.144,1.144,0,0,0,1.171.018,1.172,1.172,0,0,0,.594-1.019v-1.8a1.761,1.761,0,0,0-.846-1.5L32.078,16.294a1.743,1.743,0,0,0-1.8,0L16.89,24.362a1.76,1.76,0,0,0-.846,1.5v1.8a1.172,1.172,0,0,0,1.166,1.171,1.148,1.148,0,0,0,.6-.171l.564-.339v14.5a1.166,1.166,0,0,0-1.164,1.164v1.164H16.044v1.164H46.309V45.144H45.145V43.98a1.166,1.166,0,0,0-1.164-1.164V28.32Zm-.564,16.485H18.372V43.98H43.981ZM19.536,40.488V39.324h2.328V38.16H19.536V27.62l11.342-6.836a.573.573,0,0,1,.6,0L42.817,27.62V38.16H40.489v1.164h2.328v1.164H39.325v1.164h3.492v1.164H34.669V35.258A1.757,1.757,0,0,0,32.914,33.5H29.439a1.757,1.757,0,0,0-1.754,1.754v7.558H19.536V41.652h3.492V40.488ZM33.5,35.258v7.558H28.849V35.258a.591.591,0,0,1,.591-.59h3.475a.591.591,0,0,1,.59.59ZM32.077,19.786a1.745,1.745,0,0,0-1.8,0L17.208,27.659v-1.8a.586.586,0,0,1,.282-.5l13.389-8.069a.573.573,0,0,1,.6,0L44.863,25.36a.588.588,0,0,1,.282.5v1.8Z" transform="translate(-16.044 -16.043)" fill="#cecece"/>
  <path id="Caminho_11674" data-name="Caminho 11674" d="M85.57,114.985h1.174v2.347H85.57Z" transform="translate(-70.442 -93.465)" fill="#cecece"/>
  <path id="Caminho_11675" data-name="Caminho 11675" d="M69.526,85.57h7.042v1.174H69.526Z" transform="translate(-57.914 -70.442)" fill="#cecece"/>
</svg>
