<svg xmlns="http://www.w3.org/2000/svg" width="33.232" height="30.265" viewBox="0 0 33.232 30.265">
  <g id="Icone_Financeiro" transform="translate(-233.118 -583.16)">
    <path id="Caminho_11566" data-name="Caminho 11566" d="M160.688,132.507V131.32h-2.374v-1.187h-1.187v1.187h-1.187a1.19,1.19,0,0,0-1.187,1.187v1.78a1.19,1.19,0,0,0,1.187,1.187H159.5v1.78h-4.747v1.187h2.374v1.187h1.187v-1.187H159.5a1.19,1.19,0,0,0,1.187-1.187v-1.78a1.19,1.19,0,0,0-1.187-1.187h-3.561v-1.78Z" transform="translate(100.914 470.83)" fill="#cecece"/>
    <rect id="Retângulo_21871" data-name="Retângulo 21871" width="5.341" height="1.187" transform="translate(236.678 595.029)" fill="#cecece"/>
    <rect id="Retângulo_21887" data-name="Retângulo 21887" width="5.341" height="1.187" transform="translate(236.678 592.029)" fill="#cecece"/>
    <rect id="Retângulo_21891" data-name="Retângulo 21891" width="23.144" height="1.294" transform="translate(236.678 589.029)" fill="#cecece"/>
    <rect id="Retângulo_21872" data-name="Retângulo 21872" width="4.747" height="1.187" transform="translate(243.206 595.029)" fill="#cecece"/>
    <rect id="Retângulo_21886" data-name="Retângulo 21886" width="4.747" height="1.187" transform="translate(243.206 592.029)" fill="#cecece"/>
    <rect id="Retângulo_21873" data-name="Retângulo 21873" width="4.747" height="1.187" transform="translate(249.14 595.029)" fill="#cecece"/>
    <rect id="Retângulo_21884" data-name="Retângulo 21884" width="4.747" height="1.187" transform="translate(249.14 592.029)" fill="#cecece"/>
    <rect id="Retângulo_21874" data-name="Retângulo 21874" width="4.747" height="1.187" transform="translate(255.075 595.029)" fill="#cecece"/>
    <rect id="Retângulo_21885" data-name="Retângulo 21885" width="4.747" height="1.187" transform="translate(255.075 592.029)" fill="#cecece"/>
    <rect id="Retângulo_21875" data-name="Retângulo 21875" width="8.308" height="1.187" transform="translate(236.678 599.776)" fill="#cecece"/>
    <rect id="Retângulo_21876" data-name="Retângulo 21876" width="5.934" height="1.187" transform="translate(236.678 602.15)" fill="#cecece"/>
    <rect id="Retângulo_21877" data-name="Retângulo 21877" width="26.111" height="1.187" transform="translate(235.491 583.16)" fill="#cecece"/>
    <path id="Caminho_11567" data-name="Caminho 11567" d="M51.961,53.287V40.469a1.749,1.749,0,0,0-1.78-1.78h-27.3a1.749,1.749,0,0,0-1.78,1.78v17.8a1.785,1.785,0,0,0,1.78,1.78H39.024a7.7,7.7,0,1,0,12.937-6.765ZM38.906,58.866H22.883a.638.638,0,0,1-.593-.593v-17.8a.638.638,0,0,1,.593-.593h27.3a.638.638,0,0,1,.593.593V52.4a7.608,7.608,0,0,0-4.154-1.246,7.7,7.7,0,0,0-7.715,7.715Zm7.715,6.528a6.528,6.528,0,1,1,6.528-6.528A6.509,6.509,0,0,1,46.62,65.393Z" transform="translate(212.015 546.845)" fill="#cecece"/>
  </g>
</svg>
