<svg id="Icone_Notas_e_Faltas" xmlns="http://www.w3.org/2000/svg" width="33.462" height="43.5" viewBox="0 0 33.462 43.5">
  <path id="Caminho_11627" data-name="Caminho 11627" d="M56.274,41.864V36.844a1.673,1.673,0,0,1,1.673-1.673h5.019Z" transform="translate(-52.928 -31.825)" fill="#ee864f"/>
  <path id="Caminho_11628" data-name="Caminho 11628" d="M74.442,28.733l-6.405-6.405A4.155,4.155,0,0,0,65.08,21.1H46.388a4.187,4.187,0,0,0-4.183,4.183V60.42A4.187,4.187,0,0,0,46.388,64.6h25.1a4.187,4.187,0,0,0,4.183-4.183V31.691a4.159,4.159,0,0,0-1.225-2.958ZM67.3,23.959l5.509,5.509H68.138a.838.838,0,0,1-.837-.837ZM73.994,60.42a2.513,2.513,0,0,1-2.51,2.51h-25.1a2.513,2.513,0,0,1-2.51-2.51V60.4a4.139,4.139,0,0,0,2.51.858h25.1a4.14,4.14,0,0,0,2.51-.858Zm0-4.183v.837a2.513,2.513,0,0,1-2.51,2.51h-25.1a2.513,2.513,0,0,1-2.51-2.51V25.285a2.513,2.513,0,0,1,2.51-2.51H65.08a2.468,2.468,0,0,1,.549.067v5.789a2.513,2.513,0,0,0,2.51,2.51h5.791a2.5,2.5,0,0,1,.065.55Z" transform="translate(-42.205 -21.103)" fill="#5c3876"/>
  <path id="Caminho_11629" data-name="Caminho 11629" d="M64.81,109.031H60.628a.836.836,0,0,0-.837.837v4.183a.836.836,0,0,0,.837.837H64.81a.836.836,0,0,0,.837-.837v-4.183A.836.836,0,0,0,64.81,109.031Zm-.837,4.183h-2.51V110.7h2.51Z" transform="translate(-55.608 -88.117)" fill="#5c3876"/>
  <rect id="Retângulo_21878" data-name="Retângulo 21878" width="15.022" height="1.673" transform="translate(14.257 20.914)" fill="#5c3876"/>
  <rect id="Retângulo_21879" data-name="Retângulo 21879" width="10.801" height="1.673" transform="translate(14.257 24.26)" fill="#5c3876"/>
  <path id="Caminho_11630" data-name="Caminho 11630" d="M64.81,144.2H60.628a.836.836,0,0,0-.837.837v4.183a.836.836,0,0,0,.837.837H64.81a.836.836,0,0,0,.837-.837v-4.183A.836.836,0,0,0,64.81,144.2Zm-.837,4.183h-2.51v-2.51h2.51Z" transform="translate(-55.608 -114.923)" fill="#5c3876"/>
  <rect id="Retângulo_21880" data-name="Retângulo 21880" width="15.022" height="1.673" transform="translate(14.257 29.279)" fill="#5c3876"/>
  <rect id="Retângulo_21881" data-name="Retângulo 21881" width="10.801" height="1.673" transform="translate(14.257 32.625)" fill="#ee864f"/>
  <rect id="Retângulo_21882" data-name="Retângulo 21882" width="15.022" height="1.673" transform="translate(14.257 12.548)" fill="#5c3876"/>
  <rect id="Retângulo_21883" data-name="Retângulo 21883" width="10.801" height="1.673" transform="translate(14.257 15.894)" fill="#5c3876"/>
  <path id="Caminho_11631" data-name="Caminho 11631" d="M64.344,75.511l-2.321-2.256-1.167,1.2,2.321,2.257a1.716,1.716,0,0,0,1.193.484c.035,0,.071,0,.107,0a1.713,1.713,0,0,0,1.229-.639L68.786,72.7l-1.308-1.046Z" transform="translate(-56.421 -59.633)" fill="#ee864f"/>
</svg>
