<svg xmlns="http://www.w3.org/2000/svg" width="43.764" height="40.397" viewBox="0 0 43.764 40.397">
  <g id="Icone_Carterinha_Estudante" transform="translate(-44.839 -507.302)">
    <path id="Caminho_11646" data-name="Caminho 11646" d="M57.268,27.262H49.693V25.579A1.685,1.685,0,0,0,48.01,23.9H42.96a2.528,2.528,0,0,0-2.525-2.525h-5.05A2.528,2.528,0,0,0,32.861,23.9H26.97a1.685,1.685,0,0,0-1.683,1.683v1.683H18.554a2.528,2.528,0,0,0-2.525,2.525V59.243a2.528,2.528,0,0,0,2.525,2.525H57.268a2.528,2.528,0,0,0,2.525-2.525V29.787A2.528,2.528,0,0,0,57.268,27.262ZM48.01,25.579v1.683H42.96V25.579ZM34.544,23.9a.842.842,0,0,1,.842-.842h5.05a.842.842,0,0,1,.842.842v6.733H34.544ZM26.97,25.579h5.891v1.683H26.97Zm30.3,34.506H18.554a.842.842,0,0,1-.842-.842v-1a2.5,2.5,0,0,0,.842.155H57.268a2.5,2.5,0,0,0,.842-.155v1A.842.842,0,0,1,57.268,60.085Zm.841-4.208a.842.842,0,0,1-.842.842H18.553a.842.842,0,0,1-.842-.842V29.787a.842.842,0,0,1,.842-.842H32.861v3.366h10.1V28.946H57.267a.842.842,0,0,1,.842.842v26.09Z" transform="translate(28.811 485.931)" fill="#5c3876"/>
    <path id="Caminho_11647" data-name="Caminho 11647" d="M45.015,75.709a5.013,5.013,0,0,0,.507-2.192V71.834a5.05,5.05,0,1,0-10.1,0v1.683a5.013,5.013,0,0,0,.507,2.192,8.374,8.374,0,0,0-3.874,7.066v1.683H48.889V82.775a8.374,8.374,0,0,0-3.874-7.066Zm-7.909-3.875a3.366,3.366,0,1,1,6.733,0v1.683a3.366,3.366,0,0,1-6.733,0ZM33.74,82.775A6.7,6.7,0,0,1,36.9,77.084a5.042,5.042,0,0,0,7.143,0,6.7,6.7,0,0,1,3.161,5.691Z" transform="translate(17.832 454.825)" fill="#ee864f"/>
    <path id="Caminho_11648" data-name="Caminho 11648" d="M101.512,66.784h11.783v1.683H101.512Z" transform="translate(-29.742 454.825)" fill="#ee864f"/>
    <path id="Caminho_11649" data-name="Caminho 11649" d="M101.512,77.47h11.783v1.683H101.512Z" transform="translate(-29.742 447.506)" fill="#ee864f"/>
    <path id="Caminho_11650" data-name="Caminho 11650" d="M101.512,88.155h10.1v1.683h-10.1Z" transform="translate(-29.742 440.187)" fill="#5c3876"/>
    <path id="Caminho_11651" data-name="Caminho 11651" d="M101.512,98.841h8.416v1.683h-8.416Z" transform="translate(-29.742 432.867)" fill="#5c3876"/>
    <path id="Caminho_11652" data-name="Caminho 11652" d="M101.512,114.87H103.2v2.525h-1.683Z" transform="translate(-29.742 421.889)" fill="#5c3876"/>
    <path id="Caminho_11653" data-name="Caminho 11653" d="M112.2,114.87h1.683v2.525H112.2Z" transform="translate(-37.061 421.889)" fill="#5c3876"/>
    <path id="Caminho_11654" data-name="Caminho 11654" d="M122.883,114.87h1.683v2.525h-1.683Z" transform="translate(-44.38 421.889)" fill="#5c3876"/>
    <path id="Caminho_11655" data-name="Caminho 11655" d="M133.569,114.87h1.683v2.525h-1.683Z" transform="translate(-51.699 421.889)" fill="#5c3876"/>
    <path id="Caminho_11656" data-name="Caminho 11656" d="M83.508,36.265H80.141V32.9a.842.842,0,0,1,.842-.842h1.683a.842.842,0,0,1,.842.842Z" transform="translate(-15.103 478.612)" fill="#5c3876"/>
  </g>
</svg>
