<svg xmlns="http://www.w3.org/2000/svg" width="28.353" height="30" viewBox="0 0 28.353 30">
  <path id="Icone_Perfil_Selecionado" d="M52.349,27.706,40.022,21.4a2.719,2.719,0,0,0-2.469,0L25.226,27.706a1.148,1.148,0,0,0-.035,2.014l.555.309v4.449A1.866,1.866,0,0,0,24.613,36.1v2.308a1.7,1.7,0,1,0,3.4,0V36.1a1.866,1.866,0,0,0-1.134-1.625V30.663l2.835,1.583v.813a1.147,1.147,0,0,0,.431.9c.2.163.136.246.7.245v.225a2.535,2.535,0,0,0-2.269,2.826,2.859,2.859,0,0,0,2.6,2.86,8.105,8.105,0,0,0,.3.854,12.092,12.092,0,0,0-4.593,9.556V51.1H50.695v-.576A12.093,12.093,0,0,0,46.1,40.971a8.092,8.092,0,0,0,.3-.854,2.86,2.86,0,0,0,2.6-2.86,3.051,3.051,0,0,0-2.269-2.826v-.058h0a1.222,1.222,0,0,0,.7-.33,1.321,1.321,0,0,0,.43-.985v-.813l4.524-2.525a1.147,1.147,0,0,0-.035-2.013Zm-26.036,7.82a.573.573,0,0,1,.567.577v.577H25.747V36.1A.573.573,0,0,1,26.314,35.526Zm0,3.462a.573.573,0,0,1-.567-.577v-.577h1.134v.577A.573.573,0,0,1,26.314,38.988Zm19.278-1.154a6.805,6.805,0,1,1-13.608,0V36.68a1.185,1.185,0,0,0,1.134-1.154V33.744a31.226,31.226,0,0,1,11.34,0v1.782a1.185,1.185,0,0,0,1.134,1.154ZM37.328,48.582a.564.564,0,0,1,.527-.363h1.865a.565.565,0,0,1,.527.363l.538,1.367h-4Zm2.026-1.517H38.221a.572.572,0,0,1-.567-.576V45.82a4.754,4.754,0,0,0,1.134.092,10.647,10.647,0,0,0,1.134-.092v.669A.572.572,0,0,1,39.355,47.065Zm1.7-14.909v-2.3c.567.055,1.134.144,2.268.254V32.4c-1.134-.107-1.7-.192-2.268-.245ZM39.922,32.1c-1.134-.027-1.7-.026-2.268,0V29.8c0-.014.753-.036,1.129-.036s.572.022,1.139.036Zm-3.4.054a14.638,14.638,0,0,0-2.268.247v-2.3a14.23,14.23,0,0,1,2.268-.254Zm-3.4.423a10.246,10.246,0,0,0-2.268.478V30.78a9.99,9.99,0,0,1,2.268-.492Zm-3.4,4.675a1.867,1.867,0,0,1,1.135-1.625v2.2a8.159,8.159,0,0,0,.078,1.073,1.724,1.724,0,0,1-1.213-1.649Zm2.292,4.756a6.963,6.963,0,0,0,4.513,3.559v.917a1.743,1.743,0,0,0,.282.952,1.715,1.715,0,0,0-.527.714l-.706,1.8H31.417V48.8H30.283V49.95H28.028a11.359,11.359,0,0,1,3.979-7.937Zm17.54,7.937H47.293V48.8H46.159V49.95H42.007l-.706-1.8a1.72,1.72,0,0,0-.527-.714,1.743,1.743,0,0,0,.282-.951v-.917a8.7,8.7,0,0,0,4.513-3.559,11.354,11.354,0,0,1,3.979,7.937ZM47.86,37.257a1.724,1.724,0,0,1-1.213,1.649,8.151,8.151,0,0,0,.078-1.073v-2.2a1.867,1.867,0,0,1,1.135,1.625Zm-1.136-4.2c-.754-.188-1.7-.341-2.267-.475V30.29c.567.139,1.514.3,2.269.493Zm1.135-2.123v-.147A1.151,1.151,0,0,0,47,29.661a32.564,32.564,0,0,0-16.433,0,1.151,1.151,0,0,0-.856,1.122v.153l-3.98-2.2,12.327-6.306a1.6,1.6,0,0,1,1.45,0l12.326,6.278Z" transform="translate(-24.611 -21.104)" fill="#5c3876"/>
</svg>
