<svg id="Icone_Redefinir_Senha" xmlns="http://www.w3.org/2000/svg" width="32.714" height="36.981" viewBox="0 0 32.714 36.981">
  <path id="Caminho_11710" data-name="Caminho 11710" d="M92.249,106.855a1.422,1.422,0,1,0,1.422,1.422A1.422,1.422,0,0,0,92.249,106.855Z" transform="translate(-73.047 -82.675)" fill="#ee864f"/>
  <path id="Caminho_11711" data-name="Caminho 11711" d="M108.277,106.855a1.422,1.422,0,1,0,1.422,1.422A1.422,1.422,0,0,0,108.277,106.855Z" transform="translate(-84.809 -82.675)" fill="#ee864f"/>
  <path id="Caminho_11712" data-name="Caminho 11712" d="M124.306,106.855a1.422,1.422,0,1,0,1.422,1.422A1.422,1.422,0,0,0,124.306,106.855Z" transform="translate(-96.57 -82.675)" fill="#ee864f"/>
  <path id="Caminho_11713" data-name="Caminho 11713" d="M76.221,106.855a1.422,1.422,0,1,0,1.422,1.422A1.422,1.422,0,0,0,76.221,106.855Z" transform="translate(-61.286 -82.675)" fill="#ee864f"/>
  <path id="Caminho_11714" data-name="Caminho 11714" d="M54.637,35.941H51.066V33.807a3.56,3.56,0,0,0-3.556-3.556H46.8V28.829a1.424,1.424,0,0,0-1.422-1.422H43.955V22.429a6.4,6.4,0,1,0-12.8,0v4.978H29.731a1.424,1.424,0,0,0-1.422,1.422v1.422H27.6a3.56,3.56,0,0,0-3.556,3.556V49.453A3.56,3.56,0,0,0,27.6,53.009H47.511a3.56,3.56,0,0,0,3.556-3.556V47.32h3.571A2.122,2.122,0,0,0,56.756,45.2V38.06A2.122,2.122,0,0,0,54.637,35.941Zm-9.26-5.689H41.11V28.829h4.267Zm-12.8-7.823a4.978,4.978,0,1,1,9.956,0v4.978H41.11a1.424,1.424,0,0,0-1.422,1.422v1.422H35.421V28.829A1.424,1.424,0,0,0,34,27.407H32.576Zm-2.845,6.4H34v1.422H29.731ZM49.644,49.453a2.136,2.136,0,0,1-2.134,2.134H42.533a1.424,1.424,0,0,0-1.422-1.422H34a1.424,1.424,0,0,0-1.422,1.422H27.6a2.136,2.136,0,0,1-2.134-2.134V46.609h2.845V45.186H25.465V43.764h2.845V42.342H25.465V40.919h2.845V39.5H25.465V38.075h2.845V36.652H25.465V33.808A2.136,2.136,0,0,1,27.6,31.674H47.511a2.136,2.136,0,0,1,2.134,2.134v2.134H36.117A2.122,2.122,0,0,0,34,38.06V45.2a2.122,2.122,0,0,0,2.119,2.119H49.644ZM55.334,45.2a.7.7,0,0,1-.7.7H36.117a.7.7,0,0,1-.7-.7V38.06a.7.7,0,0,1,.7-.7h18.52a.7.7,0,0,1,.7.7Z" transform="translate(-24.042 -16.028)" fill="#5c3876"/>
</svg>
