<svg id="Icone_Calendario_Academico" xmlns="http://www.w3.org/2000/svg" width="39.206" height="44.32" viewBox="0 0 39.206 44.32">
  <path id="Caminho_11610" data-name="Caminho 11610" d="M49.217,88.893H35.58a.853.853,0,0,1-.852-.852v-1.7a.853.853,0,0,1,.852-.852H49.217a.853.853,0,0,1,.852.852v1.7A.853.853,0,0,1,49.217,88.893Z" transform="translate(-31.319 -63.324)" fill="#5c3876"/>
  <path id="Caminho_11611" data-name="Caminho 11611" d="M56.612,126.292H38.529c-.624,0-1.13-.382-1.13-.852v-1.7c0-.47.506-.852,1.13-.852H56.612c.624,0,1.13.382,1.13.852v1.7C57.742,125.911,57.236,126.292,56.612,126.292Z" transform="translate(-33.138 -88.791)" fill="#5c3876"/>
  <path id="Caminho_11612" data-name="Caminho 11612" d="M95.368,107.593H78.322a.853.853,0,0,1-.852-.852v-1.7a.853.853,0,0,1,.852-.852H95.368a.853.853,0,0,1,.852.852v1.7A.853.853,0,0,1,95.368,107.593Z" transform="translate(-60.424 -76.058)" fill="#ee864f"/>
  <path id="Caminho_11613" data-name="Caminho 11613" d="M58.987,21.142H55.578V20.29a4.262,4.262,0,1,0-8.523,0v.852H40.236V20.29a4.262,4.262,0,1,0-8.523,0v.852H28.3A4.265,4.265,0,0,0,24.042,25.4V56.087A4.265,4.265,0,0,0,28.3,60.348H58.987a4.265,4.265,0,0,0,4.262-4.262V25.4A4.265,4.265,0,0,0,58.987,21.142ZM48.759,20.29a2.557,2.557,0,1,1,5.114,0V23.7a.854.854,0,0,1-.852.852H49.612a.854.854,0,0,1-.852-.852Zm-15.342,0a2.557,2.557,0,1,1,5.114,0V23.7a.854.854,0,0,1-.852.852H34.27a.854.854,0,0,1-.852-.852ZM61.544,34.779H58.135V31.37h3.409Zm-5.114,0H51.316V31.37H56.43Zm-6.818,0H44.5V31.37h5.114Zm-6.819,0H37.679V31.37h5.114Zm-6.818,0H30.861V31.37h5.114Zm-6.818,0H25.747V31.37h3.409ZM61.544,56.087a2.562,2.562,0,0,1-2.557,2.557H28.3a2.562,2.562,0,0,1-2.557-2.557v-.023a4.218,4.218,0,0,0,2.557.875H58.987a4.218,4.218,0,0,0,2.557-.875Zm-2.557-.852H28.3a2.562,2.562,0,0,1-2.557-2.557V36.484h35.8V52.677A2.562,2.562,0,0,1,58.987,55.234ZM25.747,29.665V25.4A2.562,2.562,0,0,1,28.3,22.847h3.409V23.7a2.562,2.562,0,0,0,2.557,2.557h3.409A2.562,2.562,0,0,0,40.236,23.7v-.852h6.818V23.7a2.562,2.562,0,0,0,2.557,2.557h3.409A2.562,2.562,0,0,0,55.578,23.7v-.852h3.409A2.562,2.562,0,0,1,61.544,25.4v4.262Z" transform="translate(-24.042 -16.028)" fill="#5c3876"/>
</svg>
