<svg xmlns="http://www.w3.org/2000/svg" width="73.785" height="51.649" viewBox="0 0 73.785 51.649">
  <path id="Icon_Nuvem_Upload" d="M61.979,24.685A11.081,11.081,0,0,0,51.649,9.628,11.011,11.011,0,0,0,45.5,11.5a18.448,18.448,0,0,0-34.437,9.2c0,.311.012.623.023.934A16.606,16.606,0,0,0,16.6,53.9H59.028a14.756,14.756,0,0,0,2.951-29.214ZM45.355,31.764h-7.54V44.676a1.85,1.85,0,0,1-1.845,1.845H30.436a1.85,1.85,0,0,1-1.845-1.845V31.764h-7.54a1.841,1.841,0,0,1-1.3-3.147L31.9,16.465a1.851,1.851,0,0,1,2.606,0L46.657,28.617a1.844,1.844,0,0,1-1.3,3.147Z" transform="translate(0 -2.25)" fill="#d1d1d1" opacity="0.56"/>
</svg>
