<svg xmlns="http://www.w3.org/2000/svg" width="14.493" height="13.856" viewBox="0 0 14.493 13.856">
  <g id="Icone_Editar" transform="translate(-3 -2.818)">
    <path id="Caminho_11704" data-name="Caminho 11704" d="M23.747,29.949H17.225a.725.725,0,0,1,0-1.449h6.522a.725.725,0,0,1,0,1.449Z" transform="translate(-6.978 -13.275)" fill="#573371"/>
    <path id="Caminho_11705" data-name="Caminho 11705" d="M14.595,2.818a2.262,2.262,0,0,1,1.6,3.861L7.136,15.738a.725.725,0,0,1-.337.191l-2.9.725a.725.725,0,0,1-.879-.879l.725-2.9a.725.725,0,0,1,.191-.337L13,3.481A2.247,2.247,0,0,1,14.595,2.818ZM6.253,14.571l8.916-8.916A.813.813,0,0,0,14.02,4.505L5.1,13.422l-.383,1.532Z" fill="#573371"/>
  </g>
</svg>
