<svg xmlns="http://www.w3.org/2000/svg" width="32.629" height="40.397" viewBox="0 0 32.629 40.397">
  <g id="Icone_Declaracao_Escolar" transform="translate(-29.415 -16.044)">
    <path id="Caminho_11693" data-name="Caminho 11693" d="M77.818,115.418H62.28a.777.777,0,0,1-.777-.777v-1.554a.777.777,0,0,1,.777-.777H77.818a.777.777,0,0,1,.777.777v1.554A.777.777,0,0,1,77.818,115.418Z" transform="translate(-22.766 -68.299)" fill="#ee864f"/>
    <path id="Caminho_11694" data-name="Caminho 11694" d="M59.713,22.259H58.159v-.777a2.333,2.333,0,0,0-2.331-2.331h-9.4a3.884,3.884,0,0,0-7.612,0h-7.07a2.333,2.333,0,0,0-2.331,2.331V49.45a2.333,2.333,0,0,0,2.331,2.331h.777v2.331a2.333,2.333,0,0,0,2.331,2.331h24.86a2.333,2.333,0,0,0,2.331-2.331V24.59A2.333,2.333,0,0,0,59.713,22.259ZM31.745,50.227a.777.777,0,0,1-.777-.777V21.482a.777.777,0,0,1,.777-.777h6.992v1.554H34.853a2.333,2.333,0,0,0-2.331,2.331V50.227ZM60.49,54.111a.777.777,0,0,1-.777.777H34.853a.777.777,0,0,1-.777-.777V24.59a.777.777,0,0,1,.777-.777h3.884v2.331a3.884,3.884,0,0,0,7.769,0v-.778a2.331,2.331,0,0,0-4.661,0v1.555H43.4V25.365a.777.777,0,1,1,1.554,0v.778a2.331,2.331,0,0,1-4.661,0V19.929a2.331,2.331,0,0,1,4.661,0v.777H55.828a.777.777,0,0,1,.777.777v.777H48.06v1.554H59.713a.777.777,0,0,1,.777.777Z" fill="#5c3876"/>
    <path id="Caminho_11695" data-name="Caminho 11695" d="M93.592,48.133h7.769v1.554H93.592Z" transform="translate(-45.533 -22.766)" fill="#ee864f"/>
    <path id="Caminho_11696" data-name="Caminho 11696" d="M93.592,58.829h7.769v1.554H93.592Z" transform="translate(-45.533 -30.355)" fill="#5c3876"/>
    <path id="Caminho_11697" data-name="Caminho 11697" d="M61.5,80.222H78.595v1.554H61.5Z" transform="translate(-22.766 -45.533)" fill="#5c3876"/>
    <path id="Caminho_11698" data-name="Caminho 11698" d="M61.5,90.918H78.595v1.554H61.5Z" transform="translate(-22.766 -53.121)" fill="#5c3876"/>
    <path id="Caminho_11699" data-name="Caminho 11699" d="M61.5,101.614H78.595v1.554H61.5Z" transform="translate(-22.766 -60.71)" fill="#5c3876"/>
  </g>
</svg>
