<svg id="Icone_Historico_Academico" xmlns="http://www.w3.org/2000/svg" width="46.694" height="43.102" viewBox="0 0 46.694 43.102">
  <path id="Caminho_11579" data-name="Caminho 11579" d="M66.975,129.311a.9.9,0,0,1-.9.9H60.689a.9.9,0,0,1-.9-.9v-1.8a.9.9,0,0,1,.9-.9h5.388a.9.9,0,0,1,.9.9Z" transform="translate(-49.914 -101.474)" fill="#ee864f"/>
  <path id="Caminho_11580" data-name="Caminho 11580" d="M146.721,155.726a6.288,6.288,0,0,0-12.051,0Z" transform="translate(-105.676 -119.808)" fill="#ee864f"/>
  <path id="Caminho_11581" data-name="Caminho 11581" d="M27.388,30.831a.9.9,0,0,1,.9-.9H57.021a.9.9,0,0,1,.9.9v9.878h1.8v-8.98h.9a.9.9,0,0,1,.9.9v8.082h1.8V32.627a2.7,2.7,0,0,0-2.694-2.694H59.55a2.689,2.689,0,0,0-2.529-1.8H28.286a2.7,2.7,0,0,0-2.694,2.694V62.26H21.1v3.592a5.393,5.393,0,0,0,5.388,5.388H41.756v-1.8H26.49A3.6,3.6,0,0,1,22.9,65.851v-1.8H41.756v-1.8H27.388Z" transform="translate(-21.103 -28.137)" fill="#5c3876"/>
  <path id="Caminho_11582" data-name="Caminho 11582" d="M59.791,56.274H83.138v1.8H59.791Z" transform="translate(-49.914 -49.09)" fill="#5c3876"/>
  <path id="Caminho_11583" data-name="Caminho 11583" d="M59.791,70.343H83.138v1.8H59.791Z" transform="translate(-49.914 -59.567)" fill="#5c3876"/>
  <path id="Caminho_11584" data-name="Caminho 11584" d="M59.791,84.411H71.465v1.8H59.791Z" transform="translate(-49.914 -70.044)" fill="#5c3876"/>
  <path id="Caminho_11585" data-name="Caminho 11585" d="M59.791,98.48H71.465v1.8H59.791Z" transform="translate(-49.914 -80.52)" fill="#5c3876"/>
  <path id="Caminho_11586" data-name="Caminho 11586" d="M134.1,89.8a1.8,1.8,0,0,0,1.8-1.8v-1.8a1.8,1.8,0,0,0-1.8-1.8H114.344a1.8,1.8,0,0,0-1.8,1.8V88a1.8,1.8,0,0,0,1.8,1.8,9.884,9.884,0,0,0,5.786,8.98,9.884,9.884,0,0,0-5.786,8.98,1.8,1.8,0,0,0-1.8,1.8v1.8a1.8,1.8,0,0,0,1.8,1.8H134.1a1.8,1.8,0,0,0,1.8-1.8v-1.8a1.8,1.8,0,0,0-1.8-1.8,9.884,9.884,0,0,0-5.786-8.98A9.884,9.884,0,0,0,134.1,89.8Zm-19.755-3.592H134.1V88H114.344ZM134.1,111.35H114.344v-1.8H134.1Zm-1.8-3.592H116.14a8.082,8.082,0,0,1,16.163,0Zm-8.082-9.878A8.091,8.091,0,0,1,116.14,89.8H132.3a8.091,8.091,0,0,1-8.082,8.082Z" transform="translate(-89.201 -70.044)" fill="#5c3876"/>
  <path id="Caminho_11587" data-name="Caminho 11587" d="M59.791,112.548h7.184v1.8H59.791Z" transform="translate(-49.914 -90.997)" fill="#5c3876"/>
</svg>
