<svg xmlns="http://www.w3.org/2000/svg" width="79.577" height="79.577" viewBox="0 0 79.577 79.577">
  <g id="Icone_Noticias" transform="translate(-305.07 -405.711)">
    <circle id="Elipse_67" data-name="Elipse 67" cx="26" cy="26" r="26" transform="translate(316 417)" fill="#f2f2f2"/>
    <g id="Grupo_13567" data-name="Grupo 13567" transform="translate(305.07 426.094) rotate(-19)">
      <path id="Caminho_5023" data-name="Caminho 5023" d="M0,62.606V0H62.605V62.606Z" transform="translate(0 0)" fill="none"/>
      <g id="Grupo_9623" data-name="Grupo 9623" transform="translate(0 7.826)">
        <g id="Grupo_9622" data-name="Grupo 9622" transform="translate(0 0)">
          <path id="Caminho_5024" data-name="Caminho 5024" d="M1.956,0H5.869V17.608H1.956A1.956,1.956,0,0,1,0,15.651V1.956A1.956,1.956,0,0,1,1.956,0Z" transform="translate(4.891 10.76)" fill="#faefde"/>
          <path id="Caminho_5025" data-name="Caminho 5025" d="M5.869,14.673a2.935,2.935,0,0,1-2.935-2.935V0H1.956A1.956,1.956,0,0,0,0,1.956V15.651a1.956,1.956,0,0,0,1.956,1.956H5.869Z" transform="translate(4.891 10.76)" fill="#efd8be"/>
          <path id="Caminho_5026" data-name="Caminho 5026" d="M3.913,13.695l-1.75-.875A3.913,3.913,0,0,1,0,9.32V4.375A3.913,3.913,0,0,1,2.163.875L3.913,0Z" transform="translate(0.978 12.717)" fill="#f9dd8f"/>
          <path id="Caminho_5027" data-name="Caminho 5027" d="M0,0V3.451a3.913,3.913,0,0,0,2.163,3.5l1.75.875V4.375L2.163,3.5A3.913,3.913,0,0,1,0,0Z" transform="translate(0.978 18.586)" fill="#e5c878"/>
          <rect id="Ret창ngulo_976" data-name="Ret창ngulo 976" width="13.695" height="17.608" transform="translate(10.76 10.76)" fill="#ef884e" opacity="0.79"/>
          <rect id="Ret창ngulo_977" data-name="Ret창ngulo 977" width="13.695" height="2.935" transform="translate(10.76 25.434)" fill="#f08b4d"/>
          <path id="Caminho_5028" data-name="Caminho 5028" d="M2.283,7.826H0V25.434H2.283a23.465,23.465,0,0,1,10.5,2.479l10.695,5.347V0L12.782,5.347a23.465,23.465,0,0,1-10.5,2.479Z" transform="translate(24.455 2.935)" fill="#faefde"/>
          <path id="Caminho_5029" data-name="Caminho 5029" d="M1.917,37.172h0A1.924,1.924,0,0,1,.035,34.881a89.071,89.071,0,0,0,0-32.59A1.924,1.924,0,0,1,1.917,0h0a1.923,1.923,0,0,1,1.89,1.548,89.11,89.11,0,0,1,0,34.077,1.923,1.923,0,0,1-1.89,1.548Z" transform="translate(46.393 0.978)" fill="#f9dd8f"/>
          <path id="Caminho_5030" data-name="Caminho 5030" d="M20.225,1.626a88.791,88.791,0,0,1,.9,23.048A1.964,1.964,0,0,1,18.3,26.268l-2.581-1.29A23.476,23.476,0,0,0,5.218,22.5H4.891a1.956,1.956,0,0,1-1.956-1.956V7.807c-.217.006-.433.019-.651.019H0V25.434H2.283a23.477,23.477,0,0,1,10.5,2.479l7.442,3.717,3.252,1.63V0Z" transform="translate(24.455 2.935)" fill="#efd8be"/>
          <path id="Caminho_5031" data-name="Caminho 5031" d="M3.875,34.237a1.924,1.924,0,0,1-1.882-2.291A89.018,89.018,0,0,0,2.1.016C2.039.01,1.98,0,1.919,0A1.924,1.924,0,0,0,.037,2.291a89.07,89.07,0,0,1,0,32.59,1.922,1.922,0,1,0,3.772.743c.09-.468.155-.935.237-1.4-.06,0-.113.015-.17.015Z" transform="translate(46.392 0.978)" fill="#e5c878"/>
          <path id="Caminho_5032" data-name="Caminho 5032" d="M9.782,3.913H3.165a1.956,1.956,0,0,1-1.75-1.082L0,0H11.738V1.956A1.956,1.956,0,0,1,9.782,3.913Z" transform="translate(12.716 28.368)" fill="#e6e6e6"/>
          <path id="Caminho_5033" data-name="Caminho 5033" d="M.978,1.956h10.76V0H0Z" transform="translate(12.716 28.368)" fill="#cecece"/>
          <path id="Caminho_5034" data-name="Caminho 5034" d="M6.847,13.695H2.8A1.956,1.956,0,0,1,.848,11.877L0,0H5.869L6.74,8.706a1.956,1.956,0,0,0,1.076,1.555l.988.5v.978A1.956,1.956,0,0,1,6.847,13.7Z" transform="translate(16.629 32.281)" fill="#faefde"/>
          <path id="Caminho_5035" data-name="Caminho 5035" d="M6.577,10.76a3.913,3.913,0,0,1-3.9-3.634l-.22-3.075a1.956,1.956,0,0,1,1.952-2.1H5.869l.176-.2L5.869,0H0L.848,11.877A1.956,1.956,0,0,0,2.8,13.7H6.847A1.956,1.956,0,0,0,8.8,11.739V10.76Z" transform="translate(16.629 32.281)" fill="#efd8be"/>
          <path id="Caminho_5036" data-name="Caminho 5036" d="M48.311,0a2.879,2.879,0,0,0-2.219,1.039,2.91,2.91,0,0,0-.652,2.048L36.8,7.407A22.62,22.62,0,0,1,26.738,9.782H6.847a2.935,2.935,0,0,0-2.858,2.292L2.7,12.717A4.864,4.864,0,0,0,0,17.091v4.946a4.865,4.865,0,0,0,2.7,4.375l1.285.643a2.935,2.935,0,0,0,2.858,2.292h5.265l1.145,2.291a2.912,2.912,0,0,0,2.46,1.61L16.5,44.229a2.944,2.944,0,0,0,2.929,2.725h4.048a2.935,2.935,0,0,0,2.935-2.935v-.978a.978.978,0,0,0-.541-.88l-.992-.489a.978.978,0,0,1-.536-.778l-.783-7.839a2.935,2.935,0,0,0,1.873-2.73v-.978h1.3A22.6,22.6,0,0,1,36.8,31.722l8.639,4.319a2.891,2.891,0,0,0,5.722.746,90.486,90.486,0,0,0,0-34.448A2.9,2.9,0,0,0,48.311,0ZM1.956,22.037V17.091a2.917,2.917,0,0,1,1.622-2.625l.335-.167V24.829l-.335-.167a2.918,2.918,0,0,1-1.622-2.625Zm8.8-4.412a.978.978,0,0,0-.978.978V27.39H6.847a.978.978,0,0,1-.978-.978V12.717a.978.978,0,0,1,.978-.978H9.782V14.66a.978.978,0,1,0,1.956,0V11.739H23.477V27.39H11.738V18.6A.978.978,0,0,0,10.76,17.626Zm4.247,13.136L14.3,29.347h9.178v.978a.978.978,0,0,1-.978.978H15.882a.972.972,0,0,1-.875-.541Zm9.447,12.884v.374a.978.978,0,0,1-.978.978H19.429a.978.978,0,0,1-.978-.909l-.771-10.83h3.938l.783,7.826a2.923,2.923,0,0,0,1.608,2.333ZM26.738,27.39h-1.3V11.739h1.3A24.593,24.593,0,0,0,37.675,9.157l8.061-4.031a88.4,88.4,0,0,1,0,28.877l-8.061-4.03A24.574,24.574,0,0,0,26.738,27.39Zm22.5,9.028a.94.94,0,0,1-.929.754.919.919,0,0,1-.715-.335.97.97,0,0,1-.205-.8,90.44,90.44,0,0,0,0-32.945.978.978,0,0,1,.206-.8.915.915,0,0,1,.714-.335.941.941,0,0,1,.929.754,88.563,88.563,0,0,1,0,33.707Z" fill="#5e3b79"/>
          <path id="Caminho_5037" data-name="Caminho 5037" d="M4.891,0H.978a.978.978,0,1,0,0,1.956H4.891A.978.978,0,1,0,4.891,0Z" transform="translate(56.736 18.586)" fill="#684785"/>
          <path id="Caminho_5038" data-name="Caminho 5038" d="M.978,3.91a.97.97,0,0,0,.489-.131L4.857,1.822A.978.978,0,0,0,3.879.128L.489,2.084A.978.978,0,0,0,.978,3.91Z" transform="translate(55.033 10.274)" fill="#654482"/>
          <path id="Caminho_5039" data-name="Caminho 5039" d="M4.862,2.091,1.473.134A.978.978,0,1,0,.495,1.829L3.884,3.785a.978.978,0,0,0,.978-1.694Z" transform="translate(55.026 24.941)" fill="#593573"/>
          <path id="Caminho_5040" data-name="Caminho 5040" d="M2.935,1.956H.978A.978.978,0,0,1,.978,0H2.935a.978.978,0,0,1,0,1.956Z" transform="translate(19.564 11.739)" fill="#fff"/>
        </g>
      </g>
    </g>
  </g>
</svg>
