<svg id="Icone_Notificacao" xmlns="http://www.w3.org/2000/svg" width="25.626" height="25.626" viewBox="0 0 25.626 25.626">
  <g id="Grupo_13490" data-name="Grupo 13490">
    <path id="Caminho_11530" data-name="Caminho 11530" d="M0,25.626V0H25.626V25.626Z" fill="none"/>
    <g id="Grupo_13489" data-name="Grupo 13489" transform="translate(3.603 2.803)">
      <path id="Caminho_11531" data-name="Caminho 11531" d="M12.922,18.7a.847.847,0,0,0-.768.464l-.435,1.282a5.293,5.293,0,0,0-4.068,4.47L6.9,30.433a3.634,3.634,0,0,1-.491,1.29L4.83,34.5a1.149,1.149,0,0,0-.058,1.2,1.161,1.161,0,0,0,1.037.615h5.26a2.8,2.8,0,0,0,5.542,0h5.26a1.166,1.166,0,0,0,1.041-.621,1.133,1.133,0,0,0-.045-1.17l-1.595-2.8a3.629,3.629,0,0,1-.491-1.293l-.75-5.51a5.3,5.3,0,0,0-4.071-4.475l-.417-1.236-.019-.045a.845.845,0,0,0-.767-.464Zm0,.8h1.835a.116.116,0,0,1,.041.008l.273.808c-.106-.006-.213-.015-.321-.015H12.928c-.108,0-.214.009-.32.015l.271-.806a.087.087,0,0,1,.043-.01Zm.005,1.6h1.824a4.51,4.51,0,0,1,4.484,3.921l.75,5.51a4.361,4.361,0,0,0,.59,1.585l1.61,2.829a.355.355,0,0,1,.018.374.368.368,0,0,1-.333.2H5.809a.366.366,0,0,1-.332-.2.371.371,0,0,1,.034-.4L7,32.306c.012,0,.023.007.035.007h8.408a.4.4,0,1,0,0-.8H7.41a3.555,3.555,0,0,0,.285-.975l.751-5.518A4.509,4.509,0,0,1,12.928,21.1Zm1.713,1.2a.4.4,0,1,0,0,.8h.111a2.538,2.538,0,0,1,1.287.351.4.4,0,0,0,.407-.691,3.34,3.34,0,0,0-1.694-.461Zm2.695,1.6a.4.4,0,0,0-.332.579,2.5,2.5,0,0,1,.221.691.4.4,0,0,0,.789-.139,3.3,3.3,0,0,0-.295-.911.4.4,0,0,0-.384-.22Zm-.292,7.607a.4.4,0,1,0,0,.8h2a.4.4,0,1,0,0-.8Zm-9.209,1.6a.4.4,0,0,0-.4.4v.8a.4.4,0,1,0,.8,0v-.8A.4.4,0,0,0,7.834,33.114Zm2,0a.4.4,0,0,0-.4.4v.8a.4.4,0,1,0,.8,0v-.8A.4.4,0,0,0,9.836,33.114Zm2,0a.4.4,0,0,0-.4.4v.8a.4.4,0,1,0,.8,0v-.8A.4.4,0,0,0,11.838,33.114Zm2,0a.4.4,0,0,0-.4.4v.8a.4.4,0,1,0,.8,0v-.8A.4.4,0,0,0,13.84,33.114Zm2,0a.4.4,0,0,0-.4.4v.8a.4.4,0,1,0,.8,0v-.8A.4.4,0,0,0,15.842,33.114Zm2,0a.4.4,0,0,0-.4.4v.8a.4.4,0,1,0,.8,0v-.8A.4.4,0,0,0,17.844,33.114Zm2,0a.4.4,0,0,0-.4.4v.8a.4.4,0,1,0,.8,0v-.8A.4.4,0,0,0,19.846,33.114Zm-7.968,3.2H15.8a2,2,0,0,1-3.923,0Z" transform="translate(-4.63 -18.7)" fill="#f8f8f8"/>
    </g>
    <path id="Caminho_11532" data-name="Caminho 11532" fill="none"/>
  </g>
</svg>
