<svg xmlns="http://www.w3.org/2000/svg" width="22.024" height="16.909" viewBox="0 0 22.024 16.909">
  <g id="Icone_Filtro" transform="translate(-220.033 -326.652)">
    <path id="Caminho_5741" data-name="Caminho 5741" d="M236.113,345.382c-1.636,0-3.271,0-4.907,0-.2,0-.3.035-.372.254a4,4,0,0,1-7.56.027.351.351,0,0,0-.418-.283c-.593.016-1.187.007-1.781,0a1,1,0,1,1-.014-2c.625,0,1.251-.006,1.876,0a.262.262,0,0,0,.309-.211,4,4,0,0,1,7.6,0c.071.208.183.206.344.206q4.923,0,9.846,0a.994.994,0,0,1,.982.716,1.007,1.007,0,0,1-.385,1.1,1.04,1.04,0,0,1-.645.184C239.363,345.379,237.738,345.382,236.113,345.382Zm-7.067-.971A2,2,0,1,0,227,346.379,2.025,2.025,0,0,0,229.046,344.41Z" transform="translate(-0.004 -4.773)" fill="#4f4c4d"/>
    <path id="Caminho_5742" data-name="Caminho 5742" d="M225.964,329.6c1.636,0,3.271,0,4.907,0,.209,0,.316-.036.395-.267a4,4,0,0,1,7.559,0,.334.334,0,0,0,.395.269c.6-.011,1.208-.006,1.813,0a1,1,0,1,1,.016,2c-.625,0-1.251.005-1.876,0-.174,0-.265.029-.331.224a4,4,0,0,1-7.591,0c-.074-.223-.191-.221-.364-.221q-4.923,0-9.846,0a1.012,1.012,0,0,1-.995-.82,1.024,1.024,0,0,1,.7-1.145,1.133,1.133,0,0,1,.371-.034Q223.541,329.6,225.964,329.6Zm7.084,1a2,2,0,1,0,2.011-2A2.025,2.025,0,0,0,233.047,330.606Z" transform="translate(0 0)" fill="#4f4c4d"/>
  </g>
</svg>
