<svg xmlns="http://www.w3.org/2000/svg" width="18.136" height="18.345" viewBox="0 0 18.136 18.345">
  <path id="Icone_Pagas_Selecionado" d="M2.473,18.345A2.434,2.434,0,0,1,0,15.952V3.191A2.433,2.433,0,0,1,2.473.8H4.534A.825.825,0,0,1,6.183.8h5.771A.825.825,0,0,1,13.6.8h2.06a2.433,2.433,0,0,1,2.473,2.392V15.952a2.434,2.434,0,0,1-2.473,2.393Zm-.824-2.393a.812.812,0,0,0,.824.8H15.663a.812.812,0,0,0,.824-.8V5.982H13.6a.8.8,0,1,1,0-1.595h2.886v-1.2a.812.812,0,0,0-.824-.8H13.6a.825.825,0,0,1-1.65,0H6.183a.825.825,0,0,1-1.648,0H2.473a.812.812,0,0,0-.824.8v1.2h3.71a.811.811,0,0,1,.824.8V6.779a.825.825,0,0,1-1.648,0v-.8H1.648Zm5.6-1.031L4.775,12.528a.781.781,0,0,1,0-1.128.843.843,0,0,1,1.166,0l1.891,1.828L12.2,9.007a.846.846,0,0,1,1.166,0,.781.781,0,0,1,0,1.128L8.415,14.92a.843.843,0,0,1-1.166,0ZM10.3,6.779v-.8H7.831a.8.8,0,1,1,0-1.595h3.3a.811.811,0,0,1,.824.8V6.779a.825.825,0,0,1-1.648,0Z" fill="#5c9445"/>
</svg>
