<svg id="Icone_Sair" xmlns="http://www.w3.org/2000/svg" width="36.981" height="36.981" viewBox="0 0 36.981 36.981">
  <path id="Caminho_11721" data-name="Caminho 11721" d="M19.585,53.009H39.5a3.56,3.56,0,0,0,3.556-3.556V19.584A3.56,3.56,0,0,0,39.5,16.028H19.585a3.56,3.56,0,0,0-3.556,3.556v12.09h1.422V19.584a2.136,2.136,0,0,1,2.134-2.134H39.5a2.136,2.136,0,0,1,2.134,2.134V49.453A2.136,2.136,0,0,1,39.5,51.587H19.585a2.136,2.136,0,0,1-2.134-2.134V37.363H16.029v12.09A3.56,3.56,0,0,0,19.585,53.009Z" transform="translate(-6.072 -16.028)" fill="#5c3876"/>
  <path id="Caminho_11722" data-name="Caminho 11722" d="M28.136,58.005h18.49a1.424,1.424,0,0,0,1.422-1.422V28.136a1.424,1.424,0,0,0-1.422-1.422H28.136a1.424,1.424,0,0,0-1.422,1.422V39.515h1.422V28.136h18.49V56.583H28.136V45.2H26.714V56.583A1.424,1.424,0,0,0,28.136,58.005Z" transform="translate(-13.913 -23.869)" fill="#5c3876"/>
  <path id="Caminho_11723" data-name="Caminho 11723" d="M38.822,74.027V70.921a2.135,2.135,0,1,1,1.422,0v3.107a2.134,2.134,0,1,1-1.422,0Zm.711-5.82a.711.711,0,1,0,.711.711A.711.711,0,0,0,39.533,68.207Zm0,8.534a.711.711,0,1,0-.711-.711A.711.711,0,0,0,39.533,76.741Z" transform="translate(-10.375 -53.272)" fill="#ee864f"/>
  <path id="Caminho_11724" data-name="Caminho 11724" d="M75.14,71.179l7-4.275a.771.771,0,0,1,1.191.583V70.34h12.09a.711.711,0,0,1,.711.711v1.422a.711.711,0,0,1-.711.711H83.333v2.853a.771.771,0,0,1-1.191.584l-7-4.276a.669.669,0,0,1,0-1.167Z" transform="translate(-74.799 -53.272)" fill="#ee864f"/>
</svg>
