<svg id="Icone_Download_PDF" xmlns="http://www.w3.org/2000/svg" width="47.488" height="47.488" viewBox="0 0 47.488 47.488">
  <path id="Caminho_8106" data-name="Caminho 8106" d="M47.488,47.488V0H0V47.488Z" fill="none"/>
  <g id="Grupo_9649" data-name="Grupo 9649" transform="translate(2.968 2.968)">
    <path id="Caminho_8107" data-name="Caminho 8107" d="M37,13.276H15.664A2.226,2.226,0,0,0,13.438,15.5V51.118a2.226,2.226,0,0,0,2.226,2.226h28.2a2.226,2.226,0,0,0,2.226-2.226V22.358a2.226,2.226,0,0,0-.653-1.573l-6.856-6.856A2.226,2.226,0,0,0,37,13.276Z" transform="translate(-5.275 -12.578)" fill="#faefde"/>
    <path id="Caminho_8108" data-name="Caminho 8108" d="M45.682,53.389l.111-7.019L13.524,14.108l-.49,17.022,22.26,22.26Zm.111-14.729L20.41,13.277l-4.267.186L45.682,43Zm0-4.452L24.906,13.321H22.68L45.794,36.434Z" transform="translate(-4.872 -12.579)" fill="#fff7f0"/>
    <path id="Caminho_8109" data-name="Caminho 8109" d="M26.785,31.047l-.92,1.677-1.677.92,1.677.92.92,1.677.92-1.677,1.677-.92-1.677-.92Zm11.189-1.484-.631,1.158-1.165.638,1.165.631.631,1.165.638-1.165,1.158-.631-1.158-.638Zm10.217,23-.43.787-.794.438.794.43.43.794.438-.794.787-.43-.787-.438Z" transform="translate(-11.573 -24.368)" fill="#ee8151"/>
    <path id="Caminho_8110" data-name="Caminho 8110" d="M13.438,13.438v8.9h8.9Z" transform="translate(18.469 -12.695)" fill="#573371" opacity="0.81"/>
    <path id="Caminho_8111" data-name="Caminho 8111" d="M72.961,61.813H40.312V78.137H72.961Z" transform="translate(-39.57 -47.714)" fill="#573371"/>
    <path id="Caminho_8112" data-name="Caminho 8112" d="M48.212,139.75a.742.742,0,0,1,.742.742v1.484a.742.742,0,0,1-1.484,0v-1.484A.742.742,0,0,1,48.212,139.75Zm-3.71,0a.742.742,0,0,1,.742.742v1.484a.742.742,0,0,1-1.484,0v-1.484A.742.742,0,0,1,44.5,139.75Zm-3.71,2.968a.742.742,0,0,1-.742-.742v-1.484a.742.742,0,1,1,1.484,0v1.484A.742.742,0,0,1,40.792,142.718Zm-3.71,0a.742.742,0,0,1-.742-.742v-1.484a.742.742,0,1,1,1.484,0v1.484A.742.742,0,0,1,37.082,142.718Zm-3.71,0a.742.742,0,0,1-.742-.742v-1.484a.742.742,0,1,1,1.484,0v1.484A.742.742,0,0,1,33.372,142.718Zm-3.71,0a.742.742,0,0,1-.742-.742v-1.484a.742.742,0,1,1,1.484,0v1.484A.742.742,0,0,1,29.662,142.718Zm-3.71,0a.742.742,0,0,1-.742-.742v-1.484a.742.742,0,1,1,1.484,0v1.484A.742.742,0,0,1,25.952,142.718Zm-3.71,0a.742.742,0,0,1-.742-.742v-1.484a.742.742,0,1,1,1.484,0v1.484A.742.742,0,0,1,22.242,142.718Z" transform="translate(-10.37 -104.134)" fill="#573371"/>
    <path id="Caminho_8113" data-name="Caminho 8113" d="M12.234,24.106H18.17V12.976A2.226,2.226,0,0,1,20.4,10.75h21.77a3.71,3.71,0,0,1,2.627,1.083l6.426,6.426A3.71,3.71,0,0,1,52.3,20.886v29.19A2.226,2.226,0,0,1,50.076,52.3H20.4a2.226,2.226,0,0,1-2.226-2.226V41.914H12.234A1.484,1.484,0,0,1,10.75,40.43V25.59a1.484,1.484,0,0,1,1.484-1.484ZM43.74,12.887A2.226,2.226,0,0,0,43.4,12.6v6.307a.742.742,0,0,0,.742.742h6.307a2.226,2.226,0,0,0-.282-.341ZM19.654,50.076a.742.742,0,0,0,.742.742h29.68a.742.742,0,0,0,.742-.742V21.138H44.14a2.226,2.226,0,0,1-2.226-2.226V12.234H20.4a.742.742,0,0,0-.742.742v11.13H43.4a1.484,1.484,0,0,1,1.484,1.484V40.43A1.484,1.484,0,0,1,43.4,41.914H19.654Zm-7.42-9.646H43.4V25.59H12.234Z" transform="translate(-10.75 -10.75)" fill="#573371"/>
    <path id="Caminho_8114" data-name="Caminho 8114" d="M80.082,84.154a.742.742,0,0,0,.742-.742V81.186H83.05a.742.742,0,0,0,0-1.484H80.824V76.734h2.968a.742.742,0,0,0,0-1.484h-3.71a.742.742,0,0,0-.742.742v7.42A.742.742,0,0,0,80.082,84.154Zm-14.84,0a.742.742,0,0,0,.742-.742V81.186H68.21a2.226,2.226,0,0,0,2.226-2.226V77.476A2.226,2.226,0,0,0,68.21,75.25H65.242a.742.742,0,0,0-.742.742v7.42A.742.742,0,0,0,65.242,84.154Zm.742-7.42H68.21a.742.742,0,0,1,.742.742V78.96a.742.742,0,0,1-.742.742H65.984Zm6.678,7.42h2.226a2.968,2.968,0,0,0,2.968-2.968V78.218a2.968,2.968,0,0,0-2.968-2.968H72.662a.742.742,0,0,0-.742.742v7.42A.742.742,0,0,0,72.662,84.154Zm.742-7.42h1.484a1.484,1.484,0,0,1,1.484,1.484v2.968a1.484,1.484,0,0,1-1.484,1.484H73.4Z" transform="translate(-57.822 -57.442)" fill="#fff"/>
  </g>
</svg>
