<svg xmlns="http://www.w3.org/2000/svg" width="49.174" height="43.5" viewBox="0 0 49.174 43.5">
  <g id="Icone_Horario_Das_Aulas" transform="translate(-43.763 -362.5)">
    <g id="Grupo_13496" data-name="Grupo 13496" transform="translate(43.763 362.5)">
      <path id="Caminho_11536" data-name="Caminho 11536" d="M45.3,66.17a.946.946,0,0,1-.946.946H33a.946.946,0,0,1-.946-.946V62.387A.946.946,0,0,1,33,61.442H44.35a.946.946,0,0,1,.946.946Z" transform="translate(-26.383 -48.202)" fill="#ee864f"/>
      <path id="Caminho_11537" data-name="Caminho 11537" d="M32.057,36.619V34.728h9.457v1.891Z" transform="translate(-26.383 -30.945)" fill="#ee864f"/>
      <path id="Caminho_11538" data-name="Caminho 11538" d="M74.8,63.333V61.442H88.038v1.891Z" transform="translate(-53.994 -48.202)" fill="#5c3876"/>
      <path id="Caminho_11539" data-name="Caminho 11539" d="M32.057,84.7V82.813H37.73V84.7Z" transform="translate(-26.383 -62.008)" fill="#5c3876"/>
      <path id="Caminho_11540" data-name="Caminho 11540" d="M32.057,95.389V93.5H37.73v1.891Z" transform="translate(-26.383 -68.911)" fill="#5c3876"/>
      <path id="Caminho_11541" data-name="Caminho 11541" d="M53.428,84.7V82.813H59.1V84.7Z" transform="translate(-40.188 -62.008)" fill="#5c3876"/>
      <path id="Caminho_11542" data-name="Caminho 11542" d="M53.428,95.389V93.5H59.1v1.891Z" transform="translate(-40.188 -68.911)" fill="#5c3876"/>
      <path id="Caminho_11543" data-name="Caminho 11543" d="M74.8,74.018V72.127H88.038v1.891Z" transform="translate(-53.994 -55.105)" fill="#5c3876"/>
      <path id="Caminho_11544" data-name="Caminho 11544" d="M74.8,84.7V82.813H88.038V84.7Z" transform="translate(-53.994 -62.008)" fill="#5c3876"/>
      <path id="Caminho_11545" data-name="Caminho 11545" d="M65.2,57.14a10.4,10.4,0,0,1-19.656,4.728H20.757a2.84,2.84,0,0,1-2.837-2.837V57.911a2.832,2.832,0,0,1-1.891-2.662V26.879a2.84,2.84,0,0,1,2.837-2.837H52.909a2.84,2.84,0,0,1,2.837,2.837V46.786A10.412,10.412,0,0,1,65.2,57.14ZM17.92,31.608H53.855V26.879a.946.946,0,0,0-.946-.946H18.865a.946.946,0,0,0-.946.946ZM44.8,59.978a10.248,10.248,0,0,1-.356-1.891H19.811v.946a.946.946,0,0,0,.946.946Zm1.98-9.457H36.833V48.629H48.838a10.335,10.335,0,0,1,5.017-1.843V33.5H17.919v21.75a.946.946,0,0,0,.946.946h25.58a10.359,10.359,0,0,1,2.337-5.674Zm16.529,6.62A8.511,8.511,0,1,0,54.8,65.651,8.52,8.52,0,0,0,63.311,57.14Z" transform="translate(-16.028 -24.042)" fill="#5c3876"/>
      <path id="Caminho_11546" data-name="Caminho 11546" d="M123.04,106.241h3.011v1.891H123.04a2.83,2.83,0,1,1-3.609-3.609v-3.011h1.891v3.011A2.834,2.834,0,0,1,123.04,106.241Zm-1.717.945a.946.946,0,1,0-.946.946A.946.946,0,0,0,121.323,107.187Z" transform="translate(-81.605 -74.089)" fill="#ee864f"/>
    </g>
  </g>
</svg>
