<svg id="Icone_Noticias_e_Eventos" xmlns="http://www.w3.org/2000/svg" width="51.409" height="43.5" viewBox="0 0 51.409 43.5">
  <path id="Caminho_11597" data-name="Caminho 11597" d="M79.048,91.311H73.116a.989.989,0,0,1-.989-.989V78.459a.989.989,0,0,1,.989-.989h5.932a.989.989,0,0,1,.989.989V90.323A.989.989,0,0,1,79.048,91.311Z" transform="translate(-51.366 -58.686)" fill="#ee864f"/>
  <path id="Caminho_11598" data-name="Caminho 11598" d="M62.978,35.634c-.162-.015-.322,0-.483,0v-.028H51.62V29.68a2.97,2.97,0,0,0-2.966-2.966H18.994a2.97,2.97,0,0,0-2.966,2.966V65.271a4.949,4.949,0,0,0,4.943,4.943H54.6c.156,0,.313-.008.472-.023A5.074,5.074,0,0,0,59.529,65.1V62.3h5.932a1.979,1.979,0,0,0,1.977-1.977v-19.6a5.075,5.075,0,0,0-4.46-5.09ZM51.62,47.475H53.6v9.886H51.62Zm-33.614,17.8V29.68a.99.99,0,0,1,.989-.989H48.654a.99.99,0,0,1,.989.989V65.271a4.946,4.946,0,0,0,1,2.966H20.972a2.97,2.97,0,0,1-2.966-2.966ZM57.551,40.552V65.1a3.084,3.084,0,0,1-2.671,3.122,2.933,2.933,0,0,1-2.289-.757,2.974,2.974,0,0,1-.972-2.2V59.339H53.6a1.979,1.979,0,0,0,1.977-1.977V47.475A1.979,1.979,0,0,0,53.6,45.5H51.62V43.521h3.955V41.543H51.62V37.589h6.932a4.945,4.945,0,0,0-1,2.963Zm7.909,19.776H59.529V55.384h1.977V53.407H59.529V51.43h1.977V49.453H59.529V47.475h1.977V45.5H59.529V43.521h1.977V41.543H59.529v-.992a2.968,2.968,0,0,1,.97-2.192A2.936,2.936,0,0,1,62.79,37.6a3.082,3.082,0,0,1,2.669,3.121v19.6Z" transform="translate(-16.029 -26.714)" fill="#5c3876"/>
  <path id="Caminho_11599" data-name="Caminho 11599" d="M29.385,56.1H53.113v1.977H29.385Z" transform="translate(-24.442 -45.224)" fill="#5c3876"/>
  <path id="Caminho_11600" data-name="Caminho 11600" d="M29.385,66.784H53.113v1.977H29.385Z" transform="translate(-24.442 -51.955)" fill="#5c3876"/>
  <path id="Caminho_11601" data-name="Caminho 11601" d="M29.385,77.47H42.237v1.977H29.385Z" transform="translate(-24.442 -58.686)" fill="#5c3876"/>
  <path id="Caminho_11602" data-name="Caminho 11602" d="M29.385,88.155H42.237v1.977H29.385Z" transform="translate(-24.442 -65.417)" fill="#5c3876"/>
  <path id="Caminho_11603" data-name="Caminho 11603" d="M29.385,98.841H42.237v1.977H29.385Z" transform="translate(-24.442 -72.148)" fill="#5c3876"/>
  <path id="Caminho_11604" data-name="Caminho 11604" d="M29.385,109.527H42.237V111.5H29.385Z" transform="translate(-24.442 -78.879)" fill="#5c3876"/>
</svg>
