<svg id="Ilustracao_01" xmlns="http://www.w3.org/2000/svg" xmlns:xlink="http://www.w3.org/1999/xlink" width="303.927" height="287.241" viewBox="0 0 303.927 287.241">
  <defs>
    <clipPath id="clip-path">
      <rect id="Retângulo_21870" data-name="Retângulo 21870" width="303.927" height="287.241" fill="none"/>
    </clipPath>
    <clipPath id="clip-path-3">
      <rect id="Retângulo_21862" data-name="Retângulo 21862" width="9.5" height="6" transform="translate(100.105 167.517)" fill="none"/>
    </clipPath>
    <clipPath id="clip-path-4">
      <rect id="Retângulo_21863" data-name="Retângulo 21863" width="9.5" height="6" transform="translate(113.527 167.517)" fill="none"/>
    </clipPath>
    <clipPath id="clip-path-5">
      <rect id="Retângulo_21864" data-name="Retângulo 21864" width="9.5" height="6" transform="translate(126.17 167.517)" fill="none"/>
    </clipPath>
    <clipPath id="clip-path-6">
      <rect id="Retângulo_21865" data-name="Retângulo 21865" width="9.5" height="6" transform="translate(139.191 167.517)" fill="none"/>
    </clipPath>
    <clipPath id="clip-path-7">
      <rect id="Retângulo_21866" data-name="Retângulo 21866" width="9.5" height="6" transform="translate(203.436 167.517)" fill="none"/>
    </clipPath>
    <clipPath id="clip-path-8">
      <rect id="Retângulo_21867" data-name="Retângulo 21867" width="14.155" height="4" transform="translate(104.615 65.259)" fill="none"/>
    </clipPath>
    <clipPath id="clip-path-9">
      <rect id="Retângulo_21868" data-name="Retângulo 21868" width="7.82" height="4" transform="translate(121.086 222.734)" fill="none"/>
    </clipPath>
  </defs>
  <g id="Grupo_13486" data-name="Grupo 13486" clip-path="url(#clip-path)">
    <g id="Grupo_13485" data-name="Grupo 13485">
      <g id="Grupo_13484" data-name="Grupo 13484" clip-path="url(#clip-path)">
        <path id="Caminho_11422" data-name="Caminho 11422" d="M154.333,248.635c63.658,0,115.264-1.518,115.264-3.391s-51.606-3.391-115.264-3.391-115.264,1.518-115.264,3.391,51.606,3.391,115.264,3.391" fill="#e7e3e3"/>
        <path id="Caminho_11423" data-name="Caminho 11423" d="M170.086,243.872H91.826c-6.348,0-10.621-5.146-9.545-11.494L113.8,46.492A14.185,14.185,0,0,1,127.243,35H205.5c6.348,0,10.621,5.146,9.545,11.494L183.526,232.379a14.186,14.186,0,0,1-13.44,11.493" fill="#603f7d"/>
        <path id="Caminho_11424" data-name="Caminho 11424" d="M160.308,243.872H82.048c-6.348,0-10.621-5.146-9.545-11.494L104.022,46.492A14.185,14.185,0,0,1,117.465,35h78.26c6.348,0,10.621,5.146,9.545,11.494L173.751,232.379a14.185,14.185,0,0,1-13.443,11.493" fill="#c4e3f5"/>
        <path id="Caminho_11425" data-name="Caminho 11425" d="M160.756,237.658H83.706a4.906,4.906,0,0,1-4.956-5.968L110.036,47.181a7.366,7.366,0,0,1,6.98-5.968h77.053a4.906,4.906,0,0,1,4.956,5.968L167.739,231.69a7.365,7.365,0,0,1-6.983,5.968" fill="#fff"/>
        <path id="Caminho_11426" data-name="Caminho 11426" d="M168.051,103.38H94.376l7.679-42.421a5.966,5.966,0,0,1,5.594-4.683h69.564a3.746,3.746,0,0,1,3.772,4.683L173.645,98.7a5.965,5.965,0,0,1-5.594,4.683" fill="#f6f5f5"/>
        <path id="Caminho_11427" data-name="Caminho 11427" d="M162.113,97.921H51.813a3.749,3.749,0,0,1-3.772-4.683L55.381,55.5a5.965,5.965,0,0,1,5.594-4.683h110.3a3.749,3.749,0,0,1,3.772,4.683l-7.34,37.738a5.966,5.966,0,0,1-5.594,4.683" fill="#ef854f"/>
        <path id="Caminho_11428" data-name="Caminho 11428" d="M155.076,232.847l-68.408.325a3.746,3.746,0,0,1-3.772-4.683l7.34-37.738a5.966,5.966,0,0,1,5.594-4.683l68.408-.325a3.746,3.746,0,0,1,3.772,4.683l-7.34,37.738a5.965,5.965,0,0,1-5.594,4.683" fill="#ec834e"/>
        <path id="Caminho_11429" data-name="Caminho 11429" d="M94.192,221.42c1.946-15.225,16.412-27.567,32.31-27.567s27.207,12.342,25.261,27.567" fill="none" stroke="#e17741" stroke-linecap="round" stroke-width="4"/>
        <path id="Caminho_11430" data-name="Caminho 11430" d="M94.192,221.42c1.946-15.225,16.412-27.567,32.31-27.567a25.848,25.848,0,0,1,19.183,7.923" fill="none" stroke="#fff" stroke-linecap="round" stroke-width="4"/>
        <path id="Caminho_11431" data-name="Caminho 11431" d="M146.9,180.407H97.914a3.906,3.906,0,0,1-3.947-4.734l10.345-62.225a5.816,5.816,0,0,1,5.521-4.734h48.982a3.906,3.906,0,0,1,3.947,4.734l-10.345,62.225a5.816,5.816,0,0,1-5.521,4.734" fill="#603f7d"/>
        <path id="Caminho_11432" data-name="Caminho 11432" d="M113,141.62h-6.678a1.618,1.618,0,0,0-1.535,1.317l-3.627,21.818a1.086,1.086,0,0,0,.831,1.292,1.1,1.1,0,0,0,.269.024h6.678a1.619,1.619,0,0,0,1.535-1.316l3.627-21.818a1.087,1.087,0,0,0-1.1-1.317Z" fill="#fff"/>
        <path id="Caminho_11433" data-name="Caminho 11433" d="M125.182,149.085H118.5a1.618,1.618,0,0,0-1.536,1.316l-2.386,14.349a1.086,1.086,0,0,0,.831,1.292,1.1,1.1,0,0,0,.269.024h6.678a1.619,1.619,0,0,0,1.535-1.316l2.386-14.353a1.087,1.087,0,0,0-.831-1.292,1.105,1.105,0,0,0-.269-.024Z" fill="#fff"/>
        <path id="Caminho_11434" data-name="Caminho 11434" d="M141.312,128.082h-6.678A1.619,1.619,0,0,0,133.1,129.4l-5.878,35.356a1.087,1.087,0,0,0,.831,1.292,1.105,1.105,0,0,0,.269.024H135a1.619,1.619,0,0,0,1.536-1.316l5.878-35.356a1.086,1.086,0,0,0-.83-1.292,1.117,1.117,0,0,0-.27-.024Z" fill="#fff"/>
        <path id="Caminho_11435" data-name="Caminho 11435" d="M152.8,137.247h-6.678a1.618,1.618,0,0,0-1.532,1.315l-4.354,26.191a1.086,1.086,0,0,0,.831,1.292,1.1,1.1,0,0,0,.269.024h6.678a1.618,1.618,0,0,0,1.536-1.316l4.354-26.191a1.087,1.087,0,0,0-.831-1.292,1.1,1.1,0,0,0-.269-.024Z" fill="#fff"/>
        <line id="Linha_1" data-name="Linha 1" x2="18.082" transform="translate(109.2 116.37)" fill="none" stroke="#fff" stroke-linecap="round" stroke-width="4"/>
        <line id="Linha_2" data-name="Linha 2" x2="9.041" transform="translate(108.179 122.51)" fill="none" stroke="#fff" stroke-linecap="round" stroke-width="4"/>
        <g id="Grupo_13465" data-name="Grupo 13465" opacity="0.6" style="mix-blend-mode: normal;isolation: isolate">
          <g id="Grupo_13464" data-name="Grupo 13464">
            <g id="Grupo_13463" data-name="Grupo 13463" clip-path="url(#clip-path-3)">
              <line id="Linha_3" data-name="Linha 3" x2="3.5" transform="translate(103.105 170.517)" fill="none" stroke="#fff" stroke-linecap="round" stroke-width="6"/>
            </g>
          </g>
        </g>
        <g id="Grupo_13468" data-name="Grupo 13468" opacity="0.6" style="mix-blend-mode: normal;isolation: isolate">
          <g id="Grupo_13467" data-name="Grupo 13467">
            <g id="Grupo_13466" data-name="Grupo 13466" clip-path="url(#clip-path-4)">
              <line id="Linha_4" data-name="Linha 4" x2="3.5" transform="translate(116.527 170.517)" fill="none" stroke="#fff" stroke-linecap="round" stroke-width="6"/>
            </g>
          </g>
        </g>
        <g id="Grupo_13471" data-name="Grupo 13471" opacity="0.6" style="mix-blend-mode: normal;isolation: isolate">
          <g id="Grupo_13470" data-name="Grupo 13470">
            <g id="Grupo_13469" data-name="Grupo 13469" clip-path="url(#clip-path-5)">
              <line id="Linha_5" data-name="Linha 5" x2="3.5" transform="translate(129.17 170.517)" fill="none" stroke="#fff" stroke-linecap="round" stroke-width="6"/>
            </g>
          </g>
        </g>
        <g id="Grupo_13474" data-name="Grupo 13474" opacity="0.6" style="mix-blend-mode: normal;isolation: isolate">
          <g id="Grupo_13473" data-name="Grupo 13473">
            <g id="Grupo_13472" data-name="Grupo 13472" clip-path="url(#clip-path-6)">
              <line id="Linha_6" data-name="Linha 6" x2="3.5" transform="translate(142.191 170.517)" fill="none" stroke="#fff" stroke-linecap="round" stroke-width="6"/>
            </g>
          </g>
        </g>
        <g id="Grupo_13477" data-name="Grupo 13477" opacity="0.6" style="mix-blend-mode: normal;isolation: isolate">
          <g id="Grupo_13476" data-name="Grupo 13476">
            <g id="Grupo_13475" data-name="Grupo 13475" clip-path="url(#clip-path-7)">
              <line id="Linha_7" data-name="Linha 7" x2="3.5" transform="translate(206.436 170.517)" fill="none" stroke="#fff" stroke-linecap="round" stroke-width="6"/>
            </g>
          </g>
        </g>
        <path id="Caminho_11436" data-name="Caminho 11436" d="M3.234,250.34l13.907,29.1-1.725.825a2.433,2.433,0,0,1-3.244-1.146L.361,254.412a2.433,2.433,0,0,1,1.146-3.244l1.725-.825Z" fill="#603f7d"/>
        <path id="Caminho_11437" data-name="Caminho 11437" d="M18.376,243.768l-9.6,3.968,5.385,7.615,8.51-2.6Z" fill="#fabea4"/>
        <path id="Caminho_11438" data-name="Caminho 11438" d="M12.245,248.04s3.748,5.788,4.313,9.023,2.5,19.594,1.98,21.069a3.093,3.093,0,0,1-2.6,1.611.918.918,0,0,1-.927-.52L2.385,252.811a1.865,1.865,0,0,1,.845-2.472c1.747-.878,4.419-2.193,5.544-2.6,1.741-.636,2.89-.632,3.471.3" fill="#ef854f"/>
        <path id="Caminho_11439" data-name="Caminho 11439" d="M80.2,261.887,67.153,285.966a2.432,2.432,0,0,1-3.3.981h0l-1.681-.911,15.367-28.357,1.681.911a2.432,2.432,0,0,1,.981,3.3v0Z" fill="#603f7d"/>
        <path id="Caminho_11440" data-name="Caminho 11440" d="M62.744,250.352,72.13,254.8l-5.763,7.333L58,259.11Z" fill="#fabea4"/>
        <path id="Caminho_11441" data-name="Caminho 11441" d="M68.651,254.928s-4.035,5.591-4.763,8.793-3.488,19.443-3.043,20.943a3.1,3.1,0,0,0,2.513,1.74.917.917,0,0,0,.952-.473L78.255,260.19a1.865,1.865,0,0,0-.719-2.511c-1.7-.965-4.3-2.413-5.405-2.879-1.706-.72-2.852-.774-3.48.128" fill="#ef854f"/>
        <path id="Caminho_11442" data-name="Caminho 11442" d="M91.022,216.052s3.593,17.844.8,21.341L20.766,255.588l-6.059-11.35L56.2,225.409l8.31-11.39Z" fill="#c4e3f5"/>
        <path id="Caminho_11443" data-name="Caminho 11443" d="M73.041,228.784l-15.678,5.244L50.047,237.1l9.513,8.559-8.5,1.921-23.2-18.791Z" fill="#a3c5d5"/>
        <path id="Caminho_11444" data-name="Caminho 11444" d="M19.163,242.748l.482,1.676,11.016,8.6L41.009,250.5s-19.962-9.5-21.846-7.751" fill="#a3c5d5"/>
        <path id="Caminho_11445" data-name="Caminho 11445" d="M39.107,215.011s-20.092-1.09-30.051-.214c-6.413.564-8.724,16.974-3.607,19.959l54.922,28.121,6.472-11.7L31.413,227.2l25.347-3.565Z" fill="#c4e3f5"/>
        <path id="Caminho_11446" data-name="Caminho 11446" d="M10.744,236.152A10.744,10.744,0,1,0,0,225.408H0a10.745,10.745,0,0,0,10.744,10.743" fill="#c4e3f5"/>
        <path id="Caminho_11447" data-name="Caminho 11447" d="M90.037,237.539a10.744,10.744,0,1,0-10.744-10.744,10.744,10.744,0,0,0,10.744,10.744" fill="#c4e3f5"/>
        <path id="Caminho_11448" data-name="Caminho 11448" d="M60.61,176.1c-1.132-5.588,1.53-5.444,2.416-6.332,0,0,3.323-2.74,5.855-.186,2.68,2.7,18.045,23.693,18.045,23.693l-9.614,8.842L75.5,199.956l-4.681-5.583-5.007-5.967-.622-.679-6.754-7.65A3.461,3.461,0,0,0,60.61,176.1" fill="#ef854f"/>
        <path id="Caminho_11449" data-name="Caminho 11449" d="M65.941,181.707a7.388,7.388,0,1,0-9.352-4.659A7.388,7.388,0,0,0,65.941,181.707Z" fill="#ef854f"/>
        <path id="Caminho_11450" data-name="Caminho 11450" d="M65.285,187.7c-.194-1.168-.582-3.5-1-5.633l-2.218-10.3s5.957,8.8,8.7,14.938c2.032,4.6,4.39,9.28,4.78,13.242l-4.681-5.583-5.007-5.967Z" fill="#dc6238"/>
        <path id="Caminho_11451" data-name="Caminho 11451" d="M96.529,169.639c2.284-4.167,1.187-4.874,2.158-7.245.957-2.313-.742-8.048.885-7.266a4.682,4.682,0,0,1,2.131,2.86c1.113-1.969,2.138-5.592,4.8-6.006s2.9.424,4.411,1.664c4.018,3.343-1.106,8.367-1.961,10.28-.55,1.2-4.593,4.855-5.041,5.654l-2.035,2.952Z" fill="#fabea4"/>
        <path id="Caminho_11452" data-name="Caminho 11452" d="M104.379,158.245l3.247-5.994Z" fill="#de4b30"/>
        <line id="Linha_8" data-name="Linha 8" y1="5.994" x2="3.247" transform="translate(104.379 152.251)" fill="none" stroke="#de4b30" stroke-linecap="round" stroke-width="0.947"/>
        <path id="Caminho_11453" data-name="Caminho 11453" d="M106.506,159.217l3.539-5.583Z" fill="#de4b30"/>
        <line id="Linha_9" data-name="Linha 9" y1="5.583" x2="3.539" transform="translate(106.506 153.634)" fill="none" stroke="#de4b30" stroke-linecap="round" stroke-width="0.947"/>
        <path id="Caminho_11454" data-name="Caminho 11454" d="M109.033,160.29l2.022-3.381Z" fill="#de4b30"/>
        <line id="Linha_10" data-name="Linha 10" y1="3.381" x2="2.022" transform="translate(109.033 156.909)" fill="none" stroke="#de4b30" stroke-linecap="round" stroke-width="0.947"/>
        <path id="Caminho_11455" data-name="Caminho 11455" d="M103.577,163.523a12.832,12.832,0,0,0-1.263-4.587Z" fill="#de4b30"/>
        <path id="Caminho_11456" data-name="Caminho 11456" d="M103.577,163.523a12.832,12.832,0,0,0-1.263-4.587" fill="none" stroke="#de4b30" stroke-linecap="round" stroke-width="0.947"/>
        <path id="Caminho_11457" data-name="Caminho 11457" d="M77.233,193.1,96.78,167.072a.8.8,0,0,1,1.056-.164l5.119,3.385a1.185,1.185,0,0,1,.377,1.545L87.611,200.83Z" fill="#ef854f"/>
        <path id="Caminho_11458" data-name="Caminho 11458" d="M81.982,204.1a6.547,6.547,0,1,0-6.547-6.547,6.547,6.547,0,0,0,6.547,6.547" fill="#ef854f"/>
        <path id="Caminho_11459" data-name="Caminho 11459" d="M52.951,164.009s10.971,2.9,12.854,3.656,2.009,3.766,2.134,5.9-.3,50.068-.3,50.068L43.36,222.7,25.2,212.071s.79-38.033,1.041-39.791-1.722-3.271.417-4.156l13.748-3.632Z" fill="#ef854f"/>
        <path id="Caminho_11460" data-name="Caminho 11460" d="M34.681,181.084l.2,35.415L24.443,204.865l5.05-24.883Z" fill="#dc6238"/>
        <path id="Caminho_11461" data-name="Caminho 11461" d="M38.621,165.034s-1.553,3.123,0,5.278,7.771,4.248,12.018,4.186,6.5-4.111,4.573-9.781l-7.035-1.976-7.765,1.752Z" fill="#dc6238"/>
        <path id="Caminho_11462" data-name="Caminho 11462" d="M56.205,138.115s3.059,6.6-.2,7.964-2.886-7.644.2-7.964" fill="#813f2f"/>
        <path id="Caminho_11463" data-name="Caminho 11463" d="M52.755,159.236l.885,9.978s.848,1.338-2.456,2.04c-2.125.452-7.849-1.8-8.959-2.48a2.3,2.3,0,0,1-1.118-2.707c.337-1.221,1.736-11.394,1.736-11.394Z" fill="#fabea4"/>
        <path id="Caminho_11464" data-name="Caminho 11464" d="M52.927,161.16l-5.272-2.6,5.877,9.429Z" fill="#ee7e69"/>
        <path id="Caminho_11465" data-name="Caminho 11465" d="M54.449,140.025a99.574,99.574,0,0,1,4.216,13.2c1.132,5.492-.674,6.863-3.058,7.671-1.88.637-4.882,1.145-6.925.506-3.724-1.166-7.368-4.531-8.239-5.222-1.349-1.07-2.681-5.924-.7-8.67s9.765-11.375,14.706-7.485" fill="#fabea4"/>
        <path id="Caminho_11466" data-name="Caminho 11466" d="M50.466,150.735c.411-.162.545-.8.3-1.43s-.781-1.006-1.192-.844-.545.8-.3,1.43.78,1,1.192.844" fill="#0a0b0b"/>
        <path id="Caminho_11467" data-name="Caminho 11467" d="M56.12,148.468c.411-.162.545-.8.3-1.43s-.781-1.006-1.192-.844-.545.8-.3,1.43.781,1.006,1.192.844" fill="#0a0b0b"/>
        <path id="Caminho_11468" data-name="Caminho 11468" d="M54.047,149.54s-.5,1.521.554,1.372c1-.176,1.685.32.808,1.339" fill="#de4b30"/>
        <path id="Caminho_11469" data-name="Caminho 11469" d="M54.047,149.54s-.5,1.521.554,1.372c1-.176,1.685.32.808,1.339" fill="none" stroke="#de4b30" stroke-linecap="round" stroke-width="0.947"/>
        <path id="Caminho_11470" data-name="Caminho 11470" d="M55.457,153.6h.01a.086.086,0,0,1,.045,0,.078.078,0,0,1,.04.021.085.085,0,0,1,.024.084v.026a2.213,2.213,0,0,1-.431,1.283.821.821,0,0,1-.714.265,2.34,2.34,0,0,1-.9-.3,5.453,5.453,0,0,1-.789-.532.114.114,0,0,1-.031-.05.109.109,0,0,1,0-.062.112.112,0,0,1,.084-.084c.814-.21,2.046-.5,2.662-.646" fill="#de4b30"/>
        <path id="Caminho_11471" data-name="Caminho 11471" d="M55.457,153.6h.01a.086.086,0,0,1,.045,0,.078.078,0,0,1,.04.021.085.085,0,0,1,.024.084v.026a2.213,2.213,0,0,1-.431,1.283.821.821,0,0,1-.714.265,2.34,2.34,0,0,1-.9-.3,5.453,5.453,0,0,1-.789-.532.114.114,0,0,1-.031-.05.109.109,0,0,1,0-.062.112.112,0,0,1,.084-.084C53.609,154.032,54.841,153.741,55.457,153.6Z" fill="none" stroke="#de4b30" stroke-width="1"/>
        <path id="Caminho_11472" data-name="Caminho 11472" d="M46.883,148.081l.077.109a.738.738,0,0,0,1.007.264l2.854-1.758a.648.648,0,0,0,.273-.833.7.7,0,0,0-.907-.4.808.808,0,0,0-.084.04l-2.931,1.65a.674.674,0,0,0-.368.666.673.673,0,0,0,.079.259" fill="#0a0b0b"/>
        <path id="Caminho_11473" data-name="Caminho 11473" d="M56.741,143.567l-3.349.31a.7.7,0,0,0-.613.857.648.648,0,0,0,.7.53l3.347-.177a.738.738,0,0,0,.678-.79v-.133a.672.672,0,0,0-.736-.6l-.028,0Z" fill="#0a0b0b"/>
        <path id="Caminho_11474" data-name="Caminho 11474" d="M50.609,141.574a9.2,9.2,0,0,1-4.7,4.124c-3.033.943-1.375,5.73-1.375,5.73s-2.08-2.069-4.47-.9-.576,5.735,2.727,5.793l-.9,5.142a17.142,17.142,0,0,0-3.432-3.2c-1.759-1.115-8.078-5.441-5.287-11.139,0,0-2.184-8,3.806-12.149s11.175-2.583,11.175-2.583a4.754,4.754,0,0,1,4.738-1.8c3.31.463,4.073,6.432,2.977,8.59a4.156,4.156,0,0,1-5.259,2.392" fill="#813f2f"/>
        <path id="Caminho_11475" data-name="Caminho 11475" d="M25.652,173.464c4.213-3.842,5.457-1.485,6.674-1.181,0,0,4.058,1.443,3.168,4.928-.941,3.688-11.055,27.654-11.055,27.654L11.914,201.16l.922-2.658,2.385-6.884,2.547-7.361.263-.883,3.093-9.725a3.461,3.461,0,0,0,4.528-.185" fill="#ef854f"/>
        <path id="Caminho_11476" data-name="Caminho 11476" d="M33.995,180.113a7.388,7.388,0,1,0-10.417.808,7.388,7.388,0,0,0,10.417-.808" fill="#ef854f"/>
        <path id="Caminho_11477" data-name="Caminho 11477" d="M23.2,198.979l23.253,22.786a.8.8,0,0,1,.025,1.068l-4.026,4.632a1.184,1.184,0,0,1-1.581.172L14.182,208.259Z" fill="#ef854f"/>
        <path id="Caminho_11478" data-name="Caminho 11478" d="M18.167,209.648A6.547,6.547,0,1,0,11.62,203.1h0a6.548,6.548,0,0,0,6.547,6.546" fill="#ef854f"/>
        <path id="Caminho_11479" data-name="Caminho 11479" d="M56,194.59l-12.62,34.963H18a4.025,4.025,0,0,1,4.025-4.025H40.385l10.9-30.938Z" fill="#fff"/>
        <path id="Caminho_11480" data-name="Caminho 11480" d="M56,194.59h35.33L76.875,229.553h-33.5Z" fill="#f1f1f1"/>
        <path id="Caminho_11481" data-name="Caminho 11481" d="M103.535,80.564s5.673-1.195,7.472,1.564,3.6,7.941,7.677,7.269,7.2-14.226,11.275-14.106,2.279,9,6.717,9.116,3.359-4.918,6.957-4.918,2.4,10.8,7.077,10.915,4.2-13.914,11.275-13.674" fill="none" stroke="#fff" stroke-linecap="round" stroke-width="4"/>
        <path id="Caminho_11482" data-name="Caminho 11482" d="M86.976,78.7c2.889-7.1.107-14.934-6.212-17.507S66.979,62.29,64.09,69.386,63.982,84.32,70.3,86.893,84.087,85.8,86.976,78.7Z" fill="none" stroke="#e17741" stroke-linecap="round" stroke-width="4"/>
        <path id="Caminho_11483" data-name="Caminho 11483" d="M81.417,85.569A11.927,11.927,0,0,1,70.3,86.892c-6.32-2.573-9.1-10.411-6.212-17.507s10.354-10.763,16.674-8.19" fill="none" stroke="#fff" stroke-linecap="round" stroke-width="4"/>
        <line id="Linha_11" data-name="Linha 11" x2="24.961" transform="translate(107.798 60.373)" fill="none" stroke="#fff" stroke-linecap="round" stroke-width="4"/>
        <g id="Grupo_13480" data-name="Grupo 13480" opacity="0.6" style="mix-blend-mode: normal;isolation: isolate">
          <g id="Grupo_13479" data-name="Grupo 13479">
            <g id="Grupo_13478" data-name="Grupo 13478" clip-path="url(#clip-path-8)">
              <line id="Linha_12" data-name="Linha 12" x2="10.155" transform="translate(106.615 67.259)" fill="none" stroke="#fff" stroke-linecap="round" stroke-width="4"/>
            </g>
          </g>
        </g>
        <path id="Caminho_11484" data-name="Caminho 11484" d="M296.774,231.506c-.072.008-.1.048-.065.08-.032.04-.032.04-.023.112a8.73,8.73,0,0,0-.322,1.517l6.158,4.949.682-.766s-2.273-2.812-3.124-3.629c-.367-.36-.7-.689-1.023-1.018-.286-.3-.542-.633-.789-.9-.344-.473-1.341-.291-1.351-.363-.039-.03-.143.018-.143.018" fill="#462f6b"/>
        <path id="Caminho_11485" data-name="Caminho 11485" d="M250.211,188.5l5.947,5.763L289.4,226.37l.607.553.263.408.039.032,4.709,7.135.526.816.175.272,3.186,4.861-2.624,1.306-.76.374-1.072.517-1.692.876-.029.04-1.8.924-.088-.136-4.092-7.822a11.78,11.78,0,0,0-3.261-3.869l-36.154-27.676-6.872-5.261Z" fill="#fabea4"/>
        <path id="Caminho_11486" data-name="Caminho 11486" d="M294.57,227.631a11.073,11.073,0,0,0-5.132-1.3c1.052.923,1.533,2.566,2.231,3.763,1.432,2.465,5.106,7.045,3.228,10.938a7.9,7.9,0,0,1-4.047,3.317c-.494,2.246-2.939,11.39,1.939,6.09,2.725-2.96,5.427-6.122,6.785-9.261.559-1.287-.62-2.57-1.2-3.657-.74-1.644-1.845-3.821-1.7-5.641l.029-.04c.081-.126,6.4,5.529,6.505,5.556.218-.352.724-1.062.724-1.062s-9.055-8.591-9.357-8.7" fill="#dc6238"/>
        <path id="Caminho_11487" data-name="Caminho 11487" d="M226.539,257.541c-.057-.045-.108-.039-.1.012-.051.006-.051.006-.1.063a8.762,8.762,0,0,0-1.289.86l.941,7.845,1.023-.071s.342-3.6.3-4.781c-.01-.514-.014-.978-.019-1.442,0-.413.055-.832.063-1.194.085-.577-.756-1.147-.712-1.2,0-.053-.107-.092-.107-.092" fill="#462f6b"/>
        <path id="Caminho_11488" data-name="Caminho 11488" d="M223.328,194.241l.219,8.276,1.314,46.2.047.82-.1.476.006.051-1.623,8.394-.195.952-.065.317-1.12,5.7-2.79-.9-.8-.264-1.128-.38-1.82-.555-.051.006-1.928-.594.033-.159,2.544-8.453a11.784,11.784,0,0,0,.374-5.047l-6.489-45.065-1.234-8.567Z" fill="#fabea4"/>
        <path id="Caminho_11489" data-name="Caminho 11489" d="M227.671,253.228a11.073,11.073,0,0,0-2.759-4.516c.108,1.4-.7,2.907-1.037,4.25-.7,2.764-1.276,8.608-5.34,10.078a7.907,7.907,0,0,1-5.212-.458c-1.924,1.26-10.068,6.085-2.874,5.708,4.017-.211,8.161-.581,11.326-1.874,1.3-.53,1.354-2.272,1.7-3.453.621-1.693,1.352-4.023,2.725-5.226l.051-.006c.145-.034.706,8.426.764,8.52.4-.1,1.259-.254,1.259-.254s-.465-12.476-.6-12.769" fill="#dc6238"/>
        <path id="Caminho_11490" data-name="Caminho 11490" d="M235.063,157.011l-2.448-24.016-18.245-.849-11.432,48.276a10.266,10.266,0,0,0-.49,3.133,10.4,10.4,0,0,0,.148,1.676v.07l9.557,58.77,15.217-1.647L222.956,186.3Z" fill="#603f7d"/>
        <path id="Caminho_11491" data-name="Caminho 11491" d="M226.812,176.969l-2.9-24.522-.959,33.853Z" fill="#0e1626"/>
        <path id="Caminho_11492" data-name="Caminho 11492" d="M214.37,132.146l31.914.328,3.1,6.418-35.555-4.469Z" fill="#0e1626"/>
        <path id="Caminho_11493" data-name="Caminho 11493" d="M247.583,181.225s4.173-20.748,4.063-32.319c-.071-7.71-5.55-16.916-5.55-16.916h-15.7l-6.479,20.452,4.2,34.269c.005.06.014.118.021.177l.019.154.007.014A10.236,10.236,0,0,0,231.1,193l0,.006c13.155,12.251,44.246,38.051,44.246,38.051l8.675-13.006Z" fill="#603f7d"/>
        <path id="Caminho_11494" data-name="Caminho 11494" d="M210.643,63.943a30.022,30.022,0,0,1-.831,9.357c-1.259,4.586-10.79,14.3-2.338,22.21S226.267,82.2,226.267,82.2l-3.237-9.8L211.843,60.754Z" fill="#142239"/>
        <path id="Caminho_11495" data-name="Caminho 11495" d="M236.432,65.056a23.48,23.48,0,0,0,8.316,5.856c5.671,2.585,11.776,6.834,10.52,16.1s-18.024,2.068-22.95-3.237-4.247-14.777-4.247-14.777Z" fill="#142239"/>
        <path id="Caminho_11496" data-name="Caminho 11496" d="M223.467,82.41s-6.434,2.546-7.416,3.331-1.915,7.2-3.585,10.244-4.113,8.665-.545,13.828,3.189,9.262,3.189,9.262l-.759,12.95,30.749.567a1.915,1.915,0,0,0,1.968-2.085c-.341-3.776-1.9-9.078-2.027-15.09-.166-8.148-.289-35.373-.289-35.373l-13.4-.421a47.862,47.862,0,0,0-7.885,2.787" fill="#ef854f"/>
        <path id="Caminho_11497" data-name="Caminho 11497" d="M239.478,91.172s-4.481,4.086-4.745,7.117-.873,11.484-6.632,12.327c-7.059,1.033-8.907,2.04-5.634,2.83s10.7-.49,10.7,2.9c0,2.413,2.885,4.218,4.335,2.9s13-21.352,1.976-28.074" fill="#dc6238"/>
        <path id="Caminho_11498" data-name="Caminho 11498" d="M185.432,94.6,183,91.487a5.531,5.531,0,0,0-1.972-1.734,9.654,9.654,0,0,1-3.665-2.831c-1.056-1.774-5.215-6.565-1.607-10.29,1.336-1.374,1-1.049,3.672-1.008s3.08,2.812,4.414,4.625A4.829,4.829,0,0,1,185.62,77.2c1.475-.956.5,4.882,1.631,7.094s.218,3.049,2.906,6.936Z" fill="#fabea4"/>
        <path id="Caminho_11499" data-name="Caminho 11499" d="M179.025,75.944l2.17,4.923Z" fill="#de4b30"/>
        <line id="Linha_13" data-name="Linha 13" x2="2.17" y2="4.923" transform="translate(179.025 75.944)" fill="none" stroke="#de4b30" stroke-linecap="round" stroke-width="0.947"/>
        <path id="Caminho_11500" data-name="Caminho 11500" d="M176.2,76.819l3.006,5.242Z" fill="#de4b30"/>
        <line id="Linha_14" data-name="Linha 14" x2="3.006" y2="5.242" transform="translate(176.195 76.819)" fill="none" stroke="#de4b30" stroke-linecap="round" stroke-width="0.947"/>
        <path id="Caminho_11501" data-name="Caminho 11501" d="M174.42,80.265l2.37,3.129Z" fill="#de4b30"/>
        <line id="Linha_15" data-name="Linha 15" x2="2.37" y2="3.129" transform="translate(174.42 80.265)" fill="none" stroke="#de4b30" stroke-linecap="round" stroke-width="0.947"/>
        <path id="Caminho_11502" data-name="Caminho 11502" d="M183.287,81.365a14.07,14.07,0,0,0-.759,4.7Z" fill="#de4b30"/>
        <path id="Caminho_11503" data-name="Caminho 11503" d="M183.287,81.365a14.07,14.07,0,0,0-.759,4.7" fill="none" stroke="#de4b30" stroke-linecap="round" stroke-width="0.947"/>
        <path id="Caminho_11504" data-name="Caminho 11504" d="M217.611,84.894c-2.494.865-5.971,2.618-6.912,4.574L202.388,108.4,188.543,87.368,183.3,92.89l12.93,26.742c2.363,5.881,8.365,8.09,12.712,1.752l6.946-10.91Z" fill="#ef854f"/>
        <path id="Caminho_11505" data-name="Caminho 11505" d="M214.068,101.2s-.75-1.293-.75,5.456l-4.376,14.734,6.946-10.91c5.573-7.493,1.17-9.494-1.82-9.28" fill="#ee7e69"/>
        <path id="Caminho_11506" data-name="Caminho 11506" d="M229.31,92.261l-22.964,9.147a1.391,1.391,0,0,0-.777,1.806l11.494,28.856a1.391,1.391,0,0,0,1.806.778l22.964-9.147a1.391,1.391,0,0,0,.777-1.806L231.116,93.039a1.39,1.39,0,0,0-1.8-.778h0" fill="#166bb4"/>
        <line id="Linha_16" data-name="Linha 16" y1="3.772" x2="9.47" transform="translate(209.849 100.351)" fill="none" stroke="#fff" stroke-linecap="round" stroke-width="4"/>
        <line id="Linha_17" data-name="Linha 17" y1="1.719" x2="4.316" transform="translate(211.279 105.793)" fill="none" stroke="#fff" stroke-linecap="round" stroke-width="4"/>
        <path id="Caminho_11507" data-name="Caminho 11507" d="M222.652,75.626l.362,10.123s-.5,2.217,1.78,1.971a12.718,12.718,0,0,0,7.059-4c1.722-1.967,1.6-2.125.866-3.417s-4.2-11.132-4.2-11.132Z" fill="#fabea4"/>
        <path id="Caminho_11508" data-name="Caminho 11508" d="M222.7,76.475l4.2-2.671s-1.859,8.157-3.885,11.945Z" fill="#f6a88d"/>
        <path id="Caminho_11509" data-name="Caminho 11509" d="M211.394,60.477s-.067,10.074,4.28,15.144c2.835,3.306,5.816,2.868,10.79-2.576,4.56-4.991,5.2-7.592,5.2-7.592l-3.149-9.884s-16.61-4.26-17.121,4.908" fill="#fabea4"/>
        <path id="Caminho_11510" data-name="Caminho 11510" d="M215.719,58.14s1.821,4.421,5.2,5.657a7.038,7.038,0,0,1,4.266,3.533s.649-3.78,3.306-3.643,2.117,4.829.468,6.386c0,0,1.984,3.68,3.666,6.4l7.368-7.313s-3.8-4.389-4.631-7.92-3.536-12.985-13.835-12.359c-12.092.735-11.4,10.561-10.884,16.019,0,0,3.792-1.452,5.076-6.76" fill="#142239"/>
        <path id="Caminho_11511" data-name="Caminho 11511" d="M217.028,72.506l2.939-1.442a.358.358,0,0,0,.008.053,1.979,1.979,0,0,1-.013.6,1.822,1.822,0,0,1-1.2,1.368,1.483,1.483,0,0,1-1.329-.226,2.454,2.454,0,0,1-.394-.34Z" fill="#de4b30"/>
        <path id="Caminho_11512" data-name="Caminho 11512" d="M217.028,72.506l2.939-1.442a.358.358,0,0,0,.008.053,1.979,1.979,0,0,1-.013.6,1.822,1.822,0,0,1-1.2,1.368,1.483,1.483,0,0,1-1.329-.226,2.454,2.454,0,0,1-.394-.34Z" fill="none" stroke="#de4b30" stroke-width="1"/>
        <path id="Caminho_11513" data-name="Caminho 11513" d="M213.826,68.417c.371-.092.563-.61.428-1.157s-.546-.917-.918-.825-.563.61-.428,1.158.546.914.918.824" fill="#0a0b0b"/>
        <path id="Caminho_11514" data-name="Caminho 11514" d="M219.334,67.139c.372-.092.563-.61.428-1.158s-.546-.917-.917-.825-.563.61-.428,1.158.545.917.917.825" fill="#0a0b0b"/>
        <path id="Caminho_11515" data-name="Caminho 11515" d="M211.688,65.463l2.8-.643a.2.2,0,0,0,.138-.229.652.652,0,0,0-.841-.379l-.027.011-2.2.931c-.178.045-.1.365.13.309" fill="#0a0b0b"/>
        <path id="Caminho_11516" data-name="Caminho 11516" d="M221.1,62.954,217.449,64.1a.833.833,0,0,1,.645-.987.705.705,0,0,1,.078-.013l2.917-.38c.092-.027.149.2.011.236" fill="#0a0b0b"/>
        <path id="Caminho_11517" data-name="Caminho 11517" d="M215.792,66.584l-.4,2.956,1.044.5" fill="#de4b30"/>
        <path id="Caminho_11518" data-name="Caminho 11518" d="M215.792,66.584l-.4,2.956,1.044.5" fill="none" stroke="#de4b30" stroke-linecap="round" stroke-width="0.947"/>
        <path id="Caminho_11519" data-name="Caminho 11519" d="M218.571,118.411l-9.054,2.6-1.107,5.579,2.06,6.175a3.328,3.328,0,0,0,1.146-3.247c-.3-2.273,7.349-2.208,8.751-5.066" fill="#fabea4"/>
        <path id="Caminho_11520" data-name="Caminho 11520" d="M239.253,87.659s-.059-7.669,6.083-7.67c4.121,0,6.093,1.931,6.619,7.961.367,4.215.633,27.344.633,27.344s1.036,10.556-7.918,10.753l-25.854-.774-.584-7.223,22.537-2.246Z" fill="#ef854f"/>
        <path id="Caminho_11521" data-name="Caminho 11521" d="M220.557,86.7a2.678,2.678,0,0,0,1.953-2.954c-.368-2.254-.383-4.21.357-3.938,0,0,.652,1.119,4.71-.125,4.031-1.2,3.778-2.58,3.778-2.58s.57-.505,1,.792,1.505,4.889,3.788,4.631l.617,6.7-12.141,4c-.029.036-5.641-5.4-4.062-6.526" fill="#ef854f"/>
        <line id="Linha_18" data-name="Linha 18" x2="11.845" transform="translate(119.075 221.42)" fill="none" stroke="#fff" stroke-linecap="round" stroke-width="4"/>
        <g id="Grupo_13483" data-name="Grupo 13483" opacity="0.5" style="mix-blend-mode: normal;isolation: isolate">
          <g id="Grupo_13482" data-name="Grupo 13482">
            <g id="Grupo_13481" data-name="Grupo 13481" clip-path="url(#clip-path-9)">
              <line id="Linha_19" data-name="Linha 19" x2="3.82" transform="translate(123.086 224.734)" fill="none" stroke="#fff" stroke-linecap="round" stroke-width="4"/>
            </g>
          </g>
        </g>
        <path id="Caminho_11522" data-name="Caminho 11522" d="M116.442,213.691,122.3,209.6l4.129,2.75,5.5-3.98" fill="none" stroke="#fff" stroke-linecap="round" stroke-linejoin="round" stroke-width="4"/>
        <path id="Caminho_11523" data-name="Caminho 11523" d="M127.7,206.637h5.846v5.784" fill="none" stroke="#fff" stroke-linecap="round" stroke-linejoin="round" stroke-width="4"/>
        <path id="Caminho_11524" data-name="Caminho 11524" d="M196.917,27.035H174.262a1.779,1.779,0,0,1-1.789-2.222l3.482-17.9a2.829,2.829,0,0,1,2.653-2.222h22.654a1.779,1.779,0,0,1,1.79,2.222l-3.482,17.9A2.829,2.829,0,0,1,196.917,27.035Z" fill="#462f6b"/>
        <path id="Caminho_11525" data-name="Caminho 11525" d="M181.376,9.531h15.085a.7.7,0,0,1,.732.666.709.709,0,0,1-.018.2l-.206,1.129a1.086,1.086,0,0,1-.6.759L188.1,16.258a.876.876,0,0,1-.829,0l-6.8-4.1a.7.7,0,0,1-.314-.754l.185-1.011a1.086,1.086,0,0,1,1.028-.86Z" fill="#fff"/>
        <path id="Caminho_11526" data-name="Caminho 11526" d="M180.628,13.643l6.5,4.08a.591.591,0,0,0,.579,0l8-4.077c.43-.219.863.059.782.5l-1.189,6.5a1.951,1.951,0,0,1-1.847,1.546h-13.7a1.26,1.26,0,0,1-1.282-1.546l1.188-6.5a.694.694,0,0,1,.969-.5" fill="#fff"/>
        <path id="Caminho_11527" data-name="Caminho 11527" d="M202.045,9.378a4.689,4.689,0,1,0-4.689-4.689,4.689,4.689,0,0,0,4.689,4.689" fill="#eb6e3b"/>
        <path id="Caminho_11528" data-name="Caminho 11528" d="M202.373,108.4l3.885,5.776-2.073-9.868Z" fill="#dc6238"/>
      </g>
    </g>
  </g>
</svg>
