<svg xmlns="http://www.w3.org/2000/svg" xmlns:xlink="http://www.w3.org/1999/xlink" width="105" height="182" viewBox="0 0 105 182">
  <defs>
    <clipPath id="clip-path">
      <rect id="Retângulo_21903" data-name="Retângulo 21903" width="105" height="182" transform="translate(0 11)" fill="#fff"/>
    </clipPath>
  </defs>
  <g id="Ilustracacao_Topo" transform="translate(0 -11)" clip-path="url(#clip-path)">
    <g id="Scenes05" transform="matrix(0.951, 0.309, -0.309, 0.951, -283.81, -170.23)">
      <g id="Grupo_13" data-name="Grupo 13" transform="translate(245 93)">
        <path id="Caminho_375" data-name="Caminho 375" d="M405.567,287.308a82.5,82.5,0,1,0-82.5-82.5A82.5,82.5,0,0,0,405.567,287.308Z" transform="translate(-305.108 -115.563)" fill="none" stroke="#d1e8f7" stroke-width="1.916"/>
        <path id="Caminho_376" data-name="Caminho 376" d="M380.222,263.549a2.906,2.906,0,1,0-2.906-2.906A2.906,2.906,0,0,0,380.222,263.549Z" transform="translate(-346.88 -219.843)" fill="#febb94"/>
        <path id="Caminho_377" data-name="Caminho 377" d="M1030.655,487.8a2.906,2.906,0,1,0-2.905-2.906A2.907,2.907,0,0,0,1030.655,487.8Z" transform="translate(-847.695 -392.511)" fill="#5661ae"/>
        <path id="Caminho_378" data-name="Caminho 378" d="M686.709,832.8A2.906,2.906,0,1,0,683.8,829.9,2.906,2.906,0,0,0,686.709,832.8Z" transform="translate(-582.866 -658.152)" fill="#1c85e8"/>
        <path id="Caminho_379" data-name="Caminho 379" d="M484.027,338.863a61.544,61.544,0,1,0-61.544-61.544A61.544,61.544,0,0,0,484.027,338.863Z" transform="translate(-381.657 -187.533)" fill="none" stroke="#d1e8f7" stroke-width="1.43"/>
        <path id="Caminho_380" data-name="Caminho 380" d="M945.742,532.131a2.168,2.168,0,1,0-2.168-2.168A2.168,2.168,0,0,0,945.742,532.131Z" transform="translate(-782.882 -427.781)" fill="#febb94"/>
        <path id="Caminho_381" data-name="Caminho 381" d="M434.63,578.784a2.168,2.168,0,1,0-2.168-2.168A2.168,2.168,0,0,0,434.63,578.784Z" transform="translate(-389.34 -463.702)" fill="#5661ae"/>
        <path id="Caminho_382" data-name="Caminho 382" d="M562.934,238.777a2.168,2.168,0,1,0-2.168-2.168A2.168,2.168,0,0,0,562.934,238.777Z" transform="translate(-488.131 -201.906)" fill="#1c85e8"/>
        <path id="Caminho_393" data-name="Caminho 393" d="M548.852,494.659H519.435a1.516,1.516,0,0,1-1.535-1.7l3.572-37.158a1.911,1.911,0,0,1,1.861-1.7h29.417a1.515,1.515,0,0,1,1.535,1.7l-3.572,37.158a1.911,1.911,0,0,1-1.861,1.7Z" transform="translate(-455.117 -371.04)" fill="#febb94"/>
        <path id="Caminho_394" data-name="Caminho 394" d="M578,496.557c3.318-3.162,3.678-8.168.806-11.181s-7.89-2.893-11.208.268-3.678,8.168-.806,11.182S574.686,499.719,578,496.557Z" transform="translate(-491.281 -393.436)" fill="none" stroke="#ef6a77" stroke-width="11.69"/>
        <path id="Caminho_395" data-name="Caminho 395" d="M580.711,491.1a8.9,8.9,0,0,1-8.669,7.909,7.06,7.06,0,0,1-7.149-7.909,8.9,8.9,0,0,1,8.669-7.909" transform="translate(-491.28 -393.436)" fill="none" stroke="#fff" stroke-linecap="round" stroke-width="11.69"/>
        <path id="Caminho_396" data-name="Caminho 396" d="M580.348,578.9H586.4" transform="translate(-503.208 -467.132)" fill="none" stroke="#fff" stroke-linecap="round" stroke-width="5.984"/>
        <path id="Caminho_397" data-name="Caminho 397" d="M577.483,608.7h6.052" transform="translate(-501.003 -490.075)" fill="none" stroke="#fff" stroke-linecap="round" stroke-width="5.984"/>
        <path id="Caminho_398" data-name="Caminho 398" d="M564.9,593.634h12.508" transform="translate(-491.314 -478.474)" fill="none" stroke="#fff" stroke-linecap="round" stroke-width="5.984" opacity="0.4"/>
        <path id="Caminho_400" data-name="Caminho 400" d="M532.968,693.218l.925-9.623" transform="translate(-466.727 -547.741)" fill="none" stroke="#fff" stroke-linecap="round" stroke-width="11.69"/>
        <path id="Caminho_401" data-name="Caminho 401" d="M560.3,696.123l-.648,6.741" transform="translate(-487.276 -557.388)" fill="none" stroke="#fff" stroke-linecap="round" stroke-width="11.69"/>
        <path id="Caminho_402" data-name="Caminho 402" d="M586.771,706.131l-.427,4.439" transform="translate(-507.825 -565.094)" fill="none" stroke="#fff" stroke-linecap="round" stroke-width="11.69"/>
        <path id="Caminho_403" data-name="Caminho 403" d="M614.2,672.724l-1.165,12.123" transform="translate(-528.374 -539.371)" fill="none" stroke="#fff" stroke-linecap="round" stroke-width="11.69"/>
        <path id="Caminho_404" data-name="Caminho 404" d="M640.147,706.131l-.427,4.439" transform="translate(-548.923 -565.094)" fill="none" stroke="#fff" stroke-linecap="round" stroke-width="11.69"/>
        <path id="Caminho_405" data-name="Caminho 405" d="M667.522,675.052l-1.114,11.588" transform="translate(-569.472 -541.164)" fill="none" stroke="#fff" stroke-linecap="round" stroke-width="11.69"/>
        <path id="Caminho_406" data-name="Caminho 406" d="M693.559,704.511l-.463,4.811" transform="translate(-590.021 -563.846)" fill="none" stroke="#fff" stroke-linecap="round" stroke-width="11.69"/>
        <path id="Caminho_407" data-name="Caminho 407" d="M720.03,714.285l-.246,2.563" transform="translate(-610.57 -571.372)" fill="none" stroke="#fff" stroke-linecap="round" stroke-width="11.69"/>
        <path id="Caminho_408" data-name="Caminho 408" d="M747.4,683.595l-.925,9.623" transform="translate(-631.119 -547.741)" fill="none" stroke="#fff" stroke-linecap="round" stroke-width="11.69"/>
        <path id="Caminho_410" data-name="Caminho 410" d="M511.742,407.462l3.685,5.773a1.172,1.172,0,0,1-.349,1.613l-.6.387a4.906,4.906,0,0,1-6.4-.92l-4.89-5.7Z" transform="translate(-443.802 -335.127)" fill="#ffccb3"/>
        <path id="Caminho_411" data-name="Caminho 411" d="M528.131,417.119s1.365,4.685,4.106,6.188a11.986,11.986,0,0,0,2.042-1.024l-3.074-5.164" transform="translate(-463.003 -342.562)" fill="#fcba9f"/>
        <path id="Caminho_412" data-name="Caminho 412" d="M254.064,362.607l14.475-6.937a8.085,8.085,0,0,0,3.328-2.953l13.983-22a8.083,8.083,0,0,1,3.623-3.087l20.14-8.677L305.3,351.564l-.076,1.2s-5.327,13.8-18.383,18.808l-20.874,12.767Z" transform="translate(-251.979 -266.981)" fill="#ffccb3"/>
        <path id="Caminho_413" data-name="Caminho 413" d="M305.386,475.233s6.847,17.09,17.027,16.671l-6.5,3.975s-22.06-4.092-13.8-18.958Z" transform="translate(-287.549 -387.309)" fill="#fcba9f"/>
        <path id="Caminho_414" data-name="Caminho 414" d="M459.38,345.191s-7.121,4.315-6.743,14.324l8.551-3.2Z" transform="translate(-404.864 -287.18)" fill="#fcba9f"/>
        <path id="Caminho_415" data-name="Caminho 415" d="M531.152,407.462l3.685,5.773a1.172,1.172,0,0,1-.349,1.613l-.6.387a4.906,4.906,0,0,1-6.4-.92l-4.89-5.7Z" transform="translate(-458.747 -335.127)" fill="#ffccb3"/>
        <path id="Caminho_418" data-name="Caminho 418" d="M529.506,247.154l12.245.011" transform="translate(-464.062 -211.694)" fill="none" stroke="#fff" stroke-linecap="round" stroke-width="11.999"/>
        <path id="Caminho_419" data-name="Caminho 419" d="M527.308,271.556l25.305.023" transform="translate(-462.369 -230.483)" fill="none" stroke="#fff" stroke-linecap="round" stroke-width="11.999" opacity="0.4"/>
        <path id="Caminho_420" data-name="Caminho 420" d="M424.307,377.3l8.928-3.933,9.13-6.233c2.4-1.639,7.416-2.377,9.221-.1,1.836,2.318-.226,6.9-2.454,8.848l-8.438,7.369-4.388,5.43Z" transform="translate(-383.061 -302.891)" fill="#ffccb3"/>
        <path id="Caminho_421" data-name="Caminho 421" d="M503.194,372.818s1.205,4.648,4.331,5.452l3.315-2.8a3.086,3.086,0,0,0,.531-4.447h0a3.085,3.085,0,0,0-3.936-.69Z" transform="translate(-443.802 -306.212)" fill="none" stroke="#ff967c" stroke-linecap="round" stroke-width="3"/>
        <path id="Caminho_422" data-name="Caminho 422" d="M262.11,476.062s-1.73,12.374,13.327,19.46c0,0-10.816,9.922-14.987,11.59s-19.838-15.381-14.265-25.058C247.747,479.341,262.11,476.062,262.11,476.062Z" transform="translate(-245 -387.947)" fill="#1c85e8"/>
        <path id="Caminho_423" data-name="Caminho 423" d="M535.983,417.649s-5.869.12-7.912,1.189l-1.474-1.719h9.047Z" transform="translate(-461.822 -342.562)" fill="#fcba9f"/>
        <path id="Caminho_424" data-name="Caminho 424" d="M880.043,167.612H838.315a5.126,5.126,0,0,1-5.188-5.692l5.6-63.229a6.345,6.345,0,0,1,6.2-5.691H886.65a5.125,5.125,0,0,1,5.187,5.691l-5.6,63.229A6.345,6.345,0,0,1,880.043,167.612Z" transform="translate(-697.824 -93)" fill="#febb94"/>
        <path id="Caminho_425" data-name="Caminho 425" d="M922.894,158.532c6.609-6.321,7.273-16.349,1.488-22.4s-15.833-5.826-22.44.5-7.273,16.349-1.488,22.4S916.288,164.854,922.894,158.532Z" transform="translate(-746.649 -122.83)" fill="#fff"/>
        <path id="Caminho_426" data-name="Caminho 426" d="M969.493,202.744l10.475,9.554a19,19,0,0,0,3.094-4.392Z" transform="translate(-802.839 -177.5)" fill="#fff"/>
        <path id="Caminho_427" data-name="Caminho 427" d="M967.512,122.963l-1.488,16.81a1.577,1.577,0,0,0,.791,1.542l14.213,7.913S989.467,125.682,967.512,122.963Z" transform="translate(-800.161 -116.071)" fill="#532e6c"/>
        <path id="Caminho_428" data-name="Caminho 428" d="M875.814,320.069H893.1" transform="translate(-730.709 -267.837)" fill="none" stroke="#fff" stroke-linecap="round" stroke-width="12"/>
        <path id="Caminho_429" data-name="Caminho 429" d="M870.313,382.2H887.6" transform="translate(-726.473 -315.677)" fill="none" stroke="#fff" stroke-linecap="round" stroke-width="12"/>
        <path id="Caminho_430" data-name="Caminho 430" d="M873.095,350.784h35.724" transform="translate(-728.615 -291.486)" fill="none" stroke="#fff" stroke-linecap="round" stroke-width="12" opacity="0.4"/>
        <path id="Caminho_434" data-name="Caminho 434" d="M709.206,672.567s-.49,2.6-2.806,2.6c-1.511,0-8.059-1.978-12.43-3.354a6.086,6.086,0,0,0-6.65,2.093l-.266.345a1.6,1.6,0,0,0,.35,2.283c3.7,2.583,13.693,9.6,14.971,10.873,1.573,1.573,10.331,10.39,10.331,10.39Z" transform="translate(-585.113 -538.452)" fill="#ffccb3"/>
        <path id="Caminho_435" data-name="Caminho 435" d="M768.74,664.717s4.733,6.407,4.033,7.809-8.04-2.885-8.04-2.885S770.655,671.164,768.74,664.717Z" transform="translate(-645.179 -533.206)" fill="#fcba9f"/>
        <path id="Caminho_443" data-name="Caminho 443" d="M695.8,687.768s1.636-2.077,1.075-3.119a6.1,6.1,0,0,0-4.5-2.355,5.82,5.82,0,0,0-1.961.668.716.716,0,0,0-.06,1.234Z" transform="translate(-587.663 -546.731)" fill="none" stroke="#ff967c" stroke-linecap="round" stroke-width="3"/>
        <path id="Caminho_444" data-name="Caminho 444" d="M421.15,737.326H371.323a1.437,1.437,0,0,1-1.455-1.609l1.957-20.354a1.811,1.811,0,0,1,1.764-1.609h49.828a1.437,1.437,0,0,1,1.455,1.609l-1.957,20.354a1.812,1.812,0,0,1-1.764,1.609Z" transform="translate(-341.137 -570.962)" fill="#febb94"/>
        <path id="Caminho_445" data-name="Caminho 445" d="M396.563,736.83h30.751" transform="translate(-361.699 -588.731)" fill="none" stroke="#ef6a77" stroke-linecap="round" stroke-width="11.69"/>
        <path id="Caminho_446" data-name="Caminho 446" d="M396.563,736.83h21.369" transform="translate(-361.699 -588.731)" fill="none" stroke="#fff" stroke-linecap="round" stroke-width="11.69"/>
        <path id="Caminho_447" data-name="Caminho 447" d="M394.563,764.994h30.751" transform="translate(-360.159 -610.416)" fill="none" stroke="#ef6a77" stroke-linecap="round" stroke-width="11.69"/>
        <path id="Caminho_448" data-name="Caminho 448" d="M394.563,764.994h12.776" transform="translate(-360.159 -610.416)" fill="none" stroke="#fff" stroke-linecap="round" stroke-width="11.69"/>
        <path id="Caminho_449" data-name="Caminho 449" d="M390.192,793.158h30.751" transform="translate(-356.794 -632.102)" fill="none" stroke="#ef6a77" stroke-linecap="round" stroke-width="11.69"/>
        <path id="Caminho_450" data-name="Caminho 450" d="M390.192,793.158H398" transform="translate(-356.794 -632.102)" fill="none" stroke="#fff" stroke-linecap="round" stroke-width="11.69"/>
        <path id="Caminho_451" data-name="Caminho 451" d="M571.417,732.517a1.837,1.837,0,1,0-1.837-1.837A1.837,1.837,0,0,0,571.417,732.517Z" transform="translate(-494.917 -582.58)" fill="#fff"/>
        <path id="Caminho_452" data-name="Caminho 452" d="M568.826,759.449a1.837,1.837,0,1,0-1.837-1.837A1.837,1.837,0,0,0,568.826,759.449Z" transform="translate(-492.922 -603.317)" fill="#fff"/>
        <path id="Caminho_453" data-name="Caminho 453" d="M565.935,788.845a1.837,1.837,0,1,0-1.837-1.838A1.838,1.838,0,0,0,565.935,788.845Z" transform="translate(-490.696 -625.951)" fill="#fff"/>
      </g>
    </g>
  </g>
</svg>
