<svg xmlns="http://www.w3.org/2000/svg" xmlns:xlink="http://www.w3.org/1999/xlink" width="428" height="149" viewBox="0 0 428 149">
  <defs>
    <clipPath id="clip-path">
      <rect id="Retângulo_21902" data-name="Retângulo 21902" width="428" height="149" transform="translate(0 777)" fill="#fff"/>
    </clipPath>
    <linearGradient id="linear-gradient" y1="0.5" x2="1" y2="0.5" gradientUnits="objectBoundingBox">
      <stop offset="0" stop-color="#70518f"/>
      <stop offset="1" stop-color="#421957"/>
    </linearGradient>
    <linearGradient id="linear-gradient-2" y1="0.5" x2="1" y2="0.5" gradientUnits="objectBoundingBox">
      <stop offset="0" stop-color="#f39c49"/>
      <stop offset="1" stop-color="#ea6f55"/>
    </linearGradient>
  </defs>
  <g id="Ilustracao_Rodape" transform="translate(0 -777)" clip-path="url(#clip-path)">
    <g id="Grupo_6" data-name="Grupo 6" transform="matrix(0.996, -0.087, 0.087, 0.996, 11.908, 816.826)" opacity="0.4">
      <path id="Caminho_68" data-name="Caminho 68" d="M588.16,248.49A70.442,70.442,0,0,1,470.6,255,114.295,114.295,0,0,0,629.7,162.5a114.649,114.649,0,0,0-27.648-35.73l-6.42-56.546-81.617,36h0L435.6,91.2l5.353,47.076c-2.1,2.44-4.133,4.956-6.039,7.564a114.255,114.255,0,1,0-21.3,156.737l-30.8-31.659A70.45,70.45,0,1,1,413,213.111a114.26,114.26,0,0,0,222.906,35.364H588.175ZM459.833,192.584a70.463,70.463,0,0,1,123.676-21.853,70.463,70.463,0,0,1-123.676,21.853Z" transform="translate(-228.31 -18.92)" fill="url(#linear-gradient)"/>
      <path id="Caminho_69" data-name="Caminho 69" d="M379.651,96.8l78.415,15.021h0L566,64.213a143.4,143.4,0,0,0,5.353,46.771,3.932,3.932,0,1,0,1.525-.122A143.169,143.169,0,0,0,569.695,62.6l4.727-2.089L449.526,36.58,333.17,87.911l46.481,8.906h0Z" transform="translate(-173.261 -36.58)" fill="url(#linear-gradient-2)"/>
    </g>
  </g>
</svg>
