<svg xmlns="http://www.w3.org/2000/svg" xmlns:xlink="http://www.w3.org/1999/xlink" width="294" height="291.727" viewBox="0 0 294 291.727">
  <defs>
    <clipPath id="clip-path">
      <rect id="Retângulo_11" data-name="Retângulo 11" width="294" height="291.727" fill="#fff" stroke="#df7a46" stroke-width="1"/>
    </clipPath>
  </defs>
  <g id="Ilustracao_03" transform="translate(-245 -93)">
    <g id="Grupo_12" data-name="Grupo 12" transform="translate(245 93)" clip-path="url(#clip-path)">
      <path id="Caminho_375" data-name="Caminho 375" d="M448.071,372.315A125.006,125.006,0,1,0,323.065,247.309,125,125,0,0,0,448.071,372.315Z" transform="translate(-295.857 -112.091)" fill="none" stroke="#d1e8f7" stroke-width="1.916"/>
      <path id="Caminho_376" data-name="Caminho 376" d="M381.719,266.543a4.4,4.4,0,1,0-4.4-4.4A4.4,4.4,0,0,0,381.719,266.543Z" transform="translate(-331.199 -200.32)" fill="#febb94"/>
      <path id="Caminho_377" data-name="Caminho 377" d="M1032.152,490.8a4.4,4.4,0,1,0-4.4-4.4A4.4,4.4,0,0,0,1032.152,490.8Z" transform="translate(-754.934 -346.413)" fill="#603f7d"/>
      <path id="Caminho_378" data-name="Caminho 378" d="M688.206,835.8a4.4,4.4,0,1,0-4.4-4.4A4.4,4.4,0,0,0,688.206,835.8Z" transform="translate(-530.865 -571.169)" fill="#603f7d"/>
      <path id="Caminho_379" data-name="Caminho 379" d="M515.734,402.277a93.251,93.251,0,1,0-93.251-93.251A93.25,93.25,0,0,0,515.734,402.277Z" transform="translate(-360.624 -172.984)" fill="none" stroke="#d1e8f7" stroke-width="1.43"/>
      <path id="Caminho_380" data-name="Caminho 380" d="M946.859,534.365a3.284,3.284,0,1,0-3.285-3.284A3.284,3.284,0,0,0,946.859,534.365Z" transform="translate(-700.096 -376.254)" fill="#febb94"/>
      <path id="Caminho_381" data-name="Caminho 381" d="M435.746,581.018a3.284,3.284,0,1,0-3.284-3.285A3.284,3.284,0,0,0,435.746,581.018Z" transform="translate(-367.125 -406.647)" fill="#603f7d"/>
      <path id="Caminho_382" data-name="Caminho 382" d="M564.05,241.011a3.284,3.284,0,1,0-3.284-3.285A3.285,3.285,0,0,0,564.05,241.011Z" transform="translate(-450.71 -185.144)" fill="#1c85e8"/>
      <path id="Caminho_383" data-name="Caminho 383" d="M613.629,390.523H505.939a7.552,7.552,0,0,1-7.646-8.46l18.384-191.24a9.519,9.519,0,0,1,9.272-8.46h107.69a7.552,7.552,0,0,1,7.646,8.46L622.9,382.063A9.52,9.52,0,0,1,613.629,390.523Z" transform="translate(-409.986 -151.217)" fill="#1c85e8"/>
      <path id="Caminho_384" data-name="Caminho 384" d="M591.853,390.523H484.163a7.553,7.553,0,0,1-7.646-8.46L494.9,190.824a9.52,9.52,0,0,1,9.273-8.46h107.69a7.553,7.553,0,0,1,7.646,8.46l-18.383,191.24A9.52,9.52,0,0,1,591.853,390.523Z" transform="translate(-395.799 -151.217)" fill="#fff"/>
      <path id="Caminho_385" data-name="Caminho 385" d="M598.737,396.049H500.432a7,7,0,0,1-7.086-7.84l17.28-179.764a8.822,8.822,0,0,1,8.593-7.84h98.305a7,7,0,0,1,7.086,7.84l-17.28,179.764A8.822,8.822,0,0,1,598.737,396.049Z" transform="translate(-406.764 -163.101)" fill="#fff"/>
      <path id="Caminho_386" data-name="Caminho 386" d="M615.488,304.593,510.031,304.5a3.029,3.029,0,0,1-3.1-3.339l5.685-63.13a3.755,3.755,0,0,1,3.7-3.333l105.457.094a3.029,3.029,0,0,1,3.1,3.339l-5.685,63.13a3.754,3.754,0,0,1-3.7,3.332Z" transform="translate(-415.632 -185.311)" fill="#fff"/>
      <path id="Caminho_387" data-name="Caminho 387" d="M721.2,515.552H676.628a2.3,2.3,0,0,1-2.326-2.573l5.412-56.3a2.895,2.895,0,0,1,2.82-2.573h44.573a2.3,2.3,0,0,1,2.325,2.573l-5.412,56.3a2.9,2.9,0,0,1-2.82,2.573Z" transform="translate(-524.664 -328.247)" fill="#fff"/>
      <path id="Caminho_388" data-name="Caminho 388" d="M741.172,503.442c5.027-4.791,5.574-12.376,1.222-16.942s-11.955-4.384-16.981.407-5.574,12.376-1.222,16.942S736.146,508.233,741.172,503.442Z" transform="translate(-555.263 -347.196)" fill="none" stroke="#e8e8e8" stroke-width="4"/>
      <path id="Caminho_389" data-name="Caminho 389" d="M727.641,506.249a10.7,10.7,0,0,1-6.333-11.075,13.485,13.485,0,0,1,13.135-11.983" transform="translate(-555.261 -347.196)" fill="none" stroke="#603f7d" stroke-linecap="round" stroke-width="4"/>
      <path id="Caminho_390" data-name="Caminho 390" d="M736.744,578.9h9.17" transform="translate(-565.354 -409.549)" fill="none" stroke="#fff" stroke-linecap="round" stroke-width="5.984"/>
      <path id="Caminho_391" data-name="Caminho 391" d="M733.879,608.7h9.17" transform="translate(-563.487 -428.961)" fill="none" stroke="#fff" stroke-linecap="round" stroke-width="5.984"/>
      <path id="Caminho_392" data-name="Caminho 392" d="M721.3,593.634h18.951" transform="translate(-555.29 -419.145)" fill="none" stroke="#fff" stroke-linecap="round" stroke-width="5.984" opacity="0.4"/>
      <path id="Caminho_393" data-name="Caminho 393" d="M564.8,515.552H520.232a2.3,2.3,0,0,1-2.326-2.573l5.412-56.3a2.895,2.895,0,0,1,2.82-2.573h44.573a2.3,2.3,0,0,1,2.325,2.573l-5.412,56.3a2.9,2.9,0,0,1-2.82,2.573Z" transform="translate(-422.778 -328.247)" fill="#febb94"/>
      <path id="Caminho_394" data-name="Caminho 394" d="M584.776,503.442c5.027-4.791,5.573-12.376,1.222-16.942s-11.955-4.384-16.981.407-5.573,12.376-1.222,16.942S579.75,508.233,584.776,503.442Z" transform="translate(-453.376 -347.196)" fill="none" stroke="#df7a46" stroke-width="4"/>
      <path id="Caminho_395" data-name="Caminho 395" d="M588.879,495.174a13.485,13.485,0,0,1-13.135,11.983,10.7,10.7,0,0,1-10.831-11.983,13.485,13.485,0,0,1,13.135-11.983" transform="translate(-453.375 -347.196)" fill="none" stroke="#fff" stroke-linecap="round" stroke-width="4"/>
      <path id="Caminho_396" data-name="Caminho 396" d="M580.348,578.9h9.17" transform="translate(-463.467 -409.549)" fill="none" stroke="#fff" stroke-linecap="round" stroke-width="5.984"/>
      <path id="Caminho_397" data-name="Caminho 397" d="M577.483,608.7h9.17" transform="translate(-461.601 -428.961)" fill="none" stroke="#fff" stroke-linecap="round" stroke-width="5.984"/>
      <path id="Caminho_398" data-name="Caminho 398" d="M564.9,593.634h18.951" transform="translate(-453.404 -419.145)" fill="none" stroke="#fff" stroke-linecap="round" stroke-width="5.984" opacity="0.4"/>
      <path id="Caminho_399" data-name="Caminho 399" d="M608.319,679.181H508.968a2.177,2.177,0,0,1-2.2-2.439l2.965-30.84a2.744,2.744,0,0,1,2.673-2.439h99.351a2.177,2.177,0,0,1,2.2,2.439l-2.965,30.84a2.744,2.744,0,0,1-2.673,2.439Z" transform="translate(-415.52 -451.607)" fill="#fff"/>
      <path id="Caminho_400" data-name="Caminho 400" d="M532.968,698.175l1.4-14.58" transform="translate(-432.601 -477.752)" fill="none" stroke="#fff" stroke-linecap="round" stroke-width="11.69"/>
      <path id="Caminho_401" data-name="Caminho 401" d="M560.638,696.123l-.982,10.214" transform="translate(-449.987 -485.913)" fill="none" stroke="#fff" stroke-linecap="round" stroke-width="11.69"/>
      <path id="Caminho_402" data-name="Caminho 402" d="M586.991,706.131l-.647,6.725" transform="translate(-467.374 -492.433)" fill="none" stroke="#fff" stroke-linecap="round" stroke-width="11.69"/>
      <path id="Caminho_403" data-name="Caminho 403" d="M614.8,672.724l-1.766,18.369" transform="translate(-484.76 -470.67)" fill="none" stroke="#fff" stroke-linecap="round" stroke-width="11.69"/>
      <path id="Caminho_404" data-name="Caminho 404" d="M640.367,706.131l-.646,6.725" transform="translate(-502.146 -492.433)" fill="none" stroke="#fff" stroke-linecap="round" stroke-width="11.69"/>
      <path id="Caminho_405" data-name="Caminho 405" d="M668.1,675.052l-1.688,17.557" transform="translate(-519.532 -472.186)" fill="none" stroke="#fff" stroke-linecap="round" stroke-width="11.69"/>
      <path id="Caminho_406" data-name="Caminho 406" d="M693.8,704.511l-.7,7.29" transform="translate(-536.919 -491.378)" fill="none" stroke="#fff" stroke-linecap="round" stroke-width="11.69"/>
      <path id="Caminho_407" data-name="Caminho 407" d="M720.157,714.285l-.373,3.883" transform="translate(-554.305 -497.745)" fill="none" stroke="#fff" stroke-linecap="round" stroke-width="11.69"/>
      <path id="Caminho_408" data-name="Caminho 408" d="M747.873,683.595l-1.4,14.58" transform="translate(-571.691 -477.752)" fill="none" stroke="#fff" stroke-linecap="round" stroke-width="11.69"/>
      <path id="Caminho_409" data-name="Caminho 409" d="M775.1,667.667,773.16,687.8" transform="translate(-589.078 -467.375)" fill="none" stroke="#fff" stroke-linecap="round" stroke-width="11.69"/>
      <path id="Caminho_410" data-name="Caminho 410" d="M516.146,407.462l5.583,8.746a1.775,1.775,0,0,1-.529,2.444l-.9.586a7.434,7.434,0,0,1-9.695-1.394l-7.41-8.641Z" transform="translate(-413.204 -297.861)" fill="#ffccb3"/>
      <path id="Caminho_411" data-name="Caminho 411" d="M528.131,417.119s2.068,7.1,6.221,9.376a18.162,18.162,0,0,0,3.094-1.552l-4.658-7.825" transform="translate(-429.45 -304.152)" fill="#fcba9f"/>
      <path id="Caminho_412" data-name="Caminho 412" d="M254.064,385.1,276,374.585a12.25,12.25,0,0,0,5.043-4.474l21.187-33.328a12.247,12.247,0,0,1,5.49-4.678l30.515-13.147-6.533,49.4-.115,1.825s-8.071,20.9-27.853,28.5L272.1,418.03Z" transform="translate(-250.905 -240.204)" fill="#ffccb3"/>
      <path id="Caminho_413" data-name="Caminho 413" d="M308.027,475.233s10.375,25.895,25.8,25.26l-9.848,6.023s-33.426-6.2-20.914-28.725Z" transform="translate(-281 -342.011)" fill="#fcba9f"/>
      <path id="Caminho_414" data-name="Caminho 414" d="M462.862,345.191s-10.789,6.538-10.217,21.7l12.957-4.842Z" transform="translate(-380.259 -257.294)" fill="#fcba9f"/>
      <path id="Caminho_415" data-name="Caminho 415" d="M535.556,407.462l5.584,8.746a1.775,1.775,0,0,1-.529,2.444l-.9.586a7.434,7.434,0,0,1-9.694-1.394L522.6,409.2Z" transform="translate(-425.849 -297.861)" fill="#ffccb3"/>
      <path id="Caminho_416" data-name="Caminho 416" d="M593.666,286.713l-105.457-.094a3.029,3.029,0,0,1-3.1-3.339l5.685-63.13a3.755,3.755,0,0,1,3.7-3.333l105.456.094a3.03,3.03,0,0,1,3.1,3.338l-5.685,63.13a3.755,3.755,0,0,1-3.7,3.333Z" transform="translate(-401.415 -173.663)" fill="#603f7d"/>
      <path id="Caminho_417" data-name="Caminho 417" d="M514.058,308.478s9.466-1.914,12.014,2.528,4.744,12.784,11.523,11.708,11.967-22.885,18.631-22.686,4.315,14.483,11.568,14.682,5.963-7.979,10.8-7.751c5.864.276,3.678,17.222,11.324,17.422s8.894-22.384,20.453-21.987" transform="translate(-420.282 -227.871)" fill="none" stroke="#fff" stroke-linecap="round" stroke-width="7.565"/>
      <path id="Caminho_418" data-name="Caminho 418" d="M529.506,247.154l18.554.016" transform="translate(-430.346 -193.426)" fill="none" stroke="#fff" stroke-linecap="round" stroke-width="11.999"/>
      <path id="Caminho_419" data-name="Caminho 419" d="M527.308,271.556l38.342.034" transform="translate(-428.914 -209.323)" fill="none" stroke="#fff" stroke-linecap="round" stroke-width="11.999" opacity="0.4"/>
      <path id="Caminho_420" data-name="Caminho 420" d="M424.307,383.323l13.528-5.959,13.834-9.444c3.638-2.483,11.236-3.6,13.972-.15,2.782,3.512-.343,10.459-3.718,13.406l-12.785,11.165-6.648,8.228Z" transform="translate(-361.812 -270.586)" fill="#ffccb3"/>
      <path id="Caminho_421" data-name="Caminho 421" d="M503.194,374.317s1.826,7.043,6.562,8.261l5.022-4.243a4.675,4.675,0,0,0,.8-6.738h0a4.675,4.675,0,0,0-5.963-1.046Z" transform="translate(-413.204 -273.396)" fill="none" stroke="#ff967c" stroke-linecap="round" stroke-width="3"/>
      <path id="Caminho_422" data-name="Caminho 422" d="M270.924,476.062s-2.622,18.749,20.193,29.485c0,0-16.389,15.034-22.707,17.562s-30.058-23.3-21.614-37.967C249.163,481.03,270.924,476.062,270.924,476.062Z" transform="translate(-245 -342.551)" fill="#ef854f"/>
      <path id="Caminho_423" data-name="Caminho 423" d="M540.819,417.922s-8.892.181-11.988,1.8l-2.234-2.605h13.709Z" transform="translate(-428.45 -304.151)" fill="#fcba9f"/>
      <path id="Caminho_424" data-name="Caminho 424" d="M904.225,206.05H841a7.767,7.767,0,0,1-7.86-8.624l8.483-95.8A9.613,9.613,0,0,1,851.009,93h63.226a7.765,7.765,0,0,1,7.86,8.623l-8.483,95.8A9.613,9.613,0,0,1,904.225,206.05Z" transform="translate(-628.129 -93)" fill="#ef854f"/>
      <path id="Caminho_425" data-name="Caminho 425" d="M936.484,172.335c10.013-9.578,11.021-24.771,2.255-33.934s-23.989-8.827-34,.751-11.021,24.771-2.254,33.934S926.474,181.913,936.484,172.335Z" transform="translate(-669.44 -118.239)" fill="#fff"/>
      <path id="Caminho_426" data-name="Caminho 426" d="M969.493,202.744l15.871,14.475s3.611-3.881,4.688-6.655Z" transform="translate(-716.982 -164.494)" fill="#fff"/>
      <path id="Caminho_427" data-name="Caminho 427" d="M968.283,122.963l-2.255,25.47a2.39,2.39,0,0,0,1.2,2.337l21.535,11.989S1001.549,127.083,968.283,122.963Z" transform="translate(-714.715 -112.52)" fill="#603f7d"/>
      <path id="Caminho_428" data-name="Caminho 428" d="M875.814,320.069h26.193" transform="translate(-655.953 -240.927)" fill="none" stroke="#fff" stroke-linecap="round" stroke-width="4"/>
      <path id="Caminho_429" data-name="Caminho 429" d="M870.313,382.2h26.193" transform="translate(-652.369 -281.404)" fill="none" stroke="#fff" stroke-linecap="round" stroke-width="4"/>
      <path id="Caminho_430" data-name="Caminho 430" d="M873.095,350.784h54.129" transform="translate(-654.182 -260.937)" fill="none" stroke="#fff" stroke-linecap="round" stroke-width="4" opacity="0.4"/>
      <path id="Caminho_431" data-name="Caminho 431" d="M790.847,618.877s8.443-2.252,12.937,2.587c0,0,8.077-1.467,11.361,3.027,0,0,7.161.415,9.234,3.335a9.854,9.854,0,0,1,7.8,6.108c1.958,4.615.3,31.3-1.649,40.856a13.578,13.578,0,0,0,.483,7.174l4.951,14.227L801.715,710.51l-8.132-21.21s-9.9-15.908-11.313-18.736.983-26.3-3.845-40.956Z" transform="translate(-592.508 -435.249)" fill="#ffccb3"/>
      <path id="Caminho_432" data-name="Caminho 432" d="M832.744,819.722l-.988-2.577s17.774-1.136,34-16.281l1.552,4.461a21.3,21.3,0,0,1-11.132,13.558C847.053,823.226,832.744,819.722,832.744,819.722Z" transform="translate(-627.251 -554.148)" fill="#fcba9f"/>
      <path id="Caminho_433" data-name="Caminho 433" d="M834.563,828.06s21.514,1.959,34.569-14.4c0,0,4.82,2.527,12.221,21.028,2.273,5.682-35.685,25.914-41.823,17.5A59.65,59.65,0,0,1,834.563,828.06Z" transform="translate(-629.07 -562.486)" fill="#603f7d"/>
      <path id="Caminho_434" data-name="Caminho 434" d="M720.789,673.1s-.742,3.937-4.251,3.937c-2.289,0-12.212-3-18.834-5.082a9.222,9.222,0,0,0-10.076,3.171l-.4.523a2.418,2.418,0,0,0,.53,3.46c5.607,3.914,20.748,14.539,22.684,16.475,2.383,2.383,15.654,15.743,15.654,15.743Z" transform="translate(-532.766 -469.892)" fill="#ffccb3"/>
      <path id="Caminho_435" data-name="Caminho 435" d="M770.8,664.717s7.172,9.707,6.11,11.832-12.182-4.372-12.182-4.372S773.706,674.486,770.8,664.717Z" transform="translate(-583.587 -465.453)" fill="#fcba9f"/>
      <path id="Caminho_436" data-name="Caminho 436" d="M754.941,558.3l-12.068-36.648a9.886,9.886,0,0,1,6.585-12.571,4.439,4.439,0,0,1,5.33,2.486l16.93,38.917Z" transform="translate(-569.024 -363.946)" fill="#ffccb3"/>
      <path id="Caminho_437" data-name="Caminho 437" d="M763.41,605.045a4.775,4.775,0,0,0,3.128,2.2" transform="translate(-582.726 -426.579)" fill="none" stroke="#ff967c" stroke-linecap="round" stroke-width="3"/>
      <path id="Caminho_438" data-name="Caminho 438" d="M762.791,524.356a9.2,9.2,0,0,0,3.785-2.621l-4.494-10.67a1.758,1.758,0,0,0-2.5-.847c-1.6.923-3.71,2.588-3.792,4.979l3.039,7.563a2.963,2.963,0,0,0,3.957,1.6Z" transform="translate(-577.765 -364.651)" fill="none" stroke="#ff967c" stroke-linecap="round" stroke-width="3"/>
      <path id="Caminho_439" data-name="Caminho 439" d="M822.654,619.236l4.16,9.165" transform="translate(-621.321 -435.824)" fill="none" stroke="#ff967c" stroke-linecap="round" stroke-width="3"/>
      <path id="Caminho_440" data-name="Caminho 440" d="M851.66,627.815a18.052,18.052,0,0,1,3.246,10.334" transform="translate(-640.217 -441.413)" fill="none" stroke="#ff967c" stroke-linecap="round" stroke-width="3"/>
      <path id="Caminho_441" data-name="Caminho 441" d="M884.349,636.453a29.879,29.879,0,0,1,2.267,8.6" transform="translate(-661.513 -447.04)" fill="none" stroke="#ff967c" stroke-linecap="round" stroke-width="3"/>
      <path id="Caminho_442" data-name="Caminho 442" d="M911.115,646.349a13.5,13.5,0,0,1,.932,6.4" transform="translate(-678.95 -453.487)" fill="none" stroke="#ff967c" stroke-linecap="round" stroke-width="3"/>
      <path id="Caminho_443" data-name="Caminho 443" d="M698.774,690.595s2.478-3.147,1.628-4.726-4.631-3.811-6.817-3.568a8.819,8.819,0,0,0-2.971,1.012,1.085,1.085,0,0,0-.091,1.869Z" transform="translate(-534.924 -476.897)" fill="none" stroke="#ff967c" stroke-linecap="round" stroke-width="3"/>
      <path id="Caminho_444" data-name="Caminho 444" d="M447.575,749.471h-75.5a2.177,2.177,0,0,1-2.2-2.439l2.965-30.841a2.744,2.744,0,0,1,2.673-2.438h75.5a2.177,2.177,0,0,1,2.2,2.438l-2.965,30.841a2.745,2.745,0,0,1-2.673,2.439Z" transform="translate(-326.34 -497.398)" fill="#ef854f"/>
      <path id="Caminho_445" data-name="Caminho 445" d="M396.563,736.83h46.593" transform="translate(-343.738 -512.432)" fill="none" stroke="#df7a46" stroke-linecap="round" stroke-width="4"/>
      <path id="Caminho_446" data-name="Caminho 446" d="M396.563,736.83h32.378" transform="translate(-343.738 -512.432)" fill="none" stroke="#fff" stroke-linecap="round" stroke-width="4"/>
      <path id="Caminho_447" data-name="Caminho 447" d="M394.563,764.994h46.593" transform="translate(-342.435 -530.78)" fill="none" stroke="#df7a46" stroke-linecap="round" stroke-width="4"/>
      <path id="Caminho_448" data-name="Caminho 448" d="M394.563,764.994h19.358" transform="translate(-342.435 -530.78)" fill="none" stroke="#fff" stroke-linecap="round" stroke-width="4"/>
      <path id="Caminho_449" data-name="Caminho 449" d="M390.192,793.158h46.593" transform="translate(-339.587 -549.128)" fill="none" stroke="#df7a46" stroke-linecap="round" stroke-width="4"/>
      <path id="Caminho_450" data-name="Caminho 450" d="M390.192,793.158H402.03" transform="translate(-339.587 -549.128)" fill="none" stroke="#fff" stroke-linecap="round" stroke-width="4"/>
      <path id="Caminho_451" data-name="Caminho 451" d="M572.364,734.41a2.784,2.784,0,1,0-2.784-2.784A2.784,2.784,0,0,0,572.364,734.41Z" transform="translate(-456.452 -507.229)" fill="#fff"/>
      <path id="Caminho_452" data-name="Caminho 452" d="M569.773,761.342a2.784,2.784,0,1,0-2.784-2.784A2.784,2.784,0,0,0,569.773,761.342Z" transform="translate(-454.764 -524.774)" fill="#fff"/>
      <path id="Caminho_453" data-name="Caminho 453" d="M566.882,790.738a2.784,2.784,0,1,0-2.784-2.784A2.784,2.784,0,0,0,566.882,790.738Z" transform="translate(-452.881 -543.924)" fill="#fff"/>
    </g>
  </g>
</svg>
