<svg xmlns="http://www.w3.org/2000/svg" xmlns:xlink="http://www.w3.org/1999/xlink" width="118" height="194" viewBox="0 0 118 194">
  <defs>
    <clipPath id="clip-path">
      <rect id="Retângulo_21904" data-name="Retângulo 21904" width="118" height="194" transform="translate(310 472)" fill="#fff"/>
    </clipPath>
  </defs>
  <g id="Ilustracao_Finalizacao" transform="translate(-310 -472)" clip-path="url(#clip-path)">
    <g id="Scenes05" transform="matrix(-0.951, 0.309, -0.309, -0.951, 555.999, 618.102)">
      <g id="Grupo_13" data-name="Grupo 13" transform="translate(0 0)">
        <path id="Caminho_375" data-name="Caminho 375" d="M82.5,0A82.5,82.5,0,1,1,0,82.5,82.5,82.5,0,0,1,82.5,0Z" transform="translate(17.957 2.906)" fill="none" stroke="#d1e8f7" stroke-width="1.916"/>
        <path id="Caminho_376" data-name="Caminho 376" d="M2.906,0A2.906,2.906,0,1,1,0,2.906,2.906,2.906,0,0,1,2.906,0Z" transform="translate(30.436 130.944)" fill="#febb94"/>
        <path id="Caminho_377" data-name="Caminho 377" d="M2.905,0A2.906,2.906,0,1,1,0,2.906,2.907,2.907,0,0,1,2.905,0Z" transform="translate(180.054 79.36)" fill="#5661ae"/>
        <path id="Caminho_378" data-name="Caminho 378" d="M2.906,0A2.906,2.906,0,1,1,0,2.906,2.906,2.906,0,0,1,2.906,0Z" transform="translate(100.937 0)" fill="#1c85e8"/>
        <path id="Caminho_379" data-name="Caminho 379" d="M61.544,0A61.544,61.544,0,1,1,0,61.544,61.544,61.544,0,0,1,61.544,0Z" transform="translate(40.826 23.32)" fill="none" stroke="#d1e8f7" stroke-width="1.43"/>
        <path id="Caminho_380" data-name="Caminho 380" d="M2.168,0A2.168,2.168,0,1,1,0,2.168,2.168,2.168,0,0,1,2.168,0Z" transform="translate(160.692 70.299)" fill="#febb94"/>
        <path id="Caminho_381" data-name="Caminho 381" d="M2.168,0A2.168,2.168,0,1,1,0,2.168,2.168,2.168,0,0,1,2.168,0Z" transform="translate(43.122 59.568)" fill="#5661ae"/>
        <path id="Caminho_382" data-name="Caminho 382" d="M2.168,0A2.168,2.168,0,1,1,0,2.168,2.168,2.168,0,0,1,2.168,0Z" transform="translate(72.635 137.779)" fill="#1c85e8"/>
        <path id="Caminho_393" data-name="Caminho 393" d="M30.963,0H1.546A1.516,1.516,0,0,0,.011,1.7L3.583,38.856a1.911,1.911,0,0,0,1.861,1.7H34.862a1.515,1.515,0,0,0,1.535-1.7L32.825,1.7A1.911,1.911,0,0,0,30.963,0Z" transform="translate(62.772 51.031)" fill="#febb94"/>
        <path id="Caminho_394" data-name="Caminho 394" d="M13.146,2.452c3.318,3.162,3.678,8.168.806,11.181s-7.89,2.893-11.208-.268S-.934,5.2,1.939,2.184,9.829-.71,13.146,2.452Z" transform="translate(73.576 69.077)" fill="none" stroke="#ef6a77" stroke-width="11.69"/>
        <path id="Caminho_395" data-name="Caminho 395" d="M15.855,7.909A8.9,8.9,0,0,0,7.186,0,7.06,7.06,0,0,0,.037,7.909a8.9,8.9,0,0,0,8.669,7.909" transform="translate(73.576 69.077)" fill="none" stroke="#fff" stroke-linecap="round" stroke-width="11.69"/>
        <path id="Caminho_396" data-name="Caminho 396" d="M0,0H6.052" transform="translate(77.139 62.878)" fill="none" stroke="#fff" stroke-linecap="round" stroke-width="5.984"/>
        <path id="Caminho_397" data-name="Caminho 397" d="M0,0H6.052" transform="translate(76.48 56.024)" fill="none" stroke="#fff" stroke-linecap="round" stroke-width="5.984"/>
        <path id="Caminho_398" data-name="Caminho 398" d="M0,0H12.508" transform="translate(73.586 59.49)" fill="none" stroke="#fff" stroke-linecap="round" stroke-width="5.984" opacity="0.4"/>
        <path id="Caminho_400" data-name="Caminho 400" d="M0,0,.925,9.623" transform="translate(66.241 29.174)" fill="none" stroke="#fff" stroke-linecap="round" stroke-width="11.69"/>
        <path id="Caminho_401" data-name="Caminho 401" d="M.648,6.741,0,0" transform="translate(72.38 29.174)" fill="none" stroke="#fff" stroke-linecap="round" stroke-width="11.69"/>
        <path id="Caminho_402" data-name="Caminho 402" d="M.427,4.439,0,0" transform="translate(78.519 29.174)" fill="none" stroke="#fff" stroke-linecap="round" stroke-width="11.69"/>
        <path id="Caminho_403" data-name="Caminho 403" d="M1.165,12.123,0,0" transform="translate(84.658 29.174)" fill="none" stroke="#fff" stroke-linecap="round" stroke-width="11.69"/>
        <path id="Caminho_404" data-name="Caminho 404" d="M.427,4.439,0,0" transform="translate(90.797 29.174)" fill="none" stroke="#fff" stroke-linecap="round" stroke-width="11.69"/>
        <path id="Caminho_405" data-name="Caminho 405" d="M1.114,11.588,0,0" transform="translate(96.936 29.174)" fill="none" stroke="#fff" stroke-linecap="round" stroke-width="11.69"/>
        <path id="Caminho_406" data-name="Caminho 406" d="M.463,4.811,0,0" transform="translate(103.075 29.174)" fill="none" stroke="#fff" stroke-linecap="round" stroke-width="11.69"/>
        <path id="Caminho_407" data-name="Caminho 407" d="M.246,2.563,0,0" transform="translate(109.214 29.174)" fill="none" stroke="#fff" stroke-linecap="round" stroke-width="11.69"/>
        <path id="Caminho_408" data-name="Caminho 408" d="M.925,9.623,0,0" transform="translate(115.353 29.174)" fill="none" stroke="#fff" stroke-linecap="round" stroke-width="11.69"/>
        <path id="Caminho_410" data-name="Caminho 410" d="M8.548,8.565l3.685-5.773a1.172,1.172,0,0,0-.349-1.613l-.6-.387a4.906,4.906,0,0,0-6.4.92L0,7.415Z" transform="translate(59.392 93.75)" fill="#ffccb3"/>
        <path id="Caminho_411" data-name="Caminho 411" d="M0,6.188S1.365,1.5,4.106,0A11.986,11.986,0,0,1,6.148,1.024L3.074,6.188" transform="translate(65.128 93.905)" fill="#fcba9f"/>
        <path id="Caminho_412" data-name="Caminho 412" d="M0,21.737l14.475,6.937A8.085,8.085,0,0,1,17.8,31.626l13.983,22a8.083,8.083,0,0,0,3.623,3.087l20.14,8.677L51.237,32.78l-.076-1.2s-5.327-13.8-18.383-18.808L11.9,0Z" transform="translate(2.085 57.287)" fill="#ffccb3"/>
        <path id="Caminho_413" data-name="Caminho 413" d="M5.126,20.647S11.973,3.557,22.152,3.975L15.653,0S-6.408,4.092,1.85,18.958Z" transform="translate(12.712 66.079)" fill="#fcba9f"/>
        <path id="Caminho_414" data-name="Caminho 414" d="M6.758,14.324S-.363,10.009.015,0L8.566,3.2Z" transform="translate(47.759 102.315)" fill="#fcba9f"/>
        <path id="Caminho_415" data-name="Caminho 415" d="M8.548,8.565l3.685-5.773a1.172,1.172,0,0,0-.349-1.613l-.6-.387a4.906,4.906,0,0,0-6.4.92L0,7.415Z" transform="translate(63.857 93.75)" fill="#ffccb3"/>
        <path id="Caminho_418" data-name="Caminho 418" d="M0,.011,12.245,0" transform="translate(65.444 139.179)" fill="none" stroke="#fff" stroke-linecap="round" stroke-width="11.999"/>
        <path id="Caminho_419" data-name="Caminho 419" d="M0,.023,25.305,0" transform="translate(64.939 133.555)" fill="none" stroke="#fff" stroke-linecap="round" stroke-width="11.999" opacity="0.4"/>
        <path id="Caminho_420" data-name="Caminho 420" d="M0,11.383l8.928,3.933,9.13,6.233c2.4,1.639,7.416,2.377,9.221.1,1.836-2.318-.226-6.9-2.454-8.848L16.388,5.43,12,0Z" transform="translate(41.246 88.863)" fill="#ffccb3"/>
        <path id="Caminho_421" data-name="Caminho 421" d="M0,5.452S1.205.8,4.331,0L7.645,2.8a3.086,3.086,0,0,1,.531,4.447h0a3.085,3.085,0,0,1-3.936.69Z" transform="translate(59.392 102.592)" fill="none" stroke="#ff967c" stroke-linecap="round" stroke-width="3"/>
        <path id="Caminho_422" data-name="Caminho 422" d="M17.109,31.164S15.379,18.79,30.436,11.7c0,0-10.816-9.922-14.987-11.59S-4.388,15.495,1.185,25.172C2.747,27.885,17.109,31.164,17.109,31.164Z" transform="translate(0 55.371)" fill="#1c85e8"/>
        <path id="Caminho_423" data-name="Caminho 423" d="M9.386,1.189S3.517,1.069,1.474,0L0,1.719H9.047Z" transform="translate(64.775 98.374)" fill="#fcba9f"/>
        <path id="Caminho_424" data-name="Caminho 424" d="M46.938,0H5.21A5.126,5.126,0,0,0,.023,5.692l5.6,63.229a6.345,6.345,0,0,0,6.2,5.691H53.545a5.125,5.125,0,0,0,5.187-5.691l-5.6-63.229A6.345,6.345,0,0,0,46.938,0Z" transform="translate(135.281 100.039)" fill="#febb94"/>
        <path id="Caminho_425" data-name="Caminho 425" d="M26.378,4.89c6.609,6.321,7.273,16.349,1.488,22.4s-15.833,5.826-22.44-.5-7.273-16.349-1.488-22.4S19.772-1.431,26.378,4.89Z" transform="translate(149.867 134.057)" fill="#fff"/>
        <path id="Caminho_426" data-name="Caminho 426" d="M0,9.554,10.475,0a19,19,0,0,1,3.094,4.392Z" transform="translate(166.654 139.852)" fill="#fff"/>
        <path id="Caminho_427" data-name="Caminho 427" d="M1.5,26.264.009,9.455A1.577,1.577,0,0,1,.8,7.913L15.013,0S23.453,23.545,1.5,26.264Z" transform="translate(165.853 141.493)" fill="#532e6c"/>
        <path id="Caminho_428" data-name="Caminho 428" d="M0,0H17.287" transform="translate(145.105 122.418)" fill="none" stroke="#fff" stroke-linecap="round" stroke-width="12"/>
        <path id="Caminho_429" data-name="Caminho 429" d="M0,0H17.287" transform="translate(143.84 108.126)" fill="none" stroke="#fff" stroke-linecap="round" stroke-width="12"/>
        <path id="Caminho_430" data-name="Caminho 430" d="M0,0H35.724" transform="translate(144.479 115.352)" fill="none" stroke="#fff" stroke-linecap="round" stroke-width="12" opacity="0.4"/>
        <path id="Caminho_434" data-name="Caminho 434" d="M22.484,25.229s-.49-2.6-2.806-2.6c-1.511,0-8.059,1.978-12.43,3.354A6.086,6.086,0,0,1,.6,23.892l-.266-.345a1.6,1.6,0,0,1,.35-2.283c3.7-2.583,13.693-9.6,14.971-10.873C17.226,8.817,25.985,0,25.985,0Z" transform="translate(101.609 15.307)" fill="#ffccb3"/>
        <path id="Caminho_435" data-name="Caminho 435" d="M4.008,8.091S8.741,1.684,8.04.282,0,3.167,0,3.167,5.923,1.644,4.008,8.091Z" transform="translate(119.553 35.048)" fill="#fcba9f"/>
        <path id="Caminho_443" data-name="Caminho 443" d="M5.769,0S7.4,2.077,6.843,3.119a6.1,6.1,0,0,1-4.5,2.355A5.82,5.82,0,0,1,.384,4.806a.716.716,0,0,1-.06-1.234Z" transform="translate(102.37 33.613)" fill="none" stroke="#ff967c" stroke-linecap="round" stroke-width="3"/>
        <path id="Caminho_444" data-name="Caminho 444" d="M51.293,0H1.465A1.437,1.437,0,0,0,.011,1.61L1.967,21.964a1.811,1.811,0,0,0,1.764,1.609H53.559a1.437,1.437,0,0,0,1.455-1.609L53.057,1.61A1.812,1.812,0,0,0,51.293,0Z" transform="translate(28.721 8.286)" fill="#febb94"/>
        <path id="Caminho_445" data-name="Caminho 445" d="M0,0H30.751" transform="translate(34.864 26.551)" fill="none" stroke="#ef6a77" stroke-linecap="round" stroke-width="11.69"/>
        <path id="Caminho_446" data-name="Caminho 446" d="M0,0H21.369" transform="translate(34.864 26.551)" fill="none" stroke="#fff" stroke-linecap="round" stroke-width="11.69"/>
        <path id="Caminho_447" data-name="Caminho 447" d="M0,0H30.751" transform="translate(34.404 20.072)" fill="none" stroke="#ef6a77" stroke-linecap="round" stroke-width="11.69"/>
        <path id="Caminho_448" data-name="Caminho 448" d="M0,0H12.776" transform="translate(34.404 20.072)" fill="none" stroke="#fff" stroke-linecap="round" stroke-width="11.69"/>
        <path id="Caminho_449" data-name="Caminho 449" d="M0,0H30.751" transform="translate(33.398 13.594)" fill="none" stroke="#ef6a77" stroke-linecap="round" stroke-width="11.69"/>
        <path id="Caminho_450" data-name="Caminho 450" d="M0,0H7.813" transform="translate(33.398 13.594)" fill="none" stroke="#fff" stroke-linecap="round" stroke-width="11.69"/>
        <path id="Caminho_451" data-name="Caminho 451" d="M1.837,0A1.837,1.837,0,1,1,0,1.837,1.837,1.837,0,0,1,1.837,0Z" transform="translate(74.663 24.714)" fill="#fff"/>
        <path id="Caminho_452" data-name="Caminho 452" d="M1.837,0A1.837,1.837,0,1,1,0,1.837,1.837,1.837,0,0,1,1.837,0Z" transform="translate(74.067 18.519)" fill="#fff"/>
        <path id="Caminho_453" data-name="Caminho 453" d="M1.837,0A1.837,1.837,0,1,1,0,1.838,1.838,1.838,0,0,1,1.837,0Z" transform="translate(73.401 11.756)" fill="#fff"/>
      </g>
    </g>
  </g>
</svg>
