<svg xmlns="http://www.w3.org/2000/svg" width="313.852" height="225.167" viewBox="0 0 313.852 225.167">
  <g id="Ilustracao_02" transform="translate(-195.69 910.982)">
    <path id="Caminho_236" data-name="Caminho 236" d="M309,166.452h10.186" transform="translate(-84.638 -1073.718)" fill="none" stroke="#fff" stroke-linecap="round" stroke-width="7.433"/>
    <path id="Caminho_237" data-name="Caminho 237" d="M955.6,166H923.828a3.877,3.877,0,0,0-3.877,3.877v34.4a3.877,3.877,0,0,0,3.877,3.877H955.6a3.877,3.877,0,0,0,3.877-3.877v-34.4A3.877,3.877,0,0,0,955.6,166Z" transform="translate(-505.17 -1073.406)" fill="#603f7d"/>
    <path id="Caminho_238" data-name="Caminho 238" d="M935.4,267.665h10.186" transform="translate(-515.803 -1143.385)" fill="none" stroke="#fff" stroke-linecap="round" stroke-width="7.433"/>
    <path id="Caminho_239" data-name="Caminho 239" d="M935.4,282.918h21.05" transform="translate(-515.803 -1153.884)" fill="none" stroke="#fff" stroke-linecap="round" stroke-width="7.433" opacity="0.4"/>
    <path id="Caminho_240" data-name="Caminho 240" d="M936.123,204.346h5.268a2.217,2.217,0,0,1,1.914,1.1l5.1,8.722a2.217,2.217,0,0,0,3.885-.1l3.153-6.123a2.214,2.214,0,0,1,1.946-1.2l9.253-.1" transform="translate(-516.301 -1099.801)" fill="none" stroke="#fff" stroke-linecap="round" stroke-width="4"/>
    <path id="Caminho_241" data-name="Caminho 241" d="M936.123,205.336h2.591a2.215,2.215,0,0,0,1.562-.644L952.251,192.8a2.216,2.216,0,0,1,1.562-.644h3.505a2.214,2.214,0,0,1,2.16,1.716l1.842,7.932a2.214,2.214,0,0,0,2.157,1.716h3.163" transform="translate(-516.301 -1091.41)" fill="none" stroke="#fff" stroke-linecap="round" stroke-width="4" opacity="0.4"/>
    <path id="Caminho_242" data-name="Caminho 242" d="M1080.208,811.347s-1.162,11.716-21.349,11.716H1035.19l31.4-24.411Z" transform="translate(-584.492 -1508.878)" fill="#603f7d"/>
    <path id="Caminho_243" data-name="Caminho 243" d="M1014.808,403.75l55.581,12.315a4.134,4.134,0,0,1,1.39.577c1.537,1.014,4.283,3.981,3.756,12.091-.7,10.811-13.76,110.792-13.76,110.792l-53.365-46.2Z" transform="translate(-566.059 -1237.057)" fill="#603f7d"/>
    <path id="Caminho_244" data-name="Caminho 244" d="M995.746,402.731l55.985,12.405s4.791,1.744,4.74,12.578-13.76,110.792-13.76,110.792l-53.366-46.2Z" transform="translate(-552.936 -1236.355)" fill="#ef854f"/>
    <path id="Caminho_245" data-name="Caminho 245" d="M1012.8,397.592s.985,14.271,1.418,16.532c.76,3.961,18.165-4.361,16.887-7.888-.661-1.83-3.675-19.267-3.675-19.267Z" transform="translate(-569.081 -1225.506)" fill="#bc775c"/>
    <path id="Caminho_246" data-name="Caminho 246" d="M1014.39,440.072l-1.49-14.61h8.82Z" transform="translate(-569.149 -1252.002)" fill="#93523e" stroke="#93523e" stroke-width="1"/>
    <path id="Caminho_247" data-name="Caminho 247" d="M1007.559,339.811c.673-7.185-7.477-5.636-8.87-5.312s-3.575-10.323-3.575-10.323-16.08-2.863-19.525-.007c0,0-2.161,13.42-2.51,22.014s2.062,12.443,5.213,12.737a19.842,19.842,0,0,0,12.614-2.009,21.725,21.725,0,0,0,8.247-9.569l.159-.072S1006.925,346.6,1007.559,339.811Z" transform="translate(-541.716 -1181.406)" fill="#bc775c"/>
    <path id="Caminho_248" data-name="Caminho 248" d="M978.474,395.159c1.386-.878,4.89-.8,6.312-.523,2.711.531,3.543.883,3.848,1.513s.365,1.326-.767.88a15.73,15.73,0,0,0-5.614-1.2,18.888,18.888,0,0,0-2.9.53C978.251,396.687,977.225,395.95,978.474,395.159Z" transform="translate(-545.058 -1230.653)" fill="#493212"/>
    <path id="Caminho_249" data-name="Caminho 249" d="M968.213,304.371s.914-8.04,1.03-10.266c.168-3.2,2.508-2.172,4.184.074,2.412,3.335,7.012,3.124,10.88,2.078,3.394-.828,3.444-.633,3.752,2.952s1.468,10.241,2.556,8.648c1.353-2.085,2.275-4.037,4.654-5.306,3.232-1.725,6.548,1.457,5.769,3.914s-2.6,5.286-6.673,7.609l1.992,9.229c10.089-13.994,13.888-33.214.205-37.664-5.111-1.663-10.419-12.438-20.311-9.986-7.007,1.737-7.007,7.354-7.505,12.239C959.33,288.3,968.213,304.371,968.213,304.371Z" transform="translate(-535.777 -1148.635)" fill="#493212"/>
    <path id="Caminho_250" data-name="Caminho 250" d="M1009.965,372.477c.193-1.019-.193-1.947-.86-2.073s-1.365.6-1.555,1.616.19,1.947.857,2.073S1009.772,373.5,1009.965,372.477Z" transform="translate(-565.432 -1214.093)" fill="#080b09"/>
    <path id="Caminho_251" data-name="Caminho 251" d="M980.492,366.705c.193-1.019-.192-1.947-.859-2.073s-1.365.6-1.558,1.616.192,1.947.859,2.073S980.3,367.724,980.492,366.705Z" transform="translate(-545.144 -1210.121)" fill="#080b09"/>
    <path id="Caminho_252" data-name="Caminho 252" d="M987.255,379.778s1.194,2.151-.442,2.23c-1.565.022-2.451.966-.835,2.252" transform="translate(-550.026 -1220.556)" fill="none" stroke="#93523e" stroke-linecap="round" stroke-width="1.515"/>
    <path id="Caminho_253" data-name="Caminho 253" d="M987.974,399.911c.972.042,2.916.127,4.211.205a.414.414,0,0,1,.215.072.418.418,0,0,1,.184.4.407.407,0,0,1-.084.212c-1.123,1.309-3.731,3.69-4.912-.348a.374.374,0,0,1-.036-.2.381.381,0,0,1,.421-.346Z" transform="translate(-551.701 -1234.412)" fill="#fff"/>
    <path id="Caminho_254" data-name="Caminho 254" d="M1009.808,359.435l-.085.186a1.133,1.133,0,0,1-1.443.687l-4.812-1.835a1,1,0,0,1-.651-1.179,1.083,1.083,0,0,1,.178-.417,1.121,1.121,0,0,1,.334-.308,1.1,1.1,0,0,1,.43-.143,1.078,1.078,0,0,1,.452.046l4.9,1.649a1.045,1.045,0,0,1,.368.19,1.022,1.022,0,0,1,.262.319,1.035,1.035,0,0,1,.119.4A1.02,1.02,0,0,1,1009.808,359.435Z" transform="translate(-562.189 -1204.477)" fill="#080b09"/>
    <path id="Caminho_255" data-name="Caminho 255" d="M971.249,352.241l5.143-.492a1.081,1.081,0,0,1,1.17,1.118.995.995,0,0,1-.9,1l-5.1.693a1.134,1.134,0,0,1-1.25-1l-.042-.2a1.036,1.036,0,0,1,.982-1.121Z" transform="translate(-539.801 -1201.26)" fill="#080b09"/>
    <path id="Caminho_256" data-name="Caminho 256" d="M261.36,811.347s1.162,11.716,21.351,11.716h23.667l-31.4-24.411Z" transform="translate(-51.843 -1508.878)" fill="#603f7d"/>
    <path id="Caminho_257" data-name="Caminho 257" d="M277.794,403.75l-55.581,12.315a4.146,4.146,0,0,0-1.39.577c-1.537,1.014-4.284,3.981-3.756,12.091.7,10.811,13.76,110.792,13.76,110.792l53.366-46.2Z" transform="translate(-21.31 -1237.057)" fill="#603f7d"/>
    <path id="Caminho_258" data-name="Caminho 258" d="M297,402.731l-55.988,12.405s-4.789,1.744-4.739,12.578,13.76,110.792,13.76,110.792l53.366-46.2Z" transform="translate(-34.575 -1236.355)" fill="#ef854f"/>
    <path id="Caminho_259" data-name="Caminho 259" d="M465.617,568.211l5.432,7.6a9.438,9.438,0,0,0,6.687,3.9l35.559,3.753.541,8.906L470.445,595a14.965,14.965,0,0,1-12.78-5.829l-11.629-15.161Z" transform="translate(-178.961 -1350.26)" fill="#ffccb3"/>
    <path id="Caminho_260" data-name="Caminho 260" d="M475.556,579.754s-11.179,2.952-14.447,12.172l-5.57-8.233,18.816-5.62Z" transform="translate(-185.502 -1357.048)" fill="#ff967c"/>
    <path id="Caminho_261" data-name="Caminho 261" d="M430.549,476.195s10.877,3.17,13.906,6.831c2.357,2.849,6.363,14.684,9.5,20.384.759,1.378,1.835,1.5,1.036,2.856-3.309,5.6-6.144,13.764-11.611,15.533C425.084,519.036,430.549,476.195,430.549,476.195Z" transform="translate(-167.775 -1286.922)" fill="#603f7d"/>
    <path id="Caminho_262" data-name="Caminho 262" d="M468.944,528.231s7.259,13.165,8.362,20.24c0,0-2.585,6.56-4.409,7.894-2.847,2.082-4.41.912-4.41.912Z" transform="translate(-194.415 -1322.74)" fill="#492b63"/>
    <path id="Caminho_263" data-name="Caminho 263" d="M308.1,310.63a18.166,18.166,0,1,0-18.166-18.166A18.166,18.166,0,0,0,308.1,310.63Z" transform="translate(-71.513 -1147.951)" fill="#080b09"/>
    <path id="Caminho_264" data-name="Caminho 264" d="M339.752,301.045s-23.445-4.14-26.2,24.29a9.753,9.753,0,0,0,5.729,2.8s2.746-27.585,21.839-25.454Z" transform="translate(-87.772 -1166.217)" fill="#febb94"/>
    <path id="Caminho_265" data-name="Caminho 265" d="M378.516,289.622s-2.7-1.4-.664-3.013a10.973,10.973,0,0,0,2.987-3.944,2.9,2.9,0,0,1,1.221,3.764c-1.041,2.57-1.693,2.714-1.693,2.714Z" transform="translate(-131.506 -1153.71)" fill="#febb94"/>
    <path id="Caminho_266" data-name="Caminho 266" d="M365.087,293.892s-.742,2.945-2.78,1.339a10.976,10.976,0,0,0-4.525-2,2.9,2.9,0,0,1,3.383-2.053c2.74.423,3.03,1.024,3.03,1.024Z" transform="translate(-118.214 -1159.526)" fill="#febb94"/>
    <path id="Caminho_267" data-name="Caminho 267" d="M361.078,412.3l2.87,10.679s21.912,24.861,3.726,33.9c-3.2,1.589-18.474-10.623-21.342-13.331s-1.68-18.7-1.68-18.7L351.239,402Z" transform="translate(-109.007 -1235.851)" fill="#ffccb3"/>
    <path id="Caminho_268" data-name="Caminho 268" d="M377.176,543.748s10.7,6.728,21.462.485c0,0-1.658,9.269-8.179,12.252S377.176,543.748,377.176,543.748Z" transform="translate(-131.563 -1333.421)" fill="#492b63"/>
    <path id="Caminho_269" data-name="Caminho 269" d="M387,432.776l-5.755-3.764,8.521,14.331Z" transform="translate(-134.362 -1254.445)" fill="#ff967c"/>
    <path id="Caminho_270" data-name="Caminho 270" d="M378.395,334.729s3.044,16.016-2.4,25.353c-3.548,6.089-8.421,6.261-17.926-.952-8.715-6.614-10.491-10.568-10.491-10.568l2.13-16.65S374.906,320.285,378.395,334.729Z" transform="translate(-111.193 -1184.563)" fill="#ffccb3"/>
    <path id="Caminho_271" data-name="Caminho 271" d="M332.442,468.452s10.774,2.661,12.512,3.886,3.967,11.946,7.1,16.91,7.4,12.81,1.912,21.882a33.922,33.922,0,0,0-4.995,17.754l4.155,22.774H306.847c-1.934.177-2.963-4.724-2.905-6.666.189-6.4.8-8.312.387-18.465-.554-13.76-5.693-52.795-5.693-52.795l15.255-5.665c-.469,21.476,12.008,16.789,22.507,36.325C344.991,487.886,332.442,468.452,332.442,468.452Z" transform="translate(-77.501 -1281.328)" fill="#603f7d"/>
    <path id="Caminho_272" data-name="Caminho 272" d="M313.1,521.934a13.441,13.441,0,0,1,.476,9.54c-2.011,5.42-4.223,18.628,5.577,19.461,12.012,1.02,6.969,3.2,1.531,4.866s-3.179,1.533-2.831,7.251c.247,4.069-10.693,12.332-9.685,9.178C313.577,555.309,295.2,534.4,313.1,521.934Z" transform="translate(-81.927 -1318.406)" fill="#492b63"/>
    <path id="Caminho_273" data-name="Caminho 273" d="M414.472,417.317l5.765.961c-.022.049-.048.106-.08.171a4.148,4.148,0,0,1-.488.763,2.622,2.622,0,0,1-2.141,1.053,3.2,3.2,0,0,1-2.7-1.7,3.448,3.448,0,0,1-.323-1C414.488,417.47,414.478,417.385,414.472,417.317Z" transform="translate(-157.235 -1246.395)" fill="#e56441" stroke="#e56441" stroke-width="1"/>
    <path id="Caminho_274" data-name="Caminho 274" d="M439.906,386.849c.646-.032,1.132-.829,1.085-1.781s-.608-1.7-1.254-1.666-1.131.829-1.085,1.781S439.26,386.881,439.906,386.849Z" transform="translate(-173.876 -1223.051)" fill="#080b09"/>
    <path id="Caminho_275" data-name="Caminho 275" d="M409.314,388.786c.646-.032,1.131-.829,1.085-1.781s-.608-1.7-1.254-1.666-1.132.829-1.085,1.781S408.668,388.818,409.314,388.786Z" transform="translate(-152.819 -1224.383)" fill="#080b09"/>
    <path id="Caminho_276" data-name="Caminho 276" d="M437.741,373.577l-4.849.317a.344.344,0,0,1-.334-.3,1.1,1.1,0,0,1,1.226-1.017l4.01.442C438.112,373,438.139,373.557,437.741,373.577Z" transform="translate(-169.684 -1215.592)" fill="#080b09"/>
    <path id="Caminho_277" data-name="Caminho 277" d="M395.958,374.731l6.464.082a1.411,1.411,0,0,0-1.657-1.275l-4.906.8C395.7,374.345,395.72,374.743,395.958,374.731Z" transform="translate(-144.352 -1216.246)" fill="#080b09"/>
    <path id="Caminho_278" data-name="Caminho 278" d="M429.624,388.013l2.074,4.592-1.446,1.322" transform="translate(-167.664 -1226.224)" fill="none" stroke="#e56441" stroke-linecap="round" stroke-width="1.667"/>
    <path id="Caminho_279" data-name="Caminho 279" d="M360.88,320.646c-3.387.023-4.973-.762-8.525.91a5.194,5.194,0,0,0-2.825,2.348c-.689,2.6-.247,6.212-4.83,6.111,0,0,1.482-4.934-1.666-5.564-5.347-1.07-4.487,7.581-1.175,9.692,2.251,1.434-1.616,11.781-4.493,15.584-9.841-23-6.425-25.313-3.867-31.316,4.348-10.2,8.157-13.306,18.449-14.993,0,0,13.635.368,17.251,12.365,3.09,10.255-1.548,14.187-1.548,14.187s.144-7.631-.611-8.413C366.046,320.527,365.241,320.616,360.88,320.646Z" transform="translate(-99.628 -1167.995)" fill="#080b09"/>
    <path id="Caminho_280" data-name="Caminho 280" d="M873,756.978l-38.587,6.855,7.6,30.545h24.717S878.477,769.123,873,756.978Z" transform="translate(-446.293 -1480.194)" fill="#ffccb3"/>
    <path id="Caminho_281" data-name="Caminho 281" d="M879.178,761.82s5.946,1.831,8.4,11.53-.224,23.193-.224,23.193h3.824s13.635-16.012,3.6-36.419Z" transform="translate(-477.105 -1482.359)" fill="#ff967c"/>
    <path id="Caminho_282" data-name="Caminho 282" d="M927.11,722.124s2.973,22.2-1.465,32.788c-3.778,9-9.612,14.1-16.7,14.237H854.623s-.086-29.017-23-33.974C831.624,735.175,907.035,714.172,927.11,722.124Z" transform="translate(-444.372 -1454.965)" fill="#1f2d49"/>
    <path id="Caminho_283" data-name="Caminho 283" d="M1032.48,741.229l-49.292,1.623.524-3.443,9.606-1.111h39.093Z" transform="translate(-548.697 -1467.335)" fill="#0d1b33"/>
    <path id="Caminho_284" data-name="Caminho 284" d="M965.021,459.129c-.424,1.8-.533-4.562-1.39-4.3-3.924,1.216-15.089,4.7-17.464,5.694-2.893,1.21-3.085,6.051-3.278,9.48-.136,2.4,3.44,36.127,3.618,58.975.038,4.881-4.9,10.595-5.486,13.308a10.93,10.93,0,0,0-.26,2.224,1.97,1.97,0,0,0,1.955,1.981l58.861.55s2.608.379,1.979-2.6a58.12,58.12,0,0,1-1.022-9.878c-.586-23.731-.7-63.473-.954-65.355-.387-2.824,2.646-5.255-.639-6.677l-18.23-7.283s-3.341,2.438-3.824,2.684C969.73,462.619,965.021,459.129,965.021,459.129Z" transform="translate(-519.494 -1272.212)" fill="#febb94"/>
    <path id="Caminho_285" data-name="Caminho 285" d="M1020.073,476.407a43.942,43.942,0,0,0-1.119,15.029c.96,7.384-2.833,17.487-3.618,25.595s3.06,18.729,2.459,25.535,1.583,19.351,1.583,19.351" transform="translate(-570.752 -1287.069)" fill="none" stroke="#ff967c" stroke-width="3"/>
    <path id="Caminho_286" data-name="Caminho 286" d="M498.193,738.819l38.587,6.855-7.6,30.545H504.468S492.719,750.964,498.193,738.819Z" transform="translate(-213.862 -1467.694)" fill="#ffccb3"/>
    <path id="Caminho_287" data-name="Caminho 287" d="M537.849,743.661s-5.947,1.832-8.4,11.531.224,23.193.224,23.193h-3.824s-13.635-16.012-3.6-36.419Z" transform="translate(-228.881 -1469.861)" fill="#ff967c"/>
    <path id="Caminho_288" data-name="Caminho 288" d="M304.512,705.827a62.863,62.863,0,0,0-6.025,29.76c.773,16.074,9.567,21.488,23.469,21.488l56.186-5.66s.086-29.017,23-33.974c0,0-25.511-18.57-51.316-13.9C337.16,705.827,329.2,708.613,304.512,705.827Z" transform="translate(-77.354 -1442.891)" fill="#1f2d49"/>
    <path id="Caminho_289" data-name="Caminho 289" d="M311.863,685.043s36.389,3.8,49.8-6.22l-.6,8.367s-22.678,12.6-48.667,5.509C312.4,692.7,308.5,689.962,311.863,685.043Z" transform="translate(-85.666 -1426.397)" fill="#492b63"/>
    <path id="Caminho_290" data-name="Caminho 290" d="M669.239,654.256s10.81-2.263,15.287-1.227c4.562.943,14.164,3.345,12.445,10.384-1.19,5.026-6.437,3.035-6.437,3.035s1.366,2.007-.664,2.923c-1.238.514-9.225-3.866-9.225-3.866-5.33,1.714-12.285-1.906-12.285-1.906Z" transform="translate(-331.992 -1408.456)" fill="#ffccb3"/>
    <path id="Caminho_291" data-name="Caminho 291" d="M720.531,688.088l5.824,2.684" transform="translate(-367.903 -1432.775)" fill="none" stroke="#ff967c" stroke-linecap="round" stroke-linejoin="round" stroke-width="2.893"/>
    <path id="Caminho_292" data-name="Caminho 292" d="M724.71,673.392c1.459.287,8.027,3.385,8.027,3.385" transform="translate(-370.78 -1422.659)" fill="none" stroke="#ff967c" stroke-linecap="round" stroke-linejoin="round" stroke-width="2.893"/>
    <path id="Caminho_293" data-name="Caminho 293" d="M727.332,662.251a30.077,30.077,0,0,1,8.3,3.462" transform="translate(-372.585 -1414.99)" fill="none" stroke="#ff967c" stroke-linecap="round" stroke-linejoin="round" stroke-width="2.893"/>
    <path id="Caminho_294" data-name="Caminho 294" d="M409.851,545.3H527.174l59.373,97.713h-225.2Z" transform="translate(-120.664 -1334.493)" fill="#fff"/>
    <path id="Caminho_295" data-name="Caminho 295" d="M823.424,678.98l3.933,23.813L849.2,717.5l36.57-3.951-8.984-10.751Z" transform="translate(-438.727 -1426.505)" fill="#ef854f"/>
    <path id="Caminho_296" data-name="Caminho 296" d="M755.982,603.127l16.374,30.193,24.384,23.133L777,626.768Z" transform="translate(-392.305 -1374.294)" fill="#fff"/>
    <path id="Caminho_297" data-name="Caminho 297" d="M753.035,603.127,769.41,633.32l-1.579,1.215L751.7,603.942Z" transform="translate(-389.359 -1374.294)" fill="#603f7d"/>
    <path id="Caminho_298" data-name="Caminho 298" d="M805.033,700l24.384,23.133v1.481l-25.963-23.4Z" transform="translate(-424.982 -1440.975)" fill="#603f7d"/>
    <path id="Caminho_299" data-name="Caminho 299" d="M886.757,762.739l33.626-6.146v-1.206l-33.626,5.871Z" transform="translate(-482.321 -1479.098)" fill="#603f7d"/>
    <path id="Caminho_300" data-name="Caminho 300" d="M876.789,693.465l-21.906-28.038-31.459,4.224,19.739,29.685Z" transform="translate(-438.727 -1417.176)" fill="#e7efff"/>
    <path id="Caminho_301" data-name="Caminho 301" d="M283.5,510.053l-5.078,29.2a2.9,2.9,0,0,1-3.2,2.378s-14.31-.941-19.074-1.338c-1.122-.094-4.171-2.859-3.239-7.415.855-6.223,4.857-20.753,7.389-28.822,1.179-4.015,13.784-1.612,13.784-1.612Z" transform="translate(-45.911 -1304.499)" fill="#603f7d"/>
    <path id="Caminho_302" data-name="Caminho 302" d="M286.8,507.426a12.015,12.015,0,1,0-12.015-12.015A12.015,12.015,0,0,0,286.8,507.426Z" transform="translate(-61.084 -1291.879)" fill="#603f7d"/>
    <path id="Caminho_303" data-name="Caminho 303" d="M262.314,625.519l.2-2.328,17.815,2.029-.276,1.981-1.516,12.492-17.322-1.868Z" transform="translate(-51.742 -1388.104)" fill="#ffccb3"/>
    <path id="Caminho_304" data-name="Caminho 304" d="M265.03,623.127l17.729,2.049-.276,1.981c-4.028-.445-13.06-1.2-17.736-1.682Z" transform="translate(-54.176 -1388.06)" fill="#ff967c"/>
    <path id="Caminho_305" data-name="Caminho 305" d="M269.519,661.076a8.722,8.722,0,1,0-8.722-8.722A8.722,8.722,0,0,0,269.519,661.076Z" transform="translate(-51.456 -1402.175)" fill="#ffccb3"/>
    <path id="Caminho_306" data-name="Caminho 306" d="M287.653,624.91,336.876,601.8s2.953-10.5-.258-8.754c-3.291,1.781-55.731,15.957-55.731,15.957Z" transform="translate(-65.285 -1367.222)" fill="#ffccb3"/>
    <path id="Caminho_307" data-name="Caminho 307" d="M500.144,532.616l-20.928,3.656a1.655,1.655,0,0,1-2-2.091l6.435-36.889a3.838,3.838,0,0,1,2.88-2.944l20.928-3.656a1.655,1.655,0,0,1,2,2.091l-6.435,36.889A3.838,3.838,0,0,1,500.144,532.616Z" transform="translate(-200.395 -1296.876)" fill="#d47241"/>
    <path id="Caminho_308" data-name="Caminho 308" d="M503.157,532.089l-20.928,3.656a1.655,1.655,0,0,1-2-2.091l6.435-36.889a3.838,3.838,0,0,1,2.88-2.944l20.928-3.657a1.655,1.655,0,0,1,2,2.091l-6.435,36.889A3.839,3.839,0,0,1,503.157,532.089Z" transform="translate(-202.469 -1296.514)" fill="#ef854f"/>
    <path id="Caminho_309" data-name="Caminho 309" d="M450.171,563.463l2.43,7.921s10.066-2.414,12.22-3.471c4.2-2.159,8.715-5.071,9.244-6.178a15.529,15.529,0,0,0,1.625-8.685,2.2,2.2,0,0,0-3.154-1.833l-8.811,4.4s-1.147-1.938.007-3.479c.743-1.017-.4-2.954-.914-3.549a1.491,1.491,0,0,0-1.517-.005c-.41.524.154,2.344-.712,3.5-1.474,1.849-.165,2.652-3.959,5.8C453.629,560.359,450.14,563.387,450.171,563.463Z" transform="translate(-181.808 -1336.608)" fill="#ffccb3"/>
    <path id="Caminho_310" data-name="Caminho 310" d="M504.848,567.455a62.28,62.28,0,0,0,7.62-3.822" transform="translate(-219.443 -1347.108)" fill="none" stroke="#ff967c" stroke-linecap="round" stroke-linejoin="round" stroke-width="2.099"/>
    <path id="Caminho_311" data-name="Caminho 311" d="M503.791,578.625c2.018-.734,7.346-3.622,7.346-3.622" transform="translate(-218.715 -1354.935)" fill="none" stroke="#ff967c" stroke-linecap="round" stroke-linejoin="round" stroke-width="2.099"/>
    <path id="Caminho_312" data-name="Caminho 312" d="M507.692,591.025c1.33-.454,5.286-2.335,5.286-2.335" transform="translate(-221.401 -1364.356)" fill="none" stroke="#ff967c" stroke-linecap="round" stroke-linejoin="round" stroke-width="2.099"/>
    <path id="Caminho_313" data-name="Caminho 313" d="M263.141,620.141a10.005,10.005,0,0,0,.119,5.265s8.571,4.151,17.626,2.066a4.178,4.178,0,0,0,1.3-4.338Z" transform="translate(-52.866 -1386.005)" fill="#492b63"/>
    <path id="Caminho_314" data-name="Caminho 314" d="M1077.726,520.523s-2.64,14.447-1,28.576c1.026,8.841,6.664,17.916,6.592,22.135-.115,6.832-7.926,9.726-7.948,13.682-.015,2.34,6.308.884,9.1-.025,6.281-2.045,10.407.733,10.407.733l-1.674-59.938Z" transform="translate(-612.149 -1317.435)" fill="#ff967c"/>
    <path id="Caminho_315" data-name="Caminho 315" d="M1099.643,499.122c-5.794-7.252-8.393-3.779-10.428-3.6,0,0-6.894,1.284-6.352,7.114.573,6.169,10.716,47.279,10.716,47.279l21.29-1.6-1.01-5.669-2.079-11.676-2.216-12.484-.2-1.486-2.491-16.424S1102.645,503,1099.643,499.122Z" transform="translate(-617.285 -1299.547)" fill="#febb94"/>
    <path id="Caminho_316" data-name="Caminho 316" d="M1100.9,500.217a12.026,12.026,0,1,0-16.541-3.957A12.028,12.028,0,0,0,1100.9,500.217Z" transform="translate(-617.112 -1288.123)" fill="#febb94"/>
    <path id="Caminho_317" data-name="Caminho 317" d="M941.215,677.695l-13.423,1-3.173,7.484,1.084,9.238a4.757,4.757,0,0,0,2.549-4.209c.239-3.268,10.925-.95,13.719-4.539" transform="translate(-508.383 -1425.621)" fill="#bc775c"/>
    <path id="Caminho_318" data-name="Caminho 318" d="M1024.906,638.854l-52.079,9.817a1.3,1.3,0,0,0-1,1.423l1.261,9.91a1.929,1.929,0,0,0,1.984,1.662l53.645-2.1Z" transform="translate(-540.872 -1398.885)" fill="#febb94"/>
    <path id="Caminho_319" data-name="Caminho 319" d="M1128.5,658.5a10.656,10.656,0,1,0-10.656-10.656A10.656,10.656,0,0,0,1128.5,658.5Z" transform="translate(-641.382 -1397.739)" fill="#febb94"/>
    <path id="Caminho_320" data-name="Caminho 320" d="M889.845,490.106c1.739-8.584-2.35-8.363-3.711-9.728,0,0-5.105-4.21-9-.285-4.118,4.151-27.722,36.4-27.722,36.4l14.769,13.583,2.776-3.313,7.191-8.577,7.692-9.166.956-1.044,10.376-11.752S888.862,494.625,889.845,490.106Z" transform="translate(-456.619 -1288.453)" fill="#febb94"/>
    <path id="Caminho_321" data-name="Caminho 321" d="M950.106,487.575a11.35,11.35,0,1,0-14.367,7.158A11.349,11.349,0,0,0,950.106,487.575Z" transform="translate(-510.704 -1284.459)" fill="#febb94"/>
    <path id="Caminho_322" data-name="Caminho 322" d="M920.442,550.271c-.441-4.771-2.024-11.918-2.024-11.918s-1.366-.126-5.583,9.295c-3.122,7.06-6.744,14.256-7.344,20.344l7.191-8.577Z" transform="translate(-495.217 -1329.708)" fill="#ff967c"/>
    <path id="Caminho_323" data-name="Caminho 323" d="M826.719,395.3c-.769-7.259,1.206-7.611,1.233-11.547.014-3.846,5.821-10.967,3.052-10.823s-4.715,2.791-4.715,2.791c-.41-3.45.283-9.192-3.247-11.358s-4.362-1.118-7.238-.256c-7.676,2.357-3.391,12.514-3.313,15.732.07,2.026,3.632,9.6,3.794,11l1.135,5.389Z" transform="translate(-430.333 -1209.062)" fill="#bc775c"/>
    <path id="Caminho_324" data-name="Caminho 324" d="M844.574,376.712l-1.05-10.421Z" transform="translate(-452.563 -1211.273)" fill="#93523e"/>
    <path id="Caminho_325" data-name="Caminho 325" d="M844.574,376.712l-1.05-10.421" transform="translate(-452.563 -1211.273)" fill="none" stroke="#93523e" stroke-linecap="round" stroke-width="1.515"/>
    <path id="Caminho_326" data-name="Caminho 326" d="M831.6,377.99l-1.708-10.01Z" transform="translate(-443.181 -1212.435)" fill="#93523e"/>
    <path id="Caminho_327" data-name="Caminho 327" d="M831.6,377.99l-1.708-10.01" transform="translate(-443.181 -1212.435)" fill="none" stroke="#93523e" stroke-linecap="round" stroke-width="1.515"/>
    <path id="Caminho_328" data-name="Caminho 328" d="M819.932,386.941l-.863-5.991Z" transform="translate(-435.73 -1221.363)" fill="#93523e"/>
    <path id="Caminho_329" data-name="Caminho 329" d="M819.932,386.941l-.863-5.991" transform="translate(-435.73 -1221.363)" fill="none" stroke="#93523e" stroke-linecap="round" stroke-width="1.515"/>
    <path id="Caminho_330" data-name="Caminho 330" d="M840.507,412.542a19.711,19.711,0,0,1,4.508-5.753Z" transform="translate(-450.486 -1239.148)" fill="#93523e"/>
    <path id="Caminho_331" data-name="Caminho 331" d="M840.507,412.542a19.711,19.711,0,0,1,4.508-5.753" transform="translate(-450.486 -1239.148)" fill="none" stroke="#93523e" stroke-linecap="round" stroke-width="1.515"/>
    <path id="Caminho_332" data-name="Caminho 332" d="M851.912,511.253l-11.5-43.767a1.227,1.227,0,0,0-1.4-.859l-9.261,1.765a1.819,1.819,0,0,0-1.45,1.966l4.321,45.692Z" transform="translate(-442.079 -1280.323)" fill="#febb94"/>
    <path id="Caminho_333" data-name="Caminho 333" d="M829.642,464.952s-1.14-4.369,0-4.85,8.286-1.845,9.245-.953,1.8,4.614,1.8,4.614Z" transform="translate(-442.659 -1274.986)" fill="#febb94"/>
    <path id="Caminho_334" data-name="Caminho 334" d="M851.8,608.9a10.057,10.057,0,1,0-10.057-10.057A10.057,10.057,0,0,0,851.8,608.9Z" transform="translate(-451.339 -1364.425)" fill="#febb94"/>
    <path id="Caminho_335" data-name="Caminho 335" d="M348.221,464.791s7.33,14.2,14.815,16.531c0,0,4.207-2.234,3.536-15.126" transform="translate(-111.633 -1279.073)" fill="none" stroke="#fff" stroke-width="1"/>
    <path id="Caminho_336" data-name="Caminho 336" d="M389.274,518.3a2.553,2.553,0,1,0-2.553-2.553A2.553,2.553,0,0,0,389.274,518.3Z" transform="translate(-138.133 -1312.388)" fill="#ef854f"/>
    <path id="Caminho_337" data-name="Caminho 337" d="M381.942,510.186a.882.882,0,1,0-.882-.883A.882.882,0,0,0,381.942,510.186Z" transform="translate(-134.237 -1309.104)" fill="#d47241"/>
    <path id="Caminho_338" data-name="Caminho 338" d="M401.154,508.434a.882.882,0,1,0-.882-.882A.883.883,0,0,0,401.154,508.434Z" transform="translate(-147.461 -1307.899)" fill="#d47241"/>
    <path id="Caminho_339" data-name="Caminho 339" d="M567.035,652.758l-28.77.162v27.641l42.82-2.5Z" transform="translate(-242.445 -1408.456)" fill="#fff"/>
    <path id="Caminho_340" data-name="Caminho 340" d="M621.836,661.4l4.757,9.773" transform="translate(-299.969 -1414.404)" fill="#603f7d" stroke="#603f7d" stroke-linecap="round" stroke-width="3.816"/>
    <path id="Caminho_341" data-name="Caminho 341" d="M606.959,661.4l1.783,3.662" transform="translate(-289.729 -1414.406)" fill="#603f7d" stroke="#603f7d" stroke-linecap="round" stroke-width="3.816" opacity="0.4"/>
    <path id="Caminho_342" data-name="Caminho 342" d="M544.491,660.672l14.229-.331,1.046,3.481-14.991.512Z" transform="translate(-246.73 -1413.676)" fill="#ef854f" opacity="0.4"/>
    <path id="Caminho_343" data-name="Caminho 343" d="M545.772,679.074l8.354-.225,1.046,3.48-9.115.407Z" transform="translate(-247.612 -1426.415)" fill="#ef854f" opacity="0.4"/>
    <path id="Caminho_344" data-name="Caminho 344" d="M545.772,698.625,560,698.3l1.046,3.48-14.991.512Z" transform="translate(-247.612 -1439.801)" fill="#ef854f" opacity="0.4"/>
    <path id="Caminho_345" data-name="Caminho 345" d="M547.053,717.029l8.354-.225,1.046,3.48-9.115.407Z" transform="translate(-248.494 -1452.54)" fill="#ef854f" opacity="0.4"/>
    <path id="Caminho_346" data-name="Caminho 346" d="M468.487,758.684l31.725-19.865,22.493,6.4L495.6,769.043Z" transform="translate(-194.415 -1467.694)" fill="#603f7d"/>
    <path id="Caminho_347" data-name="Caminho 347" d="M1030.54,454.488s10.628-3.563,12.626-8.273c0,0,4.853.7,6.758,2.522s6.52,2.367,2.512,4.4-19.639,3.746-20.589,3.481S1030.54,454.488,1030.54,454.488Z" transform="translate(-581.291 -1266.286)" fill="#fff"/>
    <path id="Caminho_348" data-name="Caminho 348" d="M1003.407,451.95v2.384a6.05,6.05,0,0,0,4.4,4.1,1.583,1.583,0,0,1-1.362,2.114c-1.9.224-7.421-2.567-8.234-2.841s-1.175-1.4.407-2.3C998.623,455.411,999.19,452.322,1003.407,451.95Z" transform="translate(-558.562 -1270.234)" fill="#fff"/>
    <path id="Caminho_349" data-name="Caminho 349" d="M1035.027,501.517a.159.159,0,0,1-.044,0,.2.2,0,0,1-.128-.09.209.209,0,0,1-.028-.155c.58-2.53-1.041-5.657-2.605-8.681a23.284,23.284,0,0,1-2.671-6.661c-.72-4.861,1.247-10.322,1.268-10.375a.208.208,0,0,1,.262-.123.2.2,0,0,1,.115.105.171.171,0,0,1,.019.078.22.22,0,0,1-.013.079c-.018.053-1.954,5.42-1.253,10.178a23.221,23.221,0,0,0,2.636,6.53c1.6,3.09,3.254,6.285,2.64,8.962a.187.187,0,0,1-.071.113A.208.208,0,0,1,1035.027,501.517Z" transform="translate(-580.501 -1286.387)" fill="#fff"/>
    <path id="Caminho_350" data-name="Caminho 350" d="M1021.652,499.2a.194.194,0,0,1-.2-.155c-1.278-5.359.091-14.545.539-17.235a26.2,26.2,0,0,0,.393-6.167.2.2,0,0,1,.33-.177.2.2,0,0,1,.075.136,26.458,26.458,0,0,1-.4,6.273c-.449,2.673-1.808,11.791-.546,17.076a.182.182,0,0,1,0,.092.2.2,0,0,1-.037.083.194.194,0,0,1-.072.054.228.228,0,0,1-.09.019Z" transform="translate(-574.672 -1286.393)" fill="#fff"/>
    <g id="Grupo_10" data-name="Grupo 10" transform="translate(453.02 -785.976)" opacity="0.6">
      <path id="Caminho_351" data-name="Caminho 351" d="M1043.93,558.181a1.285,1.285,0,1,0-1.291-1.285A1.286,1.286,0,0,0,1043.93,558.181Z" transform="translate(-1042.64 -555.611)" fill="#fff" opacity="0.6"/>
    </g>
    <g id="Grupo_11" data-name="Grupo 11" transform="translate(445.923 -788.673)" opacity="0.6">
      <path id="Caminho_352" data-name="Caminho 352" d="M1021.157,549.525a1.285,1.285,0,1,0-1.287-1.285A1.287,1.287,0,0,0,1021.157,549.525Z" transform="translate(-1019.87 -546.956)" fill="#fff" opacity="0.6"/>
    </g>
    <path id="Caminho_353" data-name="Caminho 353" d="M775.69,197.54h1.87" transform="translate(-405.871 -1095.116)" fill="none" stroke="#5ca4e6" stroke-width="1"/>
    <path id="Caminho_354" data-name="Caminho 354" d="M635.012,166.147H527.284a5.7,5.7,0,0,0-5.7,5.7v69.423a5.7,5.7,0,0,0,5.7,5.7H635.012a5.7,5.7,0,0,0,5.7-5.7V171.847A5.7,5.7,0,0,0,635.012,166.147Z" transform="translate(-230.963 -1073.507)" fill="#fff"/>
    <path id="Caminho_355" data-name="Caminho 355" d="M737.293,359.794H677.447a1.793,1.793,0,0,0-1.793,1.793v8.093a1.793,1.793,0,0,0,1.793,1.793h59.846a1.793,1.793,0,0,0,1.793-1.793v-8.093A1.793,1.793,0,0,0,737.293,359.794Z" transform="translate(-337.013 -1206.801)" fill="#fff"/>
    <path id="Caminho_356" data-name="Caminho 356" d="M813.952,374.76v-.465h1.054v4.053h-.516V374.76Zm1.919.555a1.1,1.1,0,0,1,.4-.807,1.62,1.62,0,0,1,1.586-.151.948.948,0,0,1,.42.37.987.987,0,0,1,.146.532.93.93,0,0,1-.2.6.881.881,0,0,1-.516.325v.028a1.033,1.033,0,0,1,.577.353,1.062,1.062,0,0,1,.214.69,1.153,1.153,0,0,1-.146.577,1.008,1.008,0,0,1-.437.4,1.552,1.552,0,0,1-.7.146,1.5,1.5,0,0,1-.975-.308,1.215,1.215,0,0,1-.426-.886h.493a.85.85,0,0,0,.275.549.9.9,0,0,0,.628.213.808.808,0,0,0,.595-.2.723.723,0,0,0,.207-.533.672.672,0,0,0-.28-.605,1.555,1.555,0,0,0-.846-.185h-.129v-.426h.135a1.534,1.534,0,0,0,.779-.168.569.569,0,0,0,.263-.516.615.615,0,0,0-.2-.476.772.772,0,0,0-.55-.179.839.839,0,0,0-.56.179.727.727,0,0,0-.253.482Zm3.25,2.623q.712-.572,1.116-.936a4.6,4.6,0,0,0,.678-.768,1.387,1.387,0,0,0,.28-.79.845.845,0,0,0-.18-.572.689.689,0,0,0-.566-.213.751.751,0,0,0-.594.241.991.991,0,0,0-.225.634h-.493a1.345,1.345,0,0,1,.381-.97,1.286,1.286,0,0,1,.925-.342,1.27,1.27,0,0,1,.913.32,1.145,1.145,0,0,1,.342.88,1.678,1.678,0,0,1-.28.908,3.987,3.987,0,0,1-.628.773q-.353.331-.9.774h1.928v.426h-2.7Z" transform="translate(-432.208 -1216.727)" fill="#603f7d"/>
    <path id="Caminho_357" data-name="Caminho 357" d="M574.783,193.612H543.42a2.129,2.129,0,0,0-2.129,2.13v59.215a2.129,2.129,0,0,0,2.129,2.129h31.363a2.129,2.129,0,0,0,2.129-2.129V195.742A2.13,2.13,0,0,0,574.783,193.612Z" transform="translate(-244.528 -1092.412)" fill="#ef854f"/>
    <path id="Caminho_358" data-name="Caminho 358" d="M578.6,289.187a8.983,8.983,0,1,0-8.983-8.983A8.983,8.983,0,0,0,578.6,289.187Z" transform="translate(-264.024 -1145.833)" fill="#fff" opacity="0.4"/>
    <path id="Caminho_359" data-name="Caminho 359" d="M589.521,290.1v5.7a.91.91,0,0,0,1.347.8l5.212-2.851a.911.911,0,0,0,0-1.6l-5.212-2.851a.91.91,0,0,0-1.347.8Z" transform="translate(-277.726 -1158.199)" fill="#fff"/>
    <path id="Caminho_360" data-name="Caminho 360" d="M680.816,218.073h22.4" transform="translate(-340.566 -1109.25)" fill="none" stroke="#fff" stroke-linecap="round" stroke-width="16.349"/>
    <path id="Caminho_361" data-name="Caminho 361" d="M680.816,251.622h46.3" transform="translate(-340.566 -1132.343)" fill="none" stroke="#fff" stroke-linecap="round" stroke-width="16.349" opacity="0.4"/>
    <path id="Caminho_362" data-name="Caminho 362" d="M681.7,296.089h22.4" transform="translate(-341.177 -1162.95)" fill="none" stroke="#fff" stroke-linecap="round" stroke-width="16.349"/>
    <path id="Caminho_363" data-name="Caminho 363" d="M681.7,329.637H728" transform="translate(-341.177 -1186.042)" fill="none" stroke="#fff" stroke-linecap="round" stroke-width="16.349" opacity="0.4"/>
    <path id="Caminho_364" data-name="Caminho 364" d="M692.942,371.01a1.9,1.9,0,0,0-2.576,0l-.485.448-.485-.448a1.9,1.9,0,0,0-2.575,0,1.786,1.786,0,0,0,0,2.65l3.061,2.837,3.061-2.8a1.775,1.775,0,0,0,0-2.688Z" transform="translate(-344.295 -1214.174)" fill="#f4608a"/>
    <path id="Caminho_365" data-name="Caminho 365" d="M718.588,375.315a1.1,1.1,0,0,1,.4-.807,1.62,1.62,0,0,1,1.586-.151.951.951,0,0,1,.42.37.988.988,0,0,1,.146.532.929.929,0,0,1-.2.6.884.884,0,0,1-.516.325v.028a1.033,1.033,0,0,1,.577.353,1.063,1.063,0,0,1,.213.69,1.157,1.157,0,0,1-.145.577,1.009,1.009,0,0,1-.438.4,1.551,1.551,0,0,1-.7.146,1.5,1.5,0,0,1-.975-.308,1.214,1.214,0,0,1-.426-.886h.493a.848.848,0,0,0,.275.549.9.9,0,0,0,.628.213.806.806,0,0,0,.594-.2.721.721,0,0,0,.207-.533.671.671,0,0,0-.281-.605,1.553,1.553,0,0,0-.846-.185h-.129v-.426h.134a1.535,1.535,0,0,0,.779-.168.57.57,0,0,0,.263-.516.614.614,0,0,0-.2-.476.77.77,0,0,0-.549-.179.84.84,0,0,0-.561.179.727.727,0,0,0-.252.482Zm3.923,2.326-.628,1.508h-.342l.409-1.508Zm3.084-2.9h-1.967v1.278a.908.908,0,0,1,.381-.291,1.267,1.267,0,0,1,.544-.118,1.331,1.331,0,0,1,.757.2,1.055,1.055,0,0,1,.415.5,1.629,1.629,0,0,1,.129.645,1.669,1.669,0,0,1-.151.723,1.14,1.14,0,0,1-.465.5,1.468,1.468,0,0,1-.768.185,1.443,1.443,0,0,1-.953-.3,1.262,1.262,0,0,1-.443-.807h.5a.84.84,0,0,0,.308.5.954.954,0,0,0,.594.179.827.827,0,0,0,.667-.263,1.069,1.069,0,0,0,.224-.706.938.938,0,0,0-.224-.673.859.859,0,0,0-.661-.241.935.935,0,0,0-.521.146.81.81,0,0,0-.319.387h-.482v-2.287H725.6Zm.874,3.2q.711-.572,1.115-.936a4.572,4.572,0,0,0,.678-.768,1.389,1.389,0,0,0,.28-.79.844.844,0,0,0-.18-.572.69.69,0,0,0-.566-.213.752.752,0,0,0-.594.241.99.99,0,0,0-.224.634h-.493a1.348,1.348,0,0,1,.381-.97,1.287,1.287,0,0,1,.925-.342,1.273,1.273,0,0,1,.914.32,1.147,1.147,0,0,1,.342.88,1.678,1.678,0,0,1-.28.908,3.992,3.992,0,0,1-.628.773q-.353.331-.9.774h1.928v.426h-2.7Zm5.78-3.245-1.558,3.655h-.516l1.58-3.6h-2.163v-.437h2.656Z" transform="translate(-366.524 -1216.727)" fill="#603f7d"/>
    <path id="Caminho_366" data-name="Caminho 366" d="M786.517,371.675c0-1.719-2.038-3.113-4.551-3.113s-4.55,1.394-4.55,3.113,2.037,3.114,4.55,3.114c.18,0,.356-.01.53-.024a.18.18,0,0,1,.145.056,3.451,3.451,0,0,0,2.374.944.183.183,0,0,0,.1-.02.183.183,0,0,0,.1-.164.184.184,0,0,0-.028-.1,4.424,4.424,0,0,1-.544-1.134.181.181,0,0,1,.094-.207A2.928,2.928,0,0,0,786.517,371.675Z" transform="translate(-407.059 -1212.836)" fill="#603f7d"/>
    <path id="Caminho_367" data-name="Caminho 367" d="M390.875,166H351.36a5.454,5.454,0,0,0-5.455,5.454v54.5a5.455,5.455,0,0,0,5.455,5.454h39.515a5.455,5.455,0,0,0,5.455-5.454v-54.5A5.455,5.455,0,0,0,390.875,166Z" transform="translate(-110.038 -1073.406)" fill="#603f7d"/>
    <path id="Caminho_368" data-name="Caminho 368" d="M410.769,293.847,408.7,298.7h-.685l2.1-4.788h-2.874v-.581h3.53ZM412.5,295.9a1.383,1.383,0,0,1-.641-.476,1.272,1.272,0,0,1-.223-.76,1.329,1.329,0,0,1,.2-.722,1.349,1.349,0,0,1,.6-.514,2.215,2.215,0,0,1,.968-.194,2.166,2.166,0,0,1,.961.194,1.346,1.346,0,0,1,.6.514,1.36,1.36,0,0,1-.023,1.482,1.367,1.367,0,0,1-.633.476,1.4,1.4,0,0,1,.73.5,1.331,1.331,0,0,1,.276.849,1.517,1.517,0,0,1-.238.849,1.578,1.578,0,0,1-.678.559,2.67,2.67,0,0,1-2,0,1.6,1.6,0,0,1-.663-.559,1.516,1.516,0,0,1-.238-.849,1.383,1.383,0,0,1,.268-.856A1.352,1.352,0,0,1,412.5,295.9Zm2.018-1.154a.857.857,0,0,0-.3-.7,1.475,1.475,0,0,0-1.631,0,.865.865,0,0,0-.3.708.828.828,0,0,0,.306.67,1.238,1.238,0,0,0,.8.253,1.221,1.221,0,0,0,.8-.253A.841.841,0,0,0,414.521,294.748ZM413.4,296.2a1.469,1.469,0,0,0-.9.26.883.883,0,0,0-.35.767.966.966,0,0,0,.335.767,1.37,1.37,0,0,0,.916.29,1.341,1.341,0,0,0,.908-.29.966.966,0,0,0,.335-.767.9.9,0,0,0-.342-.759A1.42,1.42,0,0,0,413.4,296.2Zm2.665-1.668a1.071,1.071,0,0,1,.305-.8,1.153,1.153,0,0,1,1.564,0,1.072,1.072,0,0,1,.305.8,1.107,1.107,0,0,1-.305.819,1.174,1.174,0,0,1-1.564,0A1.106,1.106,0,0,1,416.069,294.532Zm4.349-1.028-3.016,5.2h-.67l3.016-5.2Zm-3.261.335a.5.5,0,0,0-.4.179.793.793,0,0,0-.142.514.824.824,0,0,0,.142.521.541.541,0,0,0,.8,0,.812.812,0,0,0,.149-.521.765.765,0,0,0-.149-.514A.5.5,0,0,0,417.156,293.839Zm1.765,3.835a1.082,1.082,0,0,1,.305-.812,1.059,1.059,0,0,1,.782-.305,1.034,1.034,0,0,1,.775.305,1.081,1.081,0,0,1,.305.812,1.1,1.1,0,0,1-.305.812,1.034,1.034,0,0,1-.775.305,1.073,1.073,0,0,1-.782-.3A1.107,1.107,0,0,1,418.921,297.674Zm1.08-.693a.5.5,0,0,0-.4.179.766.766,0,0,0-.149.514.783.783,0,0,0,.149.514.558.558,0,0,0,.8,0,.783.783,0,0,0,.149-.514.765.765,0,0,0-.149-.514A.5.5,0,0,0,420,296.981Z" transform="translate(-152.256 -1160.987)" fill="#fff"/>
    <path id="Caminho_369" data-name="Caminho 369" d="M392.952,279.909a15.325,15.325,0,1,0-15.325-15.325A15.325,15.325,0,0,0,392.952,279.909Z" transform="translate(-131.873 -1130.716)" fill="none" stroke="#fff" stroke-linecap="round" stroke-width="4"/>
    <path id="Caminho_370" data-name="Caminho 370" d="M408.277,298.429a15.325,15.325,0,0,1-30.65,0" transform="translate(-131.873 -1164.561)" fill="none" stroke="#ef854f" stroke-linecap="round" stroke-linejoin="round" stroke-width="4"/>
    <path id="Caminho_371" data-name="Caminho 371" d="M426.8,249.259a15.325,15.325,0,0,1,15.325,15.325" transform="translate(-165.72 -1130.716)" fill="none" stroke="#febb94" stroke-linecap="round" stroke-linejoin="round" stroke-width="4"/>
    <path id="Caminho_372" data-name="Caminho 372" d="M369.327,198.438h10.186" transform="translate(-126.16 -1095.734)" fill="none" stroke="#fff" stroke-linecap="round" stroke-width="7.433"/>
    <path id="Caminho_373" data-name="Caminho 373" d="M369.327,213.69h21.051" transform="translate(-126.16 -1106.232)" fill="none" stroke="#fff" stroke-linecap="round" stroke-width="7.433" opacity="0.4"/>
    <path id="Caminho_374" data-name="Caminho 374" d="M586.547,858.817h-225.2v5.66h225.2Z" transform="translate(-120.664 -1550.292)" fill="#603f7d"/>
    <ellipse id="Elipse_1" data-name="Elipse 1" cy="3" ry="3" transform="translate(242.581 -839.238)" fill="#5661ae"/>
  </g>
</svg>
