<svg xmlns="http://www.w3.org/2000/svg" xmlns:xlink="http://www.w3.org/1999/xlink" width="70.827" height="36.838" viewBox="0 0 70.827 36.838">
  <defs>
    <linearGradient id="linear-gradient" x1="-0.314" y1="-0.376" x2="1.2" y2="1.285" gradientUnits="objectBoundingBox">
      <stop offset="0" stop-color="#f39c49"/>
      <stop offset="1" stop-color="#ea6f55"/>
    </linearGradient>
    <linearGradient id="linear-gradient-2" x1="0.093" y1="-0.124" x2="0.986" y2="1.454" gradientUnits="objectBoundingBox">
      <stop offset="0" stop-color="#70518f"/>
      <stop offset="1" stop-color="#421957"/>
    </linearGradient>
    <linearGradient id="linear-gradient-3" x1="0.5" y1="0" x2="0.5" y2="1" xlink:href="#linear-gradient"/>
  </defs>
  <g id="Logo_Pce_Home" transform="translate(-106.71 -36.58)">
    <path id="Caminho_67" data-name="Caminho 67" d="M120.355,49.632A13.645,13.645,0,0,0,106.71,63.277c0,.321.015.637.036.951a2.652,2.652,0,0,0-.036.419V81.476a2.615,2.615,0,1,0,5.231,0V74.014a13.644,13.644,0,1,0,8.414-24.384Zm0,22.06a8.414,8.414,0,1,1,8.414-8.414A8.415,8.415,0,0,1,120.355,71.691Z" transform="translate(0 -10.673)" fill="url(#linear-gradient)"/>
    <g id="Grupo_6" data-name="Grupo 6" transform="translate(128.857 36.58)">
      <path id="Caminho_68" data-name="Caminho 68" d="M271.287,91.511a8.413,8.413,0,0,1-14.04.778,13.65,13.65,0,0,0,19-11.048,13.692,13.692,0,0,0-3.3-4.267l-.767-6.753-9.748,4.3h0l-9.365-1.794.639,5.622c-.251.291-.494.592-.721.9a13.646,13.646,0,1,0-2.544,18.719l-3.679-3.781a8.414,8.414,0,1,1,3.606-6.9,13.646,13.646,0,0,0,26.622,4.224h-5.7Zm-15.326-6.677a8.416,8.416,0,0,1,14.771-2.61,8.416,8.416,0,0,1-14.771,2.61Z" transform="translate(-228.31 -64.093)" fill="url(#linear-gradient-2)"/>
      <path id="Caminho_69" data-name="Caminho 69" d="M338.721,43.772l9.365,1.794h0l12.891-5.686a17.125,17.125,0,0,0,.639,5.586.47.47,0,1,0,.182-.015,17.1,17.1,0,0,0-.381-5.764l.565-.25L347.067,36.58l-13.9,6.131,5.551,1.064h0Z" transform="translate(-314.072 -36.58)" fill="url(#linear-gradient-3)"/>
    </g>
  </g>
</svg>
