<svg xmlns="http://www.w3.org/2000/svg" xmlns:xlink="http://www.w3.org/1999/xlink" width="221.884" height="137.303" viewBox="0 0 221.884 137.303">
  <defs>
    <linearGradient id="linear-gradient" x1="0.5" x2="0.5" y2="1" gradientUnits="objectBoundingBox">
      <stop offset="0" stop-color="#f39c49"/>
      <stop offset="1" stop-color="#ea6f55"/>
    </linearGradient>
  </defs>
  <g id="Logo_Pce" transform="translate(-105.193 -392.968)">
    <path id="Caminho_34" data-name="Caminho 34" d="M149.7,49.636A42.985,42.985,0,0,0,106.71,92.623c0,1.01.046,2.008.115,3a8.358,8.358,0,0,0-.115,1.32v53.017a8.239,8.239,0,1,0,16.479,0V126.447A42.984,42.984,0,1,0,149.7,49.63Zm0,69.5a26.508,26.508,0,1,1,26.508-26.508A26.509,26.509,0,0,1,149.7,119.131Z" transform="translate(1.333 350.658)" fill="url(#linear-gradient)"/>
    <g id="Grupo_3" data-name="Grupo 3" transform="translate(173.719 392.968)">
      <path id="Caminho_35" data-name="Caminho 35" d="M363.7,137.294a26.5,26.5,0,0,1-44.232,2.45,43,43,0,0,0,59.862-34.805,43.137,43.137,0,0,0-10.4-13.444L366.515,70.22,335.807,83.767h0l-29.5-5.652,2.014,17.712c-.792.918-1.555,1.865-2.272,2.846a42.989,42.989,0,1,0-8.016,58.973l-11.59-11.912A26.507,26.507,0,1,1,297.8,123.983a42.99,42.99,0,0,0,83.869,13.306H363.709ZM315.421,116.26a26.512,26.512,0,0,1,46.533-8.222,26.512,26.512,0,0,1-46.533,8.222Z" transform="translate(-228.31 -50.918)" fill="#fff"/>
      <path id="Caminho_36" data-name="Caminho 36" d="M350.659,59.238l29.5,5.652h0l40.612-17.913a53.951,53.951,0,0,0,2.014,17.6,1.479,1.479,0,1,0,.574-.046,53.867,53.867,0,0,0-1.2-18.16l1.779-.786-46.992-9L333.17,55.893l17.489,3.351h0Z" transform="translate(-273.004 -36.58)" fill="url(#linear-gradient)"/>
    </g>
    <g id="Grupo_4" data-name="Grupo 4" transform="translate(105.193 515.134)">
      <path id="Caminho_37" data-name="Caminho 37" d="M108.86,258.71H112c2.2,0,3.85.775,3.85,3.075S114.2,265,112.062,265h-1.394v3.621h-1.8V258.71Zm3.064,4.848c1.457,0,2.134-.574,2.134-1.773s-.757-1.635-2.2-1.635h-1.2v3.408h1.257Z" transform="translate(-108.86 -256.409)" fill="#fff"/>
      <path id="Caminho_38" data-name="Caminho 38" d="M123.96,262.854h1.469l.138,1.331h.046a2.583,2.583,0,0,1,2.123-1.515,2.232,2.232,0,0,1,.849.149l-.361,1.532a2.38,2.38,0,0,0-.711-.092c-.591,0-1.3.4-1.744,1.532v4.516h-1.8v-7.453Z" transform="translate(-115.296 -258.097)" fill="#fff"/>
      <path id="Caminho_39" data-name="Caminho 39" d="M132.78,266.595a3.569,3.569,0,1,1,3.563,3.9A3.628,3.628,0,0,1,132.78,266.595Zm5.273,0c0-1.486-.637-2.456-1.71-2.456s-1.71.97-1.71,2.456.637,2.439,1.71,2.439S138.053,268.064,138.053,266.595Z" transform="translate(-119.055 -258.097)" fill="#fff"/>
      <path id="Caminho_40" data-name="Caminho 40" d="M147.231,266.191v-3.5H146.17V261.36l1.153-.092.212-2.318h1.486v2.318h1.893v1.423h-1.893v3.5c0,.866.35,1.291,1.044,1.291a2.064,2.064,0,0,0,.775-.149l.316,1.257a3.754,3.754,0,0,1-1.543.321c-1.744,0-2.381-1.09-2.381-2.714Z" transform="translate(-124.762 -256.511)" fill="#fff"/>
      <path id="Caminho_41" data-name="Caminho 41" d="M155.86,263.2a3.569,3.569,0,1,1,3.563,3.9A3.628,3.628,0,0,1,155.86,263.2Zm5.273,0c0-1.486-.637-2.456-1.71-2.456s-1.71.97-1.71,2.456.637,2.439,1.71,2.439S161.133,264.666,161.133,263.2Zm-3.242-5.847,2.88-2.651,1.033,1.182-3.018,2.347Z" transform="translate(-128.893 -254.7)" fill="#fff"/>
      <path id="Caminho_42" data-name="Caminho 42" d="M170.311,266.191v-3.5H169.25V261.36l1.153-.092.212-2.318H172.1v2.318H174v1.423H172.1v3.5c0,.866.35,1.291,1.044,1.291a2.064,2.064,0,0,0,.775-.149l.316,1.257a3.754,3.754,0,0,1-1.543.321c-1.744,0-2.381-1.09-2.381-2.714Z" transform="translate(-134.6 -256.511)" fill="#fff"/>
      <path id="Caminho_43" data-name="Caminho 43" d="M179.92,258.246A1.081,1.081,0,1,1,181,259.261,1,1,0,0,1,179.92,258.246Zm.166,2.289h1.8v7.453h-1.8Z" transform="translate(-139.148 -255.778)" fill="#fff"/>
      <path id="Caminho_44" data-name="Caminho 44" d="M187.16,262.854h1.469l.138.786h.046a3.676,3.676,0,0,1,2.243-.97c1.848,0,2.926,1.5,2.926,3.8,0,2.548-1.515,4.016-3.167,4.016a2.948,2.948,0,0,1-1.911-.82l.063,1.245v2.318h-1.8v-10.38Zm4.986,3.638c0-1.469-.488-2.335-1.589-2.335a2.255,2.255,0,0,0-1.589.82v3.443a2.24,2.24,0,0,0,1.457.591c.97,0,1.727-.849,1.727-2.513Z" transform="translate(-142.233 -258.097)" fill="#fff"/>
      <path id="Caminho_45" data-name="Caminho 45" d="M201.23,266.595a3.569,3.569,0,1,1,3.563,3.9A3.628,3.628,0,0,1,201.23,266.595Zm5.273,0c0-1.486-.637-2.456-1.71-2.456s-1.71.97-1.71,2.456.637,2.439,1.71,2.439S206.5,268.064,206.5,266.595Z" transform="translate(-148.23 -258.097)" fill="#fff"/>
      <path id="Caminho_46" data-name="Caminho 46" d="M221.09,264.319c0-2.439,1.515-3.925,3.15-3.925a2.742,2.742,0,0,1,1.939.82l-.075-1.2V257.33h1.79v10.7h-1.457l-.138-.8h-.063a3.1,3.1,0,0,1-2.089.987C222.283,268.215,221.09,266.774,221.09,264.319Zm5.015,1.589v-3.425a2.115,2.115,0,0,0-1.486-.608c-.924,0-1.7.878-1.7,2.41,0,1.607.608,2.439,1.67,2.439a1.88,1.88,0,0,0,1.515-.82Z" transform="translate(-156.695 -255.821)" fill="#fff"/>
      <path id="Caminho_47" data-name="Caminho 47" d="M235.93,266.577a3.629,3.629,0,0,1,3.443-3.907c2.014,0,3.1,1.457,3.1,3.546a3.836,3.836,0,0,1-.092.907h-4.7a2.077,2.077,0,0,0,2.152,1.968,3.132,3.132,0,0,0,1.727-.516l.608,1.119a4.315,4.315,0,0,1-2.576.786,3.583,3.583,0,0,1-3.666-3.907Zm4.969-.786c0-1.09-.516-1.727-1.486-1.727a1.778,1.778,0,0,0-1.727,1.727Z" transform="translate(-163.02 -258.097)" fill="#fff"/>
      <path id="Caminho_48" data-name="Caminho 48" d="M254.866,263.56c0-3.242,2.031-5.17,4.544-5.17a3.865,3.865,0,0,1,2.863,1.257l-.952,1.107a2.58,2.58,0,0,0-1.882-.786c-1.578,0-2.725,1.331-2.725,3.546s1.044,3.592,2.7,3.592a2.7,2.7,0,0,0,2.089-.952l.97,1.079a3.983,3.983,0,0,1-3.139,1.44c-2.484,0-4.47-1.819-4.47-5.107Z" transform="translate(-171.089 -256.273)" fill="#fff"/>
      <path id="Caminho_49" data-name="Caminho 49" d="M269.87,266.595a3.569,3.569,0,1,1,3.563,3.9A3.628,3.628,0,0,1,269.87,266.595Zm5.273,0c0-1.486-.637-2.456-1.71-2.456s-1.71.97-1.71,2.456.637,2.439,1.71,2.439S275.143,268.064,275.143,266.595Z" transform="translate(-177.487 -258.097)" fill="#fff"/>
      <path id="Caminho_50" data-name="Caminho 50" d="M285.206,262.854h1.469l.138,1h.046a3.509,3.509,0,0,1,2.439-1.182c1.607,0,2.3,1.09,2.3,2.972v4.665h-1.79v-4.441c0-1.211-.35-1.652-1.136-1.652a2.239,2.239,0,0,0-1.67.907V270.3h-1.8v-7.453Z" transform="translate(-184.021 -258.097)" fill="#fff"/>
      <path id="Caminho_51" data-name="Caminho 51" d="M299.711,266.191v-3.5H298.65V261.36l1.153-.092.212-2.318H301.5v2.318H303.4v1.423H301.5v3.5c0,.866.35,1.291,1.044,1.291a2.064,2.064,0,0,0,.775-.149l.321,1.257a3.754,3.754,0,0,1-1.543.321c-1.744,0-2.381-1.09-2.381-2.714Z" transform="translate(-189.753 -256.511)" fill="#fff"/>
      <path id="Caminho_52" data-name="Caminho 52" d="M309.61,262.854h1.469l.138,1.331h.046a2.583,2.583,0,0,1,2.123-1.515,2.232,2.232,0,0,1,.849.149l-.361,1.532a2.38,2.38,0,0,0-.711-.092c-.591,0-1.3.4-1.744,1.532v4.516h-1.8v-7.453Z" transform="translate(-194.425 -258.097)" fill="#fff"/>
      <path id="Caminho_53" data-name="Caminho 53" d="M318.43,266.595a3.569,3.569,0,1,1,3.563,3.9A3.628,3.628,0,0,1,318.43,266.595Zm5.273,0c0-1.486-.637-2.456-1.71-2.456s-1.716.97-1.716,2.456.637,2.439,1.716,2.439S323.7,268.064,323.7,266.595Z" transform="translate(-198.184 -258.097)" fill="#fff"/>
      <path id="Caminho_54" data-name="Caminho 54" d="M333.776,266.074V257.33h1.8v8.836c0,.442.2.591.379.591a.959.959,0,0,0,.27-.029l.212,1.32a2.173,2.173,0,0,1-.941.166c-1.257,0-1.727-.82-1.727-2.134Z" transform="translate(-204.722 -255.821)" fill="#fff"/>
      <path id="Caminho_55" data-name="Caminho 55" d="M340.116,266.577a3.629,3.629,0,0,1,3.437-3.907c2.014,0,3.1,1.457,3.1,3.546a3.835,3.835,0,0,1-.092.907h-4.7a2.077,2.077,0,0,0,2.152,1.968,3.131,3.131,0,0,0,1.727-.516l.608,1.119a4.315,4.315,0,0,1-2.576.786,3.583,3.583,0,0,1-3.666-3.907Zm4.969-.786c0-1.09-.516-1.727-1.486-1.727a1.778,1.778,0,0,0-1.727,1.727Z" transform="translate(-207.425 -258.097)" fill="#fff"/>
      <path id="Caminho_56" data-name="Caminho 56" d="M359.946,258.71h5.984v1.515h-4.183v2.484h3.546v1.515h-3.546v2.88h4.332v1.515H359.94V258.71Z" transform="translate(-215.877 -256.409)" fill="#fff"/>
      <path id="Caminho_57" data-name="Caminho 57" d="M372.86,264.319c0-2.439,1.515-3.925,3.15-3.925a2.742,2.742,0,0,1,1.939.82l-.075-1.2V257.33h1.79v10.7h-1.452l-.138-.8h-.063a3.1,3.1,0,0,1-2.089.987C374.059,268.215,372.86,266.774,372.86,264.319Zm5.015,1.589v-3.425a2.115,2.115,0,0,0-1.486-.608c-.924,0-1.7.878-1.7,2.41,0,1.607.608,2.439,1.664,2.439a1.88,1.88,0,0,0,1.515-.82Z" transform="translate(-221.384 -255.821)" fill="#fff"/>
      <path id="Caminho_58" data-name="Caminho 58" d="M388.42,267.655V262.99h1.79v4.441c0,1.211.35,1.67,1.136,1.67.654,0,1.079-.3,1.624-1.016V263h1.79v7.453h-1.469l-.138-1.09h-.046a3.012,3.012,0,0,1-2.393,1.274c-1.589,0-2.289-1.09-2.289-2.972Z" transform="translate(-228.016 -258.233)" fill="#fff"/>
      <path id="Caminho_59" data-name="Caminho 59" d="M402.436,266.595a3.7,3.7,0,0,1,3.758-3.925,3.169,3.169,0,0,1,2.18.832l-.866,1.119a1.759,1.759,0,0,0-1.228-.488c-1.182,0-2,.97-2,2.456s.8,2.439,1.939,2.439a2.4,2.4,0,0,0,1.532-.591l.729,1.136a3.7,3.7,0,0,1-2.439.907,3.552,3.552,0,0,1-3.609-3.9Z" transform="translate(-233.987 -258.097)" fill="#fff"/>
      <path id="Caminho_60" data-name="Caminho 60" d="M414.53,268.3c0-1.635,1.3-2.456,4.366-2.789-.029-.757-.333-1.394-1.331-1.394a4.162,4.162,0,0,0-2.089.7l-.637-1.182a5.81,5.81,0,0,1,3.064-.97c1.848,0,2.789,1.153,2.789,3.23v4.412h-1.452l-.149-.82h-.063a3.476,3.476,0,0,1-2.272,1,2.093,2.093,0,0,1-2.215-2.18Zm4.366,0v-1.578c-2.031.241-2.639.7-2.639,1.452,0,.637.425.878,1.033.878a2.212,2.212,0,0,0,1.607-.757Z" transform="translate(-239.144 -258.097)" fill="#fff"/>
      <path id="Caminho_61" data-name="Caminho 61" d="M428,266.595a3.7,3.7,0,0,1,3.758-3.925,3.169,3.169,0,0,1,2.18.832l-.866,1.119a1.759,1.759,0,0,0-1.228-.488c-1.182,0-2,.97-2,2.456s.8,2.439,1.939,2.439a2.4,2.4,0,0,0,1.532-.591l.729,1.136a3.7,3.7,0,0,1-2.439.907,3.552,3.552,0,0,1-3.609-3.9Z" transform="translate(-244.881 -258.097)" fill="#fff"/>
      <path id="Caminho_62" data-name="Caminho 62" d="M440.76,258.246a1.081,1.081,0,1,1,1.079,1.016A1,1,0,0,1,440.76,258.246Zm.166,2.289h1.8v7.453h-1.8Z" transform="translate(-250.324 -255.778)" fill="#fff"/>
      <path id="Caminho_63" data-name="Caminho 63" d="M447.15,266.595a3.569,3.569,0,1,1,3.563,3.9A3.628,3.628,0,0,1,447.15,266.595Zm5.273,0c0-1.486-.637-2.456-1.71-2.456s-1.716.97-1.716,2.456.637,2.439,1.716,2.439S452.423,268.064,452.423,266.595Z" transform="translate(-253.048 -258.097)" fill="#fff"/>
      <path id="Caminho_64" data-name="Caminho 64" d="M462.49,262.854h1.469l.138,1h.046a3.509,3.509,0,0,1,2.439-1.182c1.607,0,2.3,1.09,2.3,2.972v4.665h-1.79v-4.441c0-1.211-.35-1.652-1.136-1.652a2.229,2.229,0,0,0-1.664.907V270.3h-1.8v-7.453Z" transform="translate(-259.586 -258.097)" fill="#fff"/>
      <path id="Caminho_65" data-name="Caminho 65" d="M476.62,268.3c0-1.635,1.3-2.456,4.366-2.789-.029-.757-.333-1.394-1.331-1.394a4.162,4.162,0,0,0-2.089.7l-.637-1.182a5.81,5.81,0,0,1,3.064-.97c1.848,0,2.789,1.153,2.789,3.23v4.412h-1.452l-.149-.82h-.063a3.476,3.476,0,0,1-2.272,1,2.093,2.093,0,0,1-2.215-2.18Zm4.366,0v-1.578c-2.031.241-2.634.7-2.634,1.452,0,.637.425.878,1.033.878a2.212,2.212,0,0,0,1.607-.757Z" transform="translate(-265.609 -258.097)" fill="#fff"/>
      <path id="Caminho_66" data-name="Caminho 66" d="M490.926,266.074V257.33h1.8v8.836c0,.442.2.591.379.591a.959.959,0,0,0,.27-.029l.212,1.32a2.173,2.173,0,0,1-.941.166c-1.257,0-1.727-.82-1.727-2.134Z" transform="translate(-271.704 -255.821)" fill="#fff"/>
    </g>
  </g>
</svg>
