<svg xmlns="http://www.w3.org/2000/svg" xmlns:xlink="http://www.w3.org/1999/xlink" width="195.849" height="123.136" viewBox="0 0 195.849 123.136">
  <defs>
    <linearGradient id="linear-gradient" x1="-0.314" y1="-0.376" x2="1.2" y2="1.285" gradientUnits="objectBoundingBox">
      <stop offset="0" stop-color="#f39c49"/>
      <stop offset="1" stop-color="#ea6f55"/>
    </linearGradient>
    <linearGradient id="linear-gradient-2" x1="0.093" y1="-0.124" x2="0.986" y2="1.454" gradientUnits="objectBoundingBox">
      <stop offset="0" stop-color="#70518f"/>
      <stop offset="1" stop-color="#421957"/>
    </linearGradient>
    <linearGradient id="linear-gradient-3" x1="0.5" y1="0" x2="0.5" y2="1" xlink:href="#linear-gradient"/>
  </defs>
  <g id="Logo_Login" transform="translate(-106.71 -36.58)">
    <path id="Caminho_67" data-name="Caminho 67" d="M144.441,49.635A37.73,37.73,0,0,0,106.71,87.367c0,.886.04,1.763.1,2.629a7.336,7.336,0,0,0-.1,1.158v46.535a7.232,7.232,0,1,0,14.464,0V117.055A37.728,37.728,0,1,0,144.441,49.63Zm0,61a23.267,23.267,0,1,1,23.267-23.267A23.268,23.268,0,0,1,144.441,110.634Z" transform="translate(0 -6.478)" fill="url(#linear-gradient)"/>
    <g id="Grupo_6" data-name="Grupo 6" transform="translate(167.951 36.58)">
      <path id="Caminho_68" data-name="Caminho 68" d="M347.15,129.094a23.263,23.263,0,0,1-38.824,2.15,37.746,37.746,0,0,0,52.543-30.55,37.862,37.862,0,0,0-9.131-11.8l-2.12-18.674L322.664,82.111h0l-25.9-4.961L298.535,92.7c-.7.806-1.365,1.637-1.994,2.5a37.733,37.733,0,1,0-7.036,51.762L279.332,136.5A23.266,23.266,0,1,1,289.3,117.41a37.734,37.734,0,0,0,73.615,11.679H347.155Zm-42.38-18.463a23.27,23.27,0,0,1,40.844-7.217,23.27,23.27,0,0,1-40.844,7.217Z" transform="translate(-228.31 -53.278)" fill="url(#linear-gradient-2)"/>
      <path id="Caminho_69" data-name="Caminho 69" d="M348.52,56.468l25.9,4.961h0l35.646-15.723a47.356,47.356,0,0,0,1.768,15.446,1.3,1.3,0,1,0,.5-.04,47.281,47.281,0,0,0-1.053-15.94l1.561-.69L371.6,36.58,333.17,53.532l15.35,2.941h0Z" transform="translate(-280.36 -36.58)" fill="url(#linear-gradient-3)"/>
    </g>
    <g id="Grupo_7" data-name="Grupo 7" transform="translate(107.793 146.43)">
      <path id="Caminho_70" data-name="Caminho 70" d="M108.86,258.71h2.755c1.929,0,3.379.68,3.379,2.7s-1.45,2.82-3.324,2.82h-1.224v3.178h-1.581v-8.7Zm2.689,4.256c1.279,0,1.873-.5,1.873-1.556s-.665-1.435-1.929-1.435h-1.053v2.992h1.1Z" transform="translate(-108.86 -256.69)" fill="#4d5360"/>
      <path id="Caminho_71" data-name="Caminho 71" d="M123.96,262.831h1.289L125.37,264h.04a2.267,2.267,0,0,1,1.863-1.33,1.96,1.96,0,0,1,.745.131l-.317,1.345a2.089,2.089,0,0,0-.625-.081c-.519,0-1.143.347-1.531,1.345v3.964h-1.581v-6.542Z" transform="translate(-116.355 -258.656)" fill="#4d5360"/>
      <path id="Caminho_72" data-name="Caminho 72" d="M132.78,266.115a3.133,3.133,0,1,1,3.128,3.42A3.184,3.184,0,0,1,132.78,266.115Zm4.628,0c0-1.3-.559-2.156-1.5-2.156s-1.5.851-1.5,2.156.559,2.14,1.5,2.14S137.408,267.4,137.408,266.115Z" transform="translate(-120.733 -258.656)" fill="#4d5360"/>
      <path id="Caminho_73" data-name="Caminho 73" d="M147.1,265.306v-3.072h-.932v-1.168l1.012-.081.186-2.035h1.3v2.035h1.662v1.249h-1.662v3.072c0,.761.307,1.133.917,1.133a1.812,1.812,0,0,0,.68-.131l.277,1.1a3.3,3.3,0,0,1-1.355.282c-1.531,0-2.09-.957-2.09-2.382Z" transform="translate(-127.38 -256.81)" fill="#4d5360"/>
      <path id="Caminho_74" data-name="Caminho 74" d="M155.86,262.159a3.133,3.133,0,1,1,3.128,3.42A3.184,3.184,0,0,1,155.86,262.159Zm4.628,0c0-1.3-.559-2.156-1.5-2.156s-1.5.851-1.5,2.156.559,2.14,1.5,2.14S160.488,263.448,160.488,262.159Zm-2.845-5.132,2.528-2.327.907,1.037-2.649,2.06Z" transform="translate(-132.19 -254.7)" fill="#4d5360"/>
      <path id="Caminho_75" data-name="Caminho 75" d="M170.182,265.306v-3.072h-.932v-1.168l1.012-.081.186-2.035h1.3v2.035h1.662v1.249h-1.662v3.072c0,.761.307,1.133.917,1.133a1.811,1.811,0,0,0,.68-.131l.277,1.1a3.3,3.3,0,0,1-1.355.282c-1.531,0-2.09-.957-2.09-2.382Z" transform="translate(-138.836 -256.81)" fill="#4d5360"/>
      <path id="Caminho_76" data-name="Caminho 76" d="M179.92,258.121a.949.949,0,1,1,.947.891A.875.875,0,0,1,179.92,258.121Zm.146,2.009h1.581v6.542h-1.581Z" transform="translate(-144.132 -255.956)" fill="#4d5360"/>
      <path id="Caminho_77" data-name="Caminho 77" d="M187.16,262.831h1.289l.121.69h.04a3.227,3.227,0,0,1,1.969-.851c1.622,0,2.568,1.319,2.568,3.339,0,2.236-1.33,3.525-2.78,3.525a2.588,2.588,0,0,1-1.677-.72l.055,1.093v2.035h-1.581v-9.111Zm4.376,3.193c0-1.289-.428-2.05-1.4-2.05a1.979,1.979,0,0,0-1.4.72v3.022a1.966,1.966,0,0,0,1.279.519c.851,0,1.516-.745,1.516-2.206Z" transform="translate(-147.726 -258.656)" fill="#4d5360"/>
      <path id="Caminho_78" data-name="Caminho 78" d="M201.23,266.115a3.133,3.133,0,1,1,3.128,3.42A3.184,3.184,0,0,1,201.23,266.115Zm4.628,0c0-1.3-.559-2.156-1.5-2.156s-1.5.851-1.5,2.156.559,2.14,1.5,2.14S205.858,267.4,205.858,266.115Z" transform="translate(-154.71 -258.656)" fill="#4d5360"/>
      <path id="Caminho_79" data-name="Caminho 79" d="M221.09,263.464c0-2.14,1.33-3.445,2.765-3.445a2.407,2.407,0,0,1,1.7.72l-.065-1.053V257.33h1.571v9.393h-1.279l-.121-.705h-.055a2.718,2.718,0,0,1-1.833.866C222.137,266.884,221.09,265.62,221.09,263.464Zm4.4,1.4v-3.007a1.856,1.856,0,0,0-1.3-.534c-.811,0-1.491.771-1.491,2.115,0,1.41.534,2.14,1.466,2.14a1.65,1.65,0,0,0,1.33-.72Z" transform="translate(-164.568 -256.005)" fill="#4d5360"/>
      <path id="Caminho_80" data-name="Caminho 80" d="M235.93,266.1a3.185,3.185,0,0,1,3.022-3.43c1.768,0,2.725,1.279,2.725,3.112a3.368,3.368,0,0,1-.081.8h-4.125a1.823,1.823,0,0,0,1.889,1.727,2.748,2.748,0,0,0,1.516-.453l.534.982a3.787,3.787,0,0,1-2.261.69,3.145,3.145,0,0,1-3.218-3.43Zm4.361-.69c0-.957-.453-1.516-1.3-1.516a1.561,1.561,0,0,0-1.516,1.516Z" transform="translate(-171.934 -258.656)" fill="#4d5360"/>
      <path id="Caminho_81" data-name="Caminho 81" d="M254.865,262.928c0-2.845,1.783-4.538,3.989-4.538a3.392,3.392,0,0,1,2.513,1.1l-.836.972a2.264,2.264,0,0,0-1.652-.69c-1.385,0-2.392,1.168-2.392,3.112s.917,3.153,2.367,3.153a2.374,2.374,0,0,0,1.833-.836l.851.947a3.5,3.5,0,0,1-2.755,1.264c-2.181,0-3.923-1.6-3.923-4.482Z" transform="translate(-181.331 -256.532)" fill="#4d5360"/>
      <path id="Caminho_82" data-name="Caminho 82" d="M269.87,266.115a3.133,3.133,0,1,1,3.128,3.42A3.184,3.184,0,0,1,269.87,266.115Zm4.628,0c0-1.3-.559-2.156-1.5-2.156s-1.5.851-1.5,2.156.559,2.14,1.5,2.14S274.5,267.4,274.5,266.115Z" transform="translate(-188.782 -258.656)" fill="#4d5360"/>
      <path id="Caminho_83" data-name="Caminho 83" d="M285.2,262.831h1.289l.121.876h.04a3.079,3.079,0,0,1,2.14-1.037c1.41,0,2.02.957,2.02,2.609v4.094h-1.571v-3.9c0-1.063-.307-1.45-1-1.45a1.965,1.965,0,0,0-1.466.8v4.548H285.2v-6.542Z" transform="translate(-196.391 -258.656)" fill="#4d5360"/>
      <path id="Caminho_84" data-name="Caminho 84" d="M299.582,265.306v-3.072h-.932v-1.168l1.012-.081.186-2.035h1.3v2.035h1.662v1.249h-1.662v3.072c0,.761.307,1.133.917,1.133a1.812,1.812,0,0,0,.68-.131l.282,1.1a3.3,3.3,0,0,1-1.355.282c-1.531,0-2.09-.957-2.09-2.382Z" transform="translate(-203.067 -256.81)" fill="#4d5360"/>
      <path id="Caminho_85" data-name="Caminho 85" d="M309.61,262.831H310.9L311.02,264h.04a2.267,2.267,0,0,1,1.863-1.33,1.96,1.96,0,0,1,.745.131l-.317,1.345a2.088,2.088,0,0,0-.624-.081c-.519,0-1.143.347-1.531,1.345v3.964h-1.581v-6.542Z" transform="translate(-208.507 -258.656)" fill="#4d5360"/>
      <path id="Caminho_86" data-name="Caminho 86" d="M318.43,266.115a3.133,3.133,0,1,1,3.128,3.42A3.184,3.184,0,0,1,318.43,266.115Zm4.628,0c0-1.3-.559-2.156-1.5-2.156s-1.506.851-1.506,2.156.559,2.14,1.506,2.14S323.058,267.4,323.058,266.115Z" transform="translate(-212.885 -258.656)" fill="#4d5360"/>
      <path id="Caminho_87" data-name="Caminho 87" d="M333.775,265.005V257.33h1.581v7.756c0,.388.171.519.332.519a.842.842,0,0,0,.237-.025l.186,1.158a1.907,1.907,0,0,1-.826.146c-1.1,0-1.516-.72-1.516-1.873Z" transform="translate(-220.5 -256.005)" fill="#4d5360"/>
      <path id="Caminho_88" data-name="Caminho 88" d="M340.115,266.1a3.185,3.185,0,0,1,3.017-3.43c1.768,0,2.725,1.279,2.725,3.112a3.368,3.368,0,0,1-.081.8h-4.125a1.823,1.823,0,0,0,1.889,1.727,2.749,2.749,0,0,0,1.516-.453l.534.982a3.787,3.787,0,0,1-2.261.69,3.145,3.145,0,0,1-3.218-3.43Zm4.361-.69c0-.957-.453-1.516-1.3-1.516a1.561,1.561,0,0,0-1.516,1.516Z" transform="translate(-223.647 -258.656)" fill="#4d5360"/>
      <path id="Caminho_89" data-name="Caminho 89" d="M359.945,258.71H365.2v1.33h-3.671v2.181h3.112v1.33h-3.112v2.528h3.8v1.33H359.94v-8.7Z" transform="translate(-233.49 -256.69)" fill="#4d5360"/>
      <path id="Caminho_90" data-name="Caminho 90" d="M372.86,263.464c0-2.14,1.33-3.445,2.765-3.445a2.407,2.407,0,0,1,1.7.72l-.065-1.053V257.33h1.571v9.393h-1.274l-.121-.705h-.055a2.718,2.718,0,0,1-1.833.866C373.913,266.884,372.86,265.62,372.86,263.464Zm4.4,1.4v-3.007a1.857,1.857,0,0,0-1.3-.534c-.811,0-1.491.771-1.491,2.115,0,1.41.534,2.14,1.461,2.14a1.65,1.65,0,0,0,1.33-.72Z" transform="translate(-239.903 -256.005)" fill="#4d5360"/>
      <path id="Caminho_91" data-name="Caminho 91" d="M388.42,267.084V262.99h1.571v3.9c0,1.063.307,1.466,1,1.466.574,0,.947-.267,1.425-.891V263h1.571v6.542H392.7l-.121-.957h-.04a2.643,2.643,0,0,1-2.1,1.118c-1.4,0-2.009-.957-2.009-2.609Z" transform="translate(-247.627 -258.815)" fill="#4d5360"/>
      <path id="Caminho_92" data-name="Caminho 92" d="M402.435,266.115a3.245,3.245,0,0,1,3.3-3.445,2.782,2.782,0,0,1,1.914.73l-.761.982a1.544,1.544,0,0,0-1.078-.428c-1.037,0-1.758.851-1.758,2.155s.705,2.14,1.7,2.14a2.1,2.1,0,0,0,1.345-.519l.64,1a3.251,3.251,0,0,1-2.14.8,3.118,3.118,0,0,1-3.168-3.42Z" transform="translate(-254.581 -258.656)" fill="#4d5360"/>
      <path id="Caminho_93" data-name="Caminho 93" d="M414.53,267.616c0-1.435,1.143-2.156,3.833-2.448-.025-.665-.292-1.224-1.168-1.224a3.654,3.654,0,0,0-1.833.614l-.559-1.037a5.1,5.1,0,0,1,2.689-.851c1.622,0,2.448,1.012,2.448,2.835v3.873h-1.274l-.131-.72h-.055a3.051,3.051,0,0,1-1.994.876,1.837,1.837,0,0,1-1.944-1.914Zm3.833,0v-1.385c-1.783.212-2.317.614-2.317,1.274,0,.559.373.771.906.771a1.941,1.941,0,0,0,1.41-.665Z" transform="translate(-260.587 -258.656)" fill="#4d5360"/>
      <path id="Caminho_94" data-name="Caminho 94" d="M428,266.115a3.245,3.245,0,0,1,3.3-3.445,2.781,2.781,0,0,1,1.914.73l-.76.982a1.544,1.544,0,0,0-1.078-.428c-1.037,0-1.758.851-1.758,2.155s.705,2.14,1.7,2.14a2.105,2.105,0,0,0,1.345-.519l.64,1a3.251,3.251,0,0,1-2.14.8,3.118,3.118,0,0,1-3.168-3.42Z" transform="translate(-267.268 -258.656)" fill="#4d5360"/>
      <path id="Caminho_95" data-name="Caminho 95" d="M440.76,258.121a.949.949,0,1,1,.947.891A.875.875,0,0,1,440.76,258.121Zm.146,2.009h1.581v6.542h-1.581Z" transform="translate(-273.607 -255.956)" fill="#4d5360"/>
      <path id="Caminho_96" data-name="Caminho 96" d="M447.15,266.115a3.133,3.133,0,1,1,3.128,3.42A3.184,3.184,0,0,1,447.15,266.115Zm4.628,0c0-1.3-.559-2.156-1.5-2.156s-1.506.851-1.506,2.156.559,2.14,1.506,2.14S451.778,267.4,451.778,266.115Z" transform="translate(-276.779 -258.656)" fill="#4d5360"/>
      <path id="Caminho_97" data-name="Caminho 97" d="M462.49,262.831h1.289l.121.876h.04a3.08,3.08,0,0,1,2.14-1.037c1.41,0,2.02.957,2.02,2.609v4.094h-1.571v-3.9c0-1.063-.307-1.45-1-1.45a1.956,1.956,0,0,0-1.46.8v4.548H462.49v-6.542Z" transform="translate(-284.393 -258.656)" fill="#4d5360"/>
      <path id="Caminho_98" data-name="Caminho 98" d="M476.62,267.616c0-1.435,1.143-2.156,3.833-2.448-.025-.665-.292-1.224-1.168-1.224a3.654,3.654,0,0,0-1.833.614l-.559-1.037a5.1,5.1,0,0,1,2.689-.851c1.622,0,2.448,1.012,2.448,2.835v3.873h-1.274l-.131-.72h-.055a3.051,3.051,0,0,1-1.994.876,1.837,1.837,0,0,1-1.944-1.914Zm3.833,0v-1.385c-1.783.212-2.312.614-2.312,1.274,0,.559.373.771.906.771a1.941,1.941,0,0,0,1.41-.665Z" transform="translate(-291.407 -258.656)" fill="#4d5360"/>
      <path id="Caminho_99" data-name="Caminho 99" d="M490.925,265.005V257.33h1.581v7.756c0,.388.171.519.332.519a.842.842,0,0,0,.237-.025l.186,1.158a1.907,1.907,0,0,1-.826.146c-1.1,0-1.516-.72-1.516-1.873Z" transform="translate(-298.505 -256.005)" fill="#4d5360"/>
    </g>
  </g>
</svg>
