<svg xmlns="http://www.w3.org/2000/svg" xmlns:xlink="http://www.w3.org/1999/xlink" width="178.396" height="112.163" viewBox="0 0 178.396 112.163">
  <defs>
    <linearGradient id="linear-gradient" x1="-0.314" y1="-0.376" x2="1.2" y2="1.285" gradientUnits="objectBoundingBox">
      <stop offset="0" stop-color="#f39c49"/>
      <stop offset="1" stop-color="#ea6f55"/>
    </linearGradient>
    <linearGradient id="linear-gradient-2" x1="0.093" y1="-0.124" x2="0.986" y2="1.454" gradientUnits="objectBoundingBox">
      <stop offset="0" stop-color="#70518f"/>
      <stop offset="1" stop-color="#421957"/>
    </linearGradient>
    <linearGradient id="linear-gradient-3" x1="0.5" y1="0" x2="0.5" y2="1" xlink:href="#linear-gradient"/>
  </defs>
  <g id="Logo_Finalizacao" transform="translate(0 0)">
    <path id="Caminho_67" data-name="Caminho 67" d="M141.079,49.635A34.367,34.367,0,0,0,106.71,84c0,.807.037,1.606.092,2.395a6.682,6.682,0,0,0-.092,1.055v42.388a6.588,6.588,0,1,0,13.175,0V111.046A34.366,34.366,0,1,0,141.079,49.63Zm0,55.563A21.194,21.194,0,1,1,162.273,84,21.194,21.194,0,0,1,141.079,105.2Z" transform="translate(-106.71 -43.643)" fill="url(#linear-gradient)"/>
    <g id="Grupo_6" data-name="Grupo 6" transform="translate(55.783 0)">
      <path id="Caminho_68" data-name="Caminho 68" d="M336.559,123.847a21.19,21.19,0,0,1-35.364,1.959,34.382,34.382,0,0,0,47.861-27.827,34.488,34.488,0,0,0-8.317-10.748l-1.931-17.01L314.255,81.051h0l-23.589-4.519,1.61,14.161c-.633.734-1.243,1.491-1.817,2.275a34.37,34.37,0,1,0-6.409,47.15l-9.267-9.523a21.193,21.193,0,1,1,9.083-17.391,34.371,34.371,0,0,0,67.054,10.638H336.564Zm-38.6-16.817a21.2,21.2,0,0,1,37.2-6.574,21.2,21.2,0,0,1-37.2,6.574Z" transform="translate(-228.31 -54.788)" fill="url(#linear-gradient-2)"/>
      <path id="Caminho_69" data-name="Caminho 69" d="M347.152,54.7l23.589,4.519h0l32.47-14.322a43.136,43.136,0,0,0,1.61,14.07,1.183,1.183,0,1,0,.459-.037,43.067,43.067,0,0,0-.959-14.519l1.422-.628-37.571-7.2-35,15.441L347.153,54.7h0Z" transform="translate(-285.066 -36.58)" fill="url(#linear-gradient-3)"/>
    </g>
    <g id="Grupo_7" data-name="Grupo 7" transform="translate(0.986 100.061)">
      <path id="Caminho_70" data-name="Caminho 70" d="M108.86,258.71h2.509c1.757,0,3.078.619,3.078,2.459s-1.321,2.569-3.028,2.569h-1.115v2.895h-1.44V258.71Zm2.45,3.876c1.165,0,1.707-.459,1.707-1.418s-.606-1.307-1.757-1.307H110.3v2.725h1Z" transform="translate(-108.86 -256.87)" fill="#4d5360"/>
      <path id="Caminho_71" data-name="Caminho 71" d="M123.96,262.817h1.174l.11,1.064h.037a2.065,2.065,0,0,1,1.7-1.211,1.785,1.785,0,0,1,.679.119l-.289,1.225a1.9,1.9,0,0,0-.569-.073c-.473,0-1.041.317-1.395,1.225v3.61h-1.44v-5.959Z" transform="translate(-117.033 -259.014)" fill="#4d5360"/>
      <path id="Caminho_72" data-name="Caminho 72" d="M132.78,265.808a2.854,2.854,0,1,1,2.849,3.115A2.9,2.9,0,0,1,132.78,265.808Zm4.216,0c0-1.188-.509-1.963-1.367-1.963s-1.367.775-1.367,1.963.509,1.95,1.367,1.95S137,266.982,137,265.808Z" transform="translate(-121.807 -259.014)" fill="#4d5360"/>
      <path id="Caminho_73" data-name="Caminho 73" d="M147.019,264.739v-2.8h-.849v-1.064l.922-.073.17-1.853h1.188V260.8h1.514v1.138H148.45v2.8c0,.693.28,1.032.835,1.032a1.65,1.65,0,0,0,.619-.119l.252,1a3,3,0,0,1-1.234.257c-1.395,0-1.9-.872-1.9-2.17Z" transform="translate(-129.054 -257)" fill="#4d5360"/>
      <path id="Caminho_74" data-name="Caminho 74" d="M155.86,261.494a2.854,2.854,0,1,1,2.849,3.115A2.9,2.9,0,0,1,155.86,261.494Zm4.216,0c0-1.188-.509-1.963-1.367-1.963s-1.367.775-1.367,1.963.509,1.95,1.367,1.95S160.076,262.668,160.076,261.494Zm-2.592-4.675,2.3-2.119.826.945-2.413,1.876Z" transform="translate(-134.299 -254.7)" fill="#4d5360"/>
      <path id="Caminho_75" data-name="Caminho 75" d="M170.1,264.739v-2.8h-.849v-1.064l.922-.073.17-1.853h1.188V260.8h1.514v1.138H171.53v2.8c0,.693.28,1.032.835,1.032a1.65,1.65,0,0,0,.619-.119l.252,1a3,3,0,0,1-1.234.257c-1.395,0-1.9-.872-1.9-2.17Z" transform="translate(-141.547 -257)" fill="#4d5360"/>
      <path id="Caminho_76" data-name="Caminho 76" d="M179.92,258.042a.864.864,0,1,1,.862.812A.8.8,0,0,1,179.92,258.042Zm.133,1.83h1.44v5.959h-1.44Z" transform="translate(-147.322 -256.069)" fill="#4d5360"/>
      <path id="Caminho_77" data-name="Caminho 77" d="M187.16,262.817h1.174l.11.628h.037a2.939,2.939,0,0,1,1.794-.775c1.477,0,2.34,1.2,2.34,3.041,0,2.037-1.211,3.211-2.532,3.211a2.357,2.357,0,0,1-1.528-.656l.05,1v1.853h-1.44v-8.3Zm3.986,2.908c0-1.174-.39-1.867-1.271-1.867a1.8,1.8,0,0,0-1.271.656v2.752a1.791,1.791,0,0,0,1.165.473c.775,0,1.381-.679,1.381-2.009Z" transform="translate(-151.24 -259.014)" fill="#4d5360"/>
      <path id="Caminho_78" data-name="Caminho 78" d="M201.23,265.808a2.854,2.854,0,1,1,2.849,3.115A2.9,2.9,0,0,1,201.23,265.808Zm4.216,0c0-1.188-.509-1.963-1.367-1.963s-1.367.775-1.367,1.963.509,1.95,1.367,1.95S205.446,266.982,205.446,265.808Z" transform="translate(-158.856 -259.014)" fill="#4d5360"/>
      <path id="Caminho_79" data-name="Caminho 79" d="M221.09,262.918c0-1.95,1.211-3.138,2.518-3.138a2.193,2.193,0,0,1,1.551.656l-.06-.959V257.33h1.431v8.556h-1.165l-.11-.642h-.05a2.476,2.476,0,0,1-1.67.789C222.044,266.032,221.09,264.881,221.09,262.918Zm4.009,1.271V261.45a1.691,1.691,0,0,0-1.188-.486c-.739,0-1.358.7-1.358,1.927,0,1.284.486,1.95,1.335,1.95a1.5,1.5,0,0,0,1.211-.656Z" transform="translate(-169.605 -256.124)" fill="#4d5360"/>
      <path id="Caminho_80" data-name="Caminho 80" d="M235.93,265.794a2.9,2.9,0,0,1,2.752-3.124c1.61,0,2.482,1.165,2.482,2.835a3.067,3.067,0,0,1-.073.725h-3.757a1.661,1.661,0,0,0,1.72,1.573,2.5,2.5,0,0,0,1.381-.413l.486.895a3.45,3.45,0,0,1-2.06.629,2.865,2.865,0,0,1-2.931-3.124Zm3.973-.629c0-.872-.413-1.381-1.188-1.381a1.422,1.422,0,0,0-1.381,1.381Z" transform="translate(-177.638 -259.014)" fill="#4d5360"/>
      <path id="Caminho_81" data-name="Caminho 81" d="M254.865,262.523c0-2.592,1.624-4.133,3.633-4.133a3.09,3.09,0,0,1,2.289,1l-.762.885a2.062,2.062,0,0,0-1.5-.628c-1.262,0-2.179,1.064-2.179,2.835s.835,2.872,2.156,2.872a2.162,2.162,0,0,0,1.67-.762l.775.862a3.184,3.184,0,0,1-2.509,1.151c-1.986,0-3.574-1.454-3.574-4.083Z" transform="translate(-187.884 -256.697)" fill="#4d5360"/>
      <path id="Caminho_82" data-name="Caminho 82" d="M269.87,265.808a2.854,2.854,0,1,1,2.849,3.115A2.9,2.9,0,0,1,269.87,265.808Zm4.216,0c0-1.188-.509-1.963-1.367-1.963s-1.367.775-1.367,1.963.509,1.95,1.367,1.95S274.086,266.982,274.086,265.808Z" transform="translate(-196.008 -259.014)" fill="#4d5360"/>
      <path id="Caminho_83" data-name="Caminho 83" d="M285.2,262.817h1.174l.11.8h.037a2.805,2.805,0,0,1,1.95-.945c1.284,0,1.84.872,1.84,2.376v3.73h-1.431v-3.551c0-.968-.28-1.321-.908-1.321a1.79,1.79,0,0,0-1.335.725v4.142H285.2v-5.959Z" transform="translate(-204.305 -259.014)" fill="#4d5360"/>
      <path id="Caminho_84" data-name="Caminho 84" d="M299.5,264.739v-2.8h-.849v-1.064l.922-.073.17-1.853h1.188V260.8h1.514v1.138H300.93v2.8c0,.693.28,1.032.835,1.032a1.651,1.651,0,0,0,.619-.119l.257,1a3,3,0,0,1-1.234.257c-1.395,0-1.9-.872-1.9-2.17Z" transform="translate(-211.585 -257)" fill="#4d5360"/>
      <path id="Caminho_85" data-name="Caminho 85" d="M309.61,262.817h1.174l.11,1.064h.037a2.065,2.065,0,0,1,1.7-1.211,1.785,1.785,0,0,1,.679.119l-.289,1.225a1.9,1.9,0,0,0-.569-.073c-.472,0-1.041.317-1.395,1.225v3.61h-1.441v-5.959Z" transform="translate(-217.517 -259.014)" fill="#4d5360"/>
      <path id="Caminho_86" data-name="Caminho 86" d="M318.43,265.808a2.854,2.854,0,1,1,2.849,3.115A2.9,2.9,0,0,1,318.43,265.808Zm4.216,0c0-1.188-.509-1.963-1.367-1.963s-1.372.775-1.372,1.963.509,1.95,1.372,1.95S322.646,266.982,322.646,265.808Z" transform="translate(-222.291 -259.014)" fill="#4d5360"/>
      <path id="Caminho_87" data-name="Caminho 87" d="M333.775,264.321V257.33h1.44v7.065c0,.353.156.473.3.473a.768.768,0,0,0,.216-.023l.17,1.055a1.737,1.737,0,0,1-.752.133c-1,0-1.381-.656-1.381-1.707Z" transform="translate(-230.594 -256.124)" fill="#4d5360"/>
      <path id="Caminho_88" data-name="Caminho 88" d="M340.115,265.794a2.9,2.9,0,0,1,2.748-3.124c1.61,0,2.482,1.165,2.482,2.835a3.068,3.068,0,0,1-.073.725h-3.757a1.661,1.661,0,0,0,1.72,1.573,2.5,2.5,0,0,0,1.381-.413l.486.895a3.449,3.449,0,0,1-2.06.629,2.865,2.865,0,0,1-2.931-3.124Zm3.973-.629c0-.872-.413-1.381-1.188-1.381a1.421,1.421,0,0,0-1.381,1.381Z" transform="translate(-234.026 -259.014)" fill="#4d5360"/>
      <path id="Caminho_89" data-name="Caminho 89" d="M359.944,258.71h4.785v1.211h-3.344v1.986h2.835v1.211h-2.835v2.3h3.464v1.211H359.94V258.71Z" transform="translate(-244.759 -256.87)" fill="#4d5360"/>
      <path id="Caminho_90" data-name="Caminho 90" d="M372.86,262.918c0-1.95,1.211-3.138,2.518-3.138a2.192,2.192,0,0,1,1.551.656l-.06-.959V257.33H378.3v8.556H377.14l-.11-.642h-.051a2.476,2.476,0,0,1-1.67.789C373.819,266.032,372.86,264.881,372.86,262.918Zm4.009,1.271V261.45a1.691,1.691,0,0,0-1.188-.486c-.739,0-1.358.7-1.358,1.927,0,1.284.486,1.95,1.33,1.95a1.5,1.5,0,0,0,1.211-.656Z" transform="translate(-251.752 -256.124)" fill="#4d5360"/>
      <path id="Caminho_91" data-name="Caminho 91" d="M388.42,266.72v-3.73h1.431v3.551c0,.968.28,1.335.908,1.335.523,0,.862-.243,1.3-.812v-4.069h1.431v5.959h-1.174l-.11-.872h-.037a2.408,2.408,0,0,1-1.913,1.018c-1.271,0-1.83-.872-1.83-2.376Z" transform="translate(-260.174 -259.187)" fill="#4d5360"/>
      <path id="Caminho_92" data-name="Caminho 92" d="M402.435,265.808a2.956,2.956,0,0,1,3-3.138,2.534,2.534,0,0,1,1.743.665l-.693.895a1.406,1.406,0,0,0-.982-.39c-.945,0-1.6.775-1.6,1.963s.642,1.95,1.551,1.95a1.917,1.917,0,0,0,1.225-.473l.583.908a2.961,2.961,0,0,1-1.95.725,2.84,2.84,0,0,1-2.886-3.115Z" transform="translate(-267.757 -259.014)" fill="#4d5360"/>
      <path id="Caminho_93" data-name="Caminho 93" d="M414.53,267.175c0-1.307,1.041-1.963,3.491-2.23-.023-.605-.266-1.115-1.064-1.115a3.328,3.328,0,0,0-1.67.56l-.509-.945a4.645,4.645,0,0,1,2.45-.775c1.477,0,2.23.922,2.23,2.583v3.528H418.3l-.119-.656h-.05a2.779,2.779,0,0,1-1.817.8,1.674,1.674,0,0,1-1.771-1.743Zm3.491,0v-1.262c-1.624.193-2.11.56-2.11,1.161,0,.509.339.7.826.7a1.768,1.768,0,0,0,1.284-.606Z" transform="translate(-274.306 -259.014)" fill="#4d5360"/>
      <path id="Caminho_94" data-name="Caminho 94" d="M427.995,265.808a2.956,2.956,0,0,1,3-3.138,2.534,2.534,0,0,1,1.743.665l-.693.895a1.407,1.407,0,0,0-.982-.39c-.945,0-1.6.775-1.6,1.963s.642,1.95,1.551,1.95a1.918,1.918,0,0,0,1.225-.473l.583.908a2.961,2.961,0,0,1-1.95.725,2.84,2.84,0,0,1-2.886-3.115Z" transform="translate(-281.591 -259.014)" fill="#4d5360"/>
      <path id="Caminho_95" data-name="Caminho 95" d="M440.76,258.042a.864.864,0,1,1,.862.812A.8.8,0,0,1,440.76,258.042Zm.133,1.83h1.44v5.959h-1.44Z" transform="translate(-288.503 -256.069)" fill="#4d5360"/>
      <path id="Caminho_96" data-name="Caminho 96" d="M447.15,265.808A2.854,2.854,0,1,1,450,268.923,2.9,2.9,0,0,1,447.15,265.808Zm4.216,0c0-1.188-.509-1.963-1.367-1.963s-1.372.775-1.372,1.963.509,1.95,1.372,1.95S451.366,266.982,451.366,265.808Z" transform="translate(-291.962 -259.014)" fill="#4d5360"/>
      <path id="Caminho_97" data-name="Caminho 97" d="M462.49,262.817h1.174l.11.8h.037a2.805,2.805,0,0,1,1.95-.945c1.284,0,1.84.872,1.84,2.376v3.73h-1.431v-3.551c0-.968-.28-1.321-.908-1.321a1.782,1.782,0,0,0-1.33.725v4.142h-1.44v-5.959Z" transform="translate(-300.265 -259.014)" fill="#4d5360"/>
      <path id="Caminho_98" data-name="Caminho 98" d="M476.62,267.175c0-1.307,1.041-1.963,3.491-2.23-.023-.605-.266-1.115-1.064-1.115a3.328,3.328,0,0,0-1.67.56l-.509-.945a4.645,4.645,0,0,1,2.45-.775c1.477,0,2.229.922,2.229,2.583v3.528h-1.161l-.119-.656h-.05a2.779,2.779,0,0,1-1.817.8,1.674,1.674,0,0,1-1.771-1.743Zm3.491,0v-1.262c-1.624.193-2.106.56-2.106,1.161,0,.509.339.7.826.7a1.768,1.768,0,0,0,1.284-.606Z" transform="translate(-307.913 -259.014)" fill="#4d5360"/>
      <path id="Caminho_99" data-name="Caminho 99" d="M490.925,264.321V257.33h1.44v7.065c0,.353.156.473.3.473a.767.767,0,0,0,.216-.023l.17,1.055a1.737,1.737,0,0,1-.752.133c-1,0-1.381-.656-1.381-1.707Z" transform="translate(-315.653 -256.124)" fill="#4d5360"/>
    </g>
  </g>
</svg>
